<svg width="202" height="173" viewBox="0 0 202 173" fill="none" xmlns="http://www.w3.org/2000/svg">
<g clip-path="url(#clip0_462_4292)">
<path d="M183.905 92.9196H182.451C172.292 92.9196 164.057 84.7114 164.057 74.5862C164.057 64.461 172.292 56.2528 182.451 56.2528H183.905C194.086 56.2528 202.34 48.026 202.34 37.8777C202.34 27.7294 194.087 19.5026 183.905 19.5026H52.8039C42.6453 19.5026 34.4101 27.7107 34.4101 37.8359V42.1397C34.4101 49.8881 28.1081 56.1694 20.3341 56.1694C10.1524 56.1694 1.89837 64.3961 1.89837 74.5444C1.89837 84.6927 10.1523 92.9196 20.3341 92.9196H24.3343C34.495 92.9196 42.7319 101.129 42.7319 111.257C42.7319 121.384 34.495 129.594 24.3343 129.594H19.3762C9.1944 129.594 0.94043 137.821 0.94043 147.969C0.94043 158.117 9.19437 166.344 19.3762 166.344H120.032C130.192 166.344 138.429 158.134 138.429 148.007C138.429 137.88 146.666 129.67 156.827 129.67H183.905C194.086 129.67 202.34 121.443 202.34 111.295C202.34 101.146 194.087 92.9196 183.905 92.9196Z" fill="#D7F3FE"/>
<path d="M160.431 73.6992H125.142V76.6H160.431V73.6992Z" fill="#9DD8EF"/>
<path d="M155.156 62.7909H147.243V73.6992H155.156V62.7909Z" fill="#5BBEE5"/>
<path d="M149.092 62.791L150.729 50.9158L153.155 62.791H149.092Z" fill="#5BBEE5"/>
<path d="M148.061 62.7909L145.757 51.3387L149.462 60.1107L149.092 62.7909H148.061Z" fill="#3EA8D0"/>
<path d="M152.442 59.3007L155.156 54.723L154.731 62.7909H153.155L152.442 59.3007Z" fill="#3EA8D0"/>
<path d="M132.517 63.2871C133.3 65.3697 132.941 67.4295 131.715 67.8878C130.489 68.3461 128.86 67.0293 128.076 64.9466C127.293 62.864 126.666 58.1849 127.892 57.7266C129.119 57.2683 131.733 61.2044 132.517 63.2871Z" fill="#3EA8D0"/>
<path d="M136.921 63.2871C136.138 65.3697 136.497 67.4295 137.723 67.8878C138.949 68.3461 140.578 67.0293 141.362 64.9466C142.145 62.864 142.772 58.1849 141.546 57.7266C140.319 57.2683 137.705 61.2044 136.921 63.2871Z" fill="#3EA8D0"/>
<path d="M137.743 63.2744C137.743 66.0614 136.413 68.3206 134.772 68.3206C133.131 68.3206 131.801 66.0614 131.801 63.2744C131.801 60.4874 133.131 54.723 134.772 54.723C136.413 54.723 137.743 60.4874 137.743 63.2744Z" fill="#5BBEE5"/>
<path d="M142.386 64.876H127.052C127.052 64.876 124.87 70.7985 130.69 73.6993H138.748C144.569 70.7985 142.386 64.876 142.386 64.876Z" fill="#5BBEE5"/>
<path d="M144.302 19.5026H142.787V38.1035H144.302V19.5026Z" fill="#3EA8D0"/>
<path d="M150.891 43.8591H136.198V35.5896C136.198 31.5456 139.487 28.2672 143.544 28.2672C147.602 28.2672 150.891 31.5455 150.891 35.5896V43.8591Z" fill="#5BBEE5"/>
<path d="M73.1512 114.351H56.8726V120.464H73.1512V114.351Z" fill="#5BBEE5"/>
<path d="M73.1512 148.11H56.8726V154.224H73.1512V148.11Z" fill="#5BBEE5"/>
<path d="M55.3099 132.65H39.0312V138.764H55.3099V132.65Z" fill="#5BBEE5"/>
<path d="M143.576 93.8429H127.298V99.956H143.576V93.8429Z" fill="#5BBEE5"/>
<path d="M164.217 106.029H147.938V112.142H164.217V106.029Z" fill="#5BBEE5"/>
<path d="M146.345 118.242H130.066V124.355H146.345V118.242Z" fill="#5BBEE5"/>
<path d="M91.5333 36.3174H38.4902V91.1984H91.5333V36.3174Z" fill="#9DD8EF"/>
<path d="M88.6069 39.3451H41.4165V88.1707H88.6069V39.3451Z" fill="#5BBEE5"/>
<path d="M57.9459 73.3671C55.7118 74.4671 54.2259 76.9282 54.2968 79.4109C53.5194 78.4918 52.1817 77.9865 50.9879 78.1585C49.7941 78.3306 48.7148 79.1494 48.2302 80.2503C47.7084 78.2929 46.0034 76.7229 43.9953 76.4126C43.1298 76.2788 42.2384 76.3839 41.4165 76.6822V88.1707H64.1201V73.5734C62.2577 72.5277 59.8691 72.4202 57.9459 73.3671Z" fill="#3EA8D0"/>
<path d="M51.4051 55.8751C54.5444 55.8751 57.0894 53.3385 57.0894 50.2095C57.0894 47.0804 54.5444 44.5438 51.4051 44.5438C48.2657 44.5438 45.7207 47.0804 45.7207 50.2095C45.7207 53.3385 48.2657 55.8751 51.4051 55.8751Z" fill="#3EA8D0"/>
<path d="M65.9033 39.3645H64.1201V88.1707H65.9033V39.3645Z" fill="#9DD8EF"/>
<path d="M85.3751 80.1355C84.4429 80.7877 83.7867 81.9844 83.7784 83.1195C83.426 81.1309 81.3928 79.7264 79.3687 79.6421C77.3443 79.5578 75.2448 80.7692 73.7445 82.1263C73.3051 80.4825 72.0293 79.0843 70.4292 78.4927C68.9619 77.9502 67.2621 78.1069 65.9033 78.876V88.1706H88.6069V79.6826C87.5391 79.3167 86.2996 79.4888 85.3751 80.1355Z" fill="#3EA8D0"/>
<path d="M104.439 47.2477L116.538 44.7814L110.397 24.9769C110.307 24.6876 110.478 24.3823 110.772 24.307L118.744 22.2651C119.003 22.1987 119.271 22.3345 119.37 22.5822L128.068 44.3309C129.434 47.7479 127.584 51.6 124.057 52.6817L109.716 57.0797L104.439 47.2477Z" fill="#71A9D0"/>
<path d="M128.068 44.331L119.37 22.5822C119.271 22.3345 119.003 22.1987 118.744 22.2651L118.148 22.4177L127.042 44.6589C128.158 47.4484 126.648 50.5929 123.768 51.4761L109.12 55.9683L109.716 57.0797L124.057 52.6818C127.584 51.6 129.434 47.748 128.068 44.331Z" fill="#6399BF"/>
<path d="M118.04 9.22721L102.804 12.9027C102.471 12.983 102.266 13.3171 102.347 13.6489L104.28 21.6104C104.361 21.9422 104.696 22.1461 105.029 22.0658L120.265 18.3903C120.598 18.31 120.803 17.9759 120.722 17.6441L118.789 9.68263C118.708 9.35079 118.373 9.14689 118.04 9.22721Z" fill="#34374E"/>
<path d="M116.543 10.6104L104.771 13.4502C104.438 13.5305 104.233 13.8646 104.314 14.1964L105.778 20.2271C105.859 20.5589 106.194 20.7628 106.527 20.6825L118.299 17.8428C118.632 17.7625 118.836 17.4284 118.756 17.0965L117.291 11.0659C117.211 10.734 116.876 10.5301 116.543 10.6104Z" fill="#1B1D29"/>
<path d="M116.093 11.6396L111.965 12.624C111.664 12.6958 111.478 12.9974 111.55 13.2977C111.622 13.598 111.925 13.7831 112.226 13.7113L116.354 12.727C116.655 12.6552 116.841 12.3535 116.769 12.0532C116.697 11.753 116.394 11.5678 116.093 11.6396Z" fill="#3C415C"/>
<path d="M117.265 19.1736L111.852 20.4876C111.554 19.9601 111.199 19.3871 110.616 19.2187C110.079 19.0638 109.479 19.3238 109.132 19.7607C108.786 20.1976 108.664 20.7776 108.681 21.3343C108.7 21.9871 108.937 22.6838 109.489 23.035C109.781 23.2207 110.13 23.2909 110.456 23.4071C110.782 23.5233 111.119 23.8661 111.257 24.1828L117.934 22.4726C118.602 20.2883 117.265 19.1736 117.265 19.1736Z" fill="#E99FA4"/>
<path d="M115.784 27.288C115.601 26.6634 114.944 26.3054 114.317 26.4883C113.691 26.6713 113.331 27.3259 113.515 27.9505L115.714 35.4322C115.897 36.0568 116.554 36.4148 117.181 36.2319C117.807 36.0489 118.166 35.3943 117.983 34.7697L115.784 27.288Z" fill="#8CBADB"/>
<path d="M102.728 47.4562L85.4546 51.5316L91.1021 82.4906L120.092 79.1137C120.751 79.037 121.166 78.369 120.942 77.7469L111.642 51.9287C110.155 48.4777 106.395 46.591 102.728 47.4562Z" fill="#8DBED7"/>
<path d="M91.1019 82.4906C91.1019 82.4906 84.4928 89.6535 91.1019 98.5373L86.3506 138.967L116.479 138.242L119.086 79.2308L91.1019 82.4906Z" fill="#34374E"/>
<path d="M89.373 85.1975L118.97 81.846L119.086 79.2308L91.1019 82.4906C91.1019 82.4906 90.183 83.4876 89.373 85.1975Z" fill="#232536"/>
<path d="M93.7408 106.805L91.1816 130.246C91.0862 131.12 91.7197 131.906 92.5967 132.001C93.4736 132.096 94.2619 131.464 94.3574 130.59L96.9166 107.15C97.0121 106.276 96.3785 105.49 95.5015 105.395C94.6246 105.3 93.8363 105.931 93.7408 106.805Z" fill="#4C5073"/>
<path d="M100.161 138.635L97.1872 154.136C97.1872 154.136 94.1642 155.466 95.2556 158.729L112.718 163.927C112.718 163.927 111.627 156.312 106.291 153.895L109.628 138.407L100.161 138.635Z" fill="#C88293"/>
<path d="M112.718 159.908C110.444 157.37 105.624 159.364 104.295 161.42L94.0462 158.369C93.5791 158.23 93.0947 158.528 93.0098 159.007L91.7085 166.344H94.2355C94.6999 166.344 95.1094 166.04 95.2427 165.597L95.9518 163.238C96.0897 162.779 96.668 162.632 97.0099 162.968L99.0521 164.978C99.9411 165.853 101.14 166.344 102.39 166.344H112.718C112.718 166.344 114.992 162.446 112.718 159.908Z" fill="#689BBF"/>
<path d="M104.295 161.42L102.174 160.788L113.546 164.173C113.852 162.866 113.884 161.209 112.718 159.908C110.444 157.37 105.624 159.364 104.295 161.42Z" fill="#71A9D0"/>
<path d="M88.3737 138.919L85.4543 154.136C85.4543 154.136 82.4313 155.466 83.5227 158.729L100.985 163.927C100.985 163.927 99.8937 156.312 94.558 153.895L97.8298 138.691L88.3737 138.919Z" fill="#E99FA4"/>
<path d="M100.986 159.908C98.7117 157.37 93.8914 159.364 92.5629 161.42L82.3138 158.369C81.8466 158.23 81.3623 158.528 81.2774 159.007L79.9761 166.344H82.503C82.9675 166.344 83.3769 166.04 83.5102 165.597L84.2194 163.238C84.3573 162.779 84.9356 162.632 85.2775 162.968L87.3197 164.978C88.2087 165.853 89.4079 166.344 90.6574 166.344H100.985C100.985 166.344 103.259 162.446 100.986 159.908Z" fill="#71A9D0"/>
<path d="M92.5629 161.42L90.4414 160.788L101.814 164.173C102.12 162.866 102.151 161.209 100.985 159.908C98.7116 157.37 93.8914 159.364 92.5629 161.42Z" fill="#8DBED7"/>
<path d="M100.161 138.635L99.6885 141.097L109.104 140.837L109.627 138.407L100.161 138.635Z" fill="#A66C7A"/>
<path d="M88.3743 138.919L87.894 141.422L97.2986 141.163L97.8305 138.691L88.3743 138.919Z" fill="#C88293"/>
<path d="M107.302 75.9162L105.588 67.1349L89.1078 71.1508L91.3068 57.7023C91.7939 54.7237 89.7412 51.924 86.746 51.4817C83.781 51.0439 81.0214 53.0849 80.5824 56.0401L78.0455 73.7546C77.3394 78.6856 81.8437 82.7736 86.7034 81.6121L106.712 76.8299C107.123 76.7319 107.383 76.3291 107.302 75.9162Z" fill="#71A9D0"/>
<path d="M107.184 75.3119L86.5552 80.2423C82.4406 81.2257 78.6269 77.7645 79.2249 73.5895L81.9874 54.2991C82.0751 53.7096 82.2584 53.1587 82.5138 52.6544C81.507 53.4767 80.7881 54.6557 80.5825 56.0401L78.0455 73.7546C77.3395 78.6856 81.8438 82.7736 86.7035 81.6121L106.712 76.8299C107.123 76.7319 107.383 76.3291 107.302 75.9162L107.184 75.3119Z" fill="#6399BF"/>
<path d="M105.588 67.135C105.588 67.135 106.321 64.4829 107.989 64.3016C109.656 64.1203 109.687 65.7183 109.687 65.7183C109.687 65.7183 112.142 63.1836 113.992 63.8786C115.841 64.5736 118.145 70.6471 115.659 72.6415C113.173 74.6358 107.035 74.5478 107.035 74.5478L105.588 67.135Z" fill="#E99FA4"/>
<path d="M114.33 64.0616C115.8 66.021 116.902 70.2659 114.901 71.8708C112.89 73.4838 108.492 73.7346 106.883 73.7716L107.035 74.5477C107.035 74.5477 113.173 74.6357 115.659 72.6414C117.995 70.7673 116.101 65.2917 114.33 64.0616Z" fill="#C88293"/>
<path d="M81.8032 60.3626L80.8995 67.5451C80.8027 68.315 81.3504 69.0175 82.1229 69.114L82.1229 69.114C82.8954 69.2106 83.6002 68.6647 83.6971 67.8947L84.6007 60.7123C84.6976 59.9423 84.1499 59.2398 83.3774 59.1433L83.3774 59.1433C82.6048 59.0467 81.9001 59.5926 81.8032 60.3626Z" fill="#8CBADB"/>
<path d="M85.4426 32.1295C84.5549 34.7938 80.483 35.844 77.9443 35.0037C75.4056 34.1634 74.0672 31.3224 74.9549 28.6581C75.8426 25.9938 78.6202 24.5152 81.1589 25.3555C83.6976 26.1958 86.3303 29.4652 85.4426 32.1295Z" fill="#FFCD1D"/>
<path d="M95.4744 43.9308C101.076 41.6399 104.01 35.8788 102.027 31.063C100.045 26.2473 93.8966 24.2005 88.295 26.4914C82.6934 28.7824 79.7595 34.5435 81.7421 39.3592C83.7246 44.175 89.8728 46.2217 95.4744 43.9308Z" fill="#FFDD1D"/>
<path d="M90.2914 41.9738L88.2503 42.7737C87.1231 43.2155 85.8499 42.6629 85.4066 41.5393C84.9634 40.4157 85.5178 39.1468 86.6451 38.705L88.6862 37.905L90.2914 41.9738Z" fill="#E99FA4"/>
<path d="M87.4477 41.8325C88.0533 41.8325 88.5443 41.3431 88.5443 40.7395C88.5443 40.1358 88.0533 39.6465 87.4477 39.6465C86.842 39.6465 86.3511 40.1358 86.3511 40.7395C86.3511 41.3431 86.842 41.8325 87.4477 41.8325Z" fill="#C88293"/>
<path d="M102.937 48.5619C102.859 48.1649 102.356 47.8836 101.577 47.7275C101.099 47.8405 100.62 47.5419 100.512 47.0636L99.1917 41.1968L91.1021 43.7843L91.9322 49.3317C91.986 49.6915 91.7598 50.0341 91.407 50.1271C91.1759 50.3861 91.0665 50.6402 91.1128 50.8754C91.3079 51.8655 94.1129 52.1502 97.3779 51.5113C100.643 50.8725 103.132 49.5519 102.937 48.5619Z" fill="#E99FA4"/>
<path d="M98.6114 46.6194C99.1901 46.3927 99.7258 46.1055 100.222 45.7741L99.1917 41.1968L91.1021 43.7843L91.4566 46.153C93.5762 47.3198 96.182 47.5716 98.6114 46.6194Z" fill="#C88293"/>
<path d="M101.374 33.7117C93.9419 36.3302 90.2912 32.8315 90.291 32.8314C90.8747 36.6086 88.049 38.117 87.2744 38.4558L88.5669 41.6086C90.0679 45.4133 94.3793 47.2848 98.1966 45.7887C102.014 44.2926 103.892 39.9954 102.391 36.1907L101.374 33.7117Z" fill="#E99FA4"/>
<path d="M94.3249 38.5314C94.5991 38.4193 94.6978 38.0284 94.5455 37.6583C94.3931 37.2883 94.0474 37.0792 93.7732 37.1913C93.4991 37.3034 93.4004 37.6943 93.5527 38.0643C93.705 38.4344 94.0508 38.6435 94.3249 38.5314Z" fill="#392900"/>
<path d="M97.0803 37.5132C97.3544 37.4011 97.4532 37.0102 97.3008 36.6401C97.1485 36.2701 96.8028 36.061 96.5286 36.1731C96.2545 36.2852 96.1557 36.6761 96.3081 37.0461C96.4604 37.4162 96.8062 37.6253 97.0803 37.5132Z" fill="#392900"/>
<path d="M97.6224 40.1638C97.628 40.2004 97.6346 40.2365 97.638 40.2738C97.7278 41.2603 96.9983 42.1326 96.0086 42.2221C95.0188 42.3116 94.1436 41.5844 94.0538 40.5979C94.0504 40.5606 94.0504 40.5239 94.0493 40.4869L97.6224 40.1638Z" fill="#B2545D"/>
<path d="M96.3697 41.1968C96.7164 41.1968 97.0385 41.3023 97.3054 41.4826C97.0112 41.8898 96.5494 42.1733 96.0087 42.2222C95.625 42.2569 95.2594 42.1678 94.9492 41.9895C95.2432 41.5145 95.7685 41.1968 96.3697 41.1968Z" fill="#CE7672"/>
<path d="M96.7962 28.2298C96.8521 27.4809 95.5771 26.7759 93.9484 26.655C92.3197 26.5342 90.954 27.0434 90.8981 27.7923C90.8422 28.5412 92.1172 29.2462 93.7459 29.3671C95.3746 29.4879 96.7403 28.9787 96.7962 28.2298Z" fill="#FFF09E"/>
<path d="M182.178 85.1974C188.079 85.1974 192.862 80.4296 192.862 74.5483C192.862 68.6669 188.079 63.8992 182.178 63.8992C176.277 63.8992 171.494 68.6669 171.494 74.5483C171.494 80.4296 176.277 85.1974 182.178 85.1974Z" fill="white"/>
<path d="M22.1496 121.548C28.0504 121.548 32.8339 116.781 32.8339 110.899C32.8339 105.018 28.0504 100.25 22.1496 100.25C16.2488 100.25 11.4653 105.018 11.4653 110.899C11.4653 116.781 16.2488 121.548 22.1496 121.548Z" fill="white"/>
</g>
<defs>
<clipPath id="clip0_462_4292">
<rect width="201" height="173" fill="white" transform="translate(0.5)"/>
</clipPath>
</defs>
</svg>
