<svg width="200" height="200" viewBox="0 0 200 200" fill="none" xmlns="http://www.w3.org/2000/svg">
<path d="M186.93 39.8195C186.93 33.0215 181.42 27.5107 174.622 27.5107H14.5123C9.25882 27.5107 5 31.7696 5 37.0231C5 42.2766 9.25882 46.5354 14.5123 46.5354H52.4258C55.7276 46.5354 58.4043 49.2121 58.4043 52.5139C58.4043 55.8157 55.7276 58.4924 52.4258 58.4924H25.4804C20.2268 58.4924 15.968 62.7512 15.968 68.0047C15.968 73.2583 20.2268 77.5171 25.4804 77.5171H39.4341C51.0585 77.5171 60.4819 86.9405 60.4819 98.5649C60.4819 110.189 51.0585 119.613 39.4341 119.613H14.5123C9.25882 119.613 5 123.872 5 129.125C5 134.379 9.25882 138.638 14.5123 138.638H172.839C176.047 138.638 178.647 136.037 178.647 132.83C178.647 129.622 176.047 127.022 172.839 127.022H113.478C110.303 127.022 107.728 124.447 107.728 121.272C107.728 118.096 110.303 115.521 113.478 115.521H182.068C189.21 115.521 195 109.731 195 102.589C195 95.4465 189.21 89.6565 182.068 89.6565H160.086C149.723 89.6565 141.322 81.2555 141.322 70.8924C141.322 60.5293 149.723 52.1282 160.086 52.1282H174.622C181.42 52.1282 186.93 46.6174 186.93 39.8195Z" fill="#D7F3FE"/>
<path d="M159.749 129.984L123.249 116.798C122.068 116.371 121.28 115.249 121.28 113.992V34.514C121.28 33.2575 122.068 32.1358 123.249 31.7088L159.749 18.5225C161.693 17.8201 163.745 19.2605 163.745 21.3278V127.179C163.745 129.246 161.693 130.686 159.749 129.984Z" fill="#3EA8D0"/>
<path d="M155.892 58.6548C151.391 59.1615 146.901 59.7996 142.424 60.4898C140.183 60.8354 137.945 61.2 135.71 61.5836C133.445 61.9724 131.135 62.302 128.901 62.8488C128.511 62.9443 128.583 63.6226 128.999 63.5674C131.192 63.2765 133.373 62.8082 135.555 62.4371C137.791 62.0569 140.03 61.6957 142.273 61.3536C146.803 60.6622 151.346 60.0758 155.893 59.5064C156.427 59.4395 156.44 58.5932 155.892 58.6548Z" fill="#F5EDF2"/>
<path d="M156.958 43.9057C153.294 44.0621 149.634 44.4606 146.03 45.1429C145.56 45.2318 145.763 45.9314 146.226 45.855C149.782 45.268 153.357 44.8655 156.958 44.6922C157.461 44.668 157.465 43.8841 156.958 43.9057Z" fill="#F5EDF2"/>
<path d="M146.778 36.5608C143.005 37.1297 139.24 37.7553 135.491 38.4662C135.038 38.5521 135.231 39.2349 135.68 39.1552C139.44 38.4886 143.207 37.8647 146.985 37.3126C147.479 37.2404 147.271 36.4866 146.778 36.5608Z" fill="#F5EDF2"/>
<path d="M106.308 172.985C100.734 169.22 100.675 169.18 92.3167 163.534C91.5092 162.986 90.5349 162.666 89.4854 162.666C87.3372 162.666 85.5072 164.01 84.7778 165.901L84.7743 165.899C83.5482 169.079 82.4883 171.828 81.5945 174.146L81.5971 174.148C81.4386 174.559 81.3481 175.004 81.3481 175.47C81.3481 177.503 82.996 179.151 85.0287 179.151H104.431C106.291 179.151 107.8 177.643 107.8 175.782C107.8 174.616 107.207 173.589 106.308 172.985Z" fill="#5BBEE5"/>
<path d="M105.249 176.428H84.2359C83.1052 176.428 82.0867 175.955 81.3612 175.199C81.3544 175.289 81.3481 175.379 81.3481 175.47C81.3481 177.503 82.996 179.151 85.0286 179.151H104.431C106.291 179.151 107.799 177.643 107.799 175.782C107.799 175.655 107.789 175.531 107.776 175.408C107.12 176.039 106.231 176.428 105.249 176.428Z" fill="#3EA8D0"/>
<path d="M67.0176 176.077C62.6187 170.989 62.5721 170.935 55.9752 163.305C55.3385 162.565 54.4815 162.002 53.4683 161.728C51.3945 161.168 49.2773 161.988 48.0799 163.623L48.0771 163.62C46.064 166.371 44.3238 168.748 42.8564 170.753L42.8585 170.756C42.5983 171.111 42.395 171.517 42.2733 171.967C41.7432 173.93 42.9043 175.95 44.8666 176.48C51.9729 178.4 57.0926 179.783 63.5972 181.54C65.3934 182.025 67.2429 180.963 67.7281 179.166C68.032 178.041 67.7283 176.895 67.0176 176.077Z" fill="#5BBEE5"/>
<path d="M65.0975 179.125C58.0527 177.222 52.5078 175.724 44.8113 173.645C43.7197 173.35 42.8598 172.628 42.3566 171.709C42.3266 171.794 42.2972 171.879 42.2733 171.967C41.7432 173.93 42.9043 175.95 44.8666 176.48C51.9729 178.4 57.0926 179.783 63.5972 181.54C65.3934 182.025 67.2428 180.962 67.7281 179.166C67.7611 179.044 67.7838 178.922 67.8027 178.799C67.0052 179.237 66.0452 179.381 65.0975 179.125Z" fill="#3EA8D0"/>
<path d="M90.8325 170.635C86.572 170.635 82.7968 167.582 82.0302 163.24L71.1671 101.716C70.3077 96.8489 73.5567 92.2066 78.4238 91.3471C83.2894 90.4866 87.9333 93.7362 88.7928 98.6038L99.6559 160.128C100.515 164.995 97.2663 169.638 92.3992 170.497C91.873 170.59 91.3489 170.635 90.8325 170.635Z" fill="#343D4A"/>
<path d="M54.3722 171.349C53.5494 171.349 52.7134 171.235 51.8834 170.995C47.1352 169.623 44.3985 164.661 45.7706 159.913L63.6067 98.1919C64.9788 93.4436 69.9408 90.7064 74.6885 92.0788C79.4368 93.4511 82.1735 98.4126 80.8014 103.161L62.9653 164.882C61.8331 168.8 58.256 171.349 54.3722 171.349Z" fill="#464F5F"/>
<path d="M61.4598 117.625L56.1046 136.772C55.624 138.491 56.6274 140.273 58.3458 140.754L58.3458 140.754C60.0642 141.235 61.8468 140.231 62.3274 138.513L67.6826 119.366C68.1632 117.647 67.1598 115.865 65.4414 115.384L65.4414 115.384C63.723 114.903 61.9404 115.907 61.4598 117.625Z" fill="#5C687D"/>
<path d="M84.7003 66.6793C82.4193 66.6793 80.34 65.1419 79.7493 62.8302C79.0501 60.0938 80.7016 57.3087 83.438 56.6095L101.086 52.1005C103.821 51.4023 106.607 53.0531 107.306 55.7893C108.006 58.5257 106.354 61.3108 103.618 62.01L85.97 66.519C85.5455 66.6274 85.1193 66.6793 84.7003 66.6793Z" fill="#5BBEE5"/>
<path d="M80.0581 63.6988C80.8918 65.5185 82.7194 66.6793 84.7006 66.6793C85.1196 66.6793 85.5458 66.6274 85.9703 66.519L103.618 62.01C105.827 61.4454 107.328 59.5205 107.456 57.3597L80.0581 63.6988Z" fill="#3EA8D0"/>
<path d="M102.873 63.3965C106.448 63.3965 109.347 60.4978 109.347 56.9222C109.347 53.3465 106.448 50.4479 102.873 50.4479C99.2971 50.4479 96.3984 53.3465 96.3984 56.9222C96.3984 60.4978 99.2971 63.3965 102.873 63.3965Z" fill="#464F5F"/>
<path d="M102.87 60.7585C101.159 60.7585 99.5999 59.6054 99.1569 57.8715C98.6325 55.8192 99.8713 53.7305 101.924 53.2062L125.801 47.1056C127.848 46.5804 129.942 47.8194 130.466 49.8722C130.991 51.9245 129.752 54.0132 127.7 54.5375L103.822 60.6381C103.504 60.7195 103.184 60.7585 102.87 60.7585Z" fill="#E9B1BD"/>
<path d="M90.8429 96.4308C82.1085 101.565 71.0781 96.1035 66.7313 91.6289C69.457 87.006 69.9735 83.1656 64.783 72.7436C61.8221 66.8014 64.2409 59.5858 70.1832 56.63C76.1254 53.6743 83.341 56.0931 86.2968 62.0353C92.9907 75.4846 94.5249 85.9372 90.8429 96.4308Z" fill="#5BBEE5"/>
<path d="M56.3044 89.9763C55.6894 89.9763 55.0641 89.8645 54.4561 89.6288C51.823 88.607 50.5166 85.6446 51.5379 83.0113L60.0995 60.9423C61.121 58.3095 64.0829 57.0028 66.7167 58.0241C69.3498 59.0456 70.6562 62.0082 69.6349 64.6413L61.0733 86.7108C60.2875 88.7358 58.3534 89.9763 56.3044 89.9763Z" fill="#5BBEE5"/>
<path d="M56.6926 90.9518C60.2483 90.9518 63.1308 88.0693 63.1308 84.5136C63.1308 80.9579 60.2483 78.0754 56.6926 78.0754C53.1369 78.0754 50.2544 80.9579 50.2544 84.5136C50.2544 88.0693 53.1369 90.9518 56.6926 90.9518Z" fill="#464F5F"/>
<path d="M77.2416 57.4156L72.8823 60.4917C73.9612 62.3137 75.9009 63.425 77.9596 63.168C80.3796 62.866 82.177 60.7736 82.4407 58.2174L77.2416 57.4156Z" fill="#202630"/>
<path d="M77.6468 59.7906L74.3456 63.442C73.3791 64.5109 71.7071 64.5309 70.7155 63.4852L67.114 59.6877C66.6142 59.1608 66.7452 58.3041 67.3796 57.9505L71.2413 55.7983L79.2808 54.3763L81.802 55.4336C82.3596 55.6675 82.8041 56.1095 83.041 56.6657L84.1658 59.3067C84.5844 60.2894 83.6962 61.3263 82.6608 61.0634L77.6468 59.7906Z" fill="#464F5F"/>
<path d="M84.8946 36.8892C83.5799 28.0318 72.8542 28.793 70.2246 29.2082C67.5951 29.6233 57.2846 34.2547 62.4052 38.2706C59.3605 42.0098 62.4744 47.1305 68.1487 47.3381L80.4865 56.4579C85.0536 52.6473 91.1917 41.5947 84.8946 36.8892Z" fill="#352A27"/>
<path d="M76.5642 64.2567C75.6352 70.232 74.9331 73.8841 74.9331 73.8841L86.1616 76.938L87.4235 72.3206C88.2421 68.0424 83.0666 62.7269 76.5642 64.2567Z" fill="#DCD0CE"/>
<path d="M87.4574 72.3207C87.2327 68.6858 86.4301 62.9609 94.7653 62.5021C95.0064 68.7878 94.7304 76.9381 94.7304 76.9381" fill="#DCD0CE"/>
<path d="M87.4233 72.3206L85.6846 78.683L94.0146 83.0741C94.0146 83.0741 96.934 68.905 97.6639 65.1229C92.024 62.9997 88.5737 66.965 87.4233 72.3206Z" fill="#F4F0EF"/>
<path d="M83.0431 88.3488L87.4234 72.3207C85.9701 66.519 77.8482 65.5487 73.6737 67.7751C73.0243 73.4339 72.1025 85.5649 72.1025 85.5649C75.7145 83.4526 81.1877 83.5046 83.0431 88.3488Z" fill="#7176AE"/>
<path d="M87.4233 72.3206L83.043 88.3488C83.043 88.3488 91.3919 82.113 96.7724 88.3488C100.39 76.3095 101.874 71.8568 101.874 71.8568C101.225 67.404 91.5253 66.9402 87.4233 72.3206Z" fill="#45498A"/>
<path d="M56.6882 88.3488C54.7189 88.3488 53.0434 86.8411 52.8713 84.8425C52.6893 82.7326 54.2527 80.8741 56.3631 80.6923L79.5075 78.6977C81.6205 78.5134 83.4765 80.0793 83.658 82.1897C83.84 84.2997 82.2767 86.1579 80.1662 86.3402L57.0218 88.3348C56.9099 88.3443 56.7983 88.3488 56.6882 88.3488Z" fill="#E9B1BD"/>
<path d="M80.5812 78.0322L76.0826 79.1466L74.9331 84.7475L81.6578 87.1674C83.1807 87.7155 84.8794 87.1208 85.7279 85.7424L86.5408 84.4218C87.4872 82.8845 87.0471 80.8739 85.545 79.8725L83.5646 78.5523C82.6874 77.9675 81.6046 77.7787 80.5812 78.0322Z" fill="#E9B1BD"/>
<path d="M90.843 96.4308C89.6208 99.9081 87.831 103.386 85.4633 106.981C83.1519 110.483 79.3216 112.386 75.4198 112.386C73.1493 112.386 70.8532 111.747 68.8179 110.402C63.2745 106.75 61.7404 99.2996 65.3916 93.7563C65.8826 93.0148 66.3326 92.309 66.7314 91.6289C71.0782 96.1035 82.1086 101.565 90.843 96.4308Z" fill="#464F5F"/>
<path d="M124.743 47.4859L124.678 47.8214L124.305 54.3763L128.452 54.5206C129.652 54.5623 130.779 53.9486 131.395 52.9185L137.599 44.4598L132.755 42.9939C132.737 42.9872 132.719 42.9805 132.701 42.9738C129.237 41.6848 125.446 43.8579 124.743 47.4859Z" fill="#E9B1BD"/>
<path d="M137.04 51.6919C136.967 51.6919 136.894 51.6867 136.821 51.6762C135.982 51.5563 135.399 50.7793 135.519 49.9406L135.858 47.5669L131.683 47.6581C131.671 47.6583 131.66 47.6583 131.649 47.6583C130.817 47.6583 130.134 46.9934 130.116 46.1576C130.097 45.3107 130.769 44.609 131.616 44.5903L137.599 44.4597C138.048 44.452 138.481 44.639 138.781 44.9758C139.079 45.3129 139.215 45.7644 139.151 46.2106L138.556 50.3745C138.447 51.1396 137.791 51.6919 137.04 51.6919Z" fill="#E9B1BD"/>
<path d="M144.441 48.9139H135.609C134.886 48.9139 134.299 49.5002 134.299 50.2234V50.8188C134.299 51.5419 134.886 52.1282 135.609 52.1282H144.441C145.164 52.1282 145.75 51.5419 145.75 50.8188V50.2234C145.75 49.5002 145.164 48.9139 144.441 48.9139Z" fill="white"/>
<path d="M133.691 55.633C133.581 55.633 133.471 55.6212 133.362 55.5973L127.265 54.2586C126.437 54.0769 125.914 53.2589 126.095 52.4314C126.277 51.6036 127.093 51.0773 127.923 51.2618L133.3 52.4423L135.163 50.9352C135.824 50.4031 136.789 50.5052 137.321 51.1636C137.854 51.8223 137.752 52.7884 137.093 53.3213L134.656 55.2919C134.38 55.5146 134.039 55.633 133.691 55.633Z" fill="#E9B1BD"/>
<path d="M159.063 43.9647C158.652 43.9647 158.651 44.6039 159.063 44.6039C159.474 44.6039 159.475 43.9647 159.063 43.9647Z" fill="#F5EDF2"/>
<path d="M77.9974 50.0592H70.3846L70.3957 57.4058C69.7176 57.684 69.0608 58.0034 68.4282 58.3611L77.1251 59.3099L80.4867 56.458L77.9974 50.0592Z" fill="#E9B1BD"/>
<path d="M79.878 54.8939C78.0355 56.5332 75.6755 57.518 73.1023 57.518C72.1651 57.518 71.261 57.3743 70.395 57.129L70.3843 50.0592H77.9971L79.878 54.8939Z" fill="#E998A6"/>
<path d="M83.484 47.7238H81.3848V43.4406H83.484C84.3893 43.4406 85.1232 44.1745 85.1232 45.0798V46.0846C85.1232 46.9899 84.3893 47.7238 83.484 47.7238Z" fill="#E9B1BD"/>
<path d="M83.254 46.603C83.7758 46.603 84.1988 46.146 84.1988 45.5822C84.1988 45.0184 83.7758 44.5614 83.254 44.5614C82.7321 44.5614 82.3091 45.0184 82.3091 45.5822C82.3091 46.146 82.7321 46.603 83.254 46.603Z" fill="#E998A6"/>
<path d="M70.9008 42.7562C72.9278 41.7935 74.6872 39.9588 75.3563 37.6786C75.9819 39.4711 77.3414 43.1141 82.7526 42.8304V46.3802C82.7526 51.753 78.7211 56.1085 73.7479 56.1085C68.7748 56.1085 64.7432 51.753 64.7432 46.3802V43.7858C66.8406 43.8989 68.9816 43.6677 70.9008 42.7562Z" fill="#E9B1BD"/>
<path d="M76.4717 48.5264C76.4888 48.5859 76.5073 48.6446 76.5207 48.7059C76.8763 50.3268 75.8506 51.9292 74.2298 52.2848C72.6088 52.6404 71.0064 51.6146 70.6508 49.9937C70.6373 49.9324 70.6297 49.8713 70.6201 49.8102L76.4717 48.5264Z" fill="#84344F"/>
<path d="M74.6128 50.5049C75.1873 50.4324 75.7429 50.5404 76.2229 50.7844C75.8209 51.5227 75.1153 52.0904 74.2298 52.2847C73.6015 52.4225 72.977 52.3508 72.4258 52.1194C72.8132 51.2683 73.6169 50.6305 74.6128 50.5049Z" fill="#CB667F"/>
<path d="M76.5207 48.7059C76.5733 48.9453 76.5922 49.1837 76.587 49.4183L70.9413 50.7723C70.8125 50.5326 70.7121 50.2727 70.6508 49.9937C70.6373 49.9324 70.6297 49.8713 70.6201 49.8101L76.4717 48.5264C76.4888 48.5859 76.5073 48.6446 76.5207 48.7059Z" fill="white"/>
<path d="M73.6715 46.4824C74.032 46.4299 74.2709 46.0202 74.205 45.5673C74.139 45.1143 73.7933 44.7897 73.4327 44.8422C73.0721 44.8947 72.8332 45.3044 72.8992 45.7573C72.9651 46.2103 73.3109 46.5349 73.6715 46.4824Z" fill="#34374E"/>
<path d="M69.148 47.141C69.5086 47.0885 69.7475 46.6788 69.6815 46.2258C69.6156 45.7729 69.2698 45.4483 68.9092 45.5008C68.5487 45.5533 68.3098 45.963 68.3757 46.4159C68.4417 46.8688 68.7874 47.1935 69.148 47.141Z" fill="#34374E"/>
<path d="M60.9616 63.0999L58.9553 68.5972C58.5652 69.6659 59.1154 70.8486 60.1842 71.2386C61.253 71.6287 62.4356 71.0785 62.8257 70.0097L64.832 64.5124C65.222 63.4437 64.6718 62.261 63.6031 61.871C62.5343 61.4809 61.3517 62.0311 60.9616 63.0999Z" fill="#9DD8EF"/>
<path d="M120.552 50.7919L110.188 53.2983C109.598 53.441 109.235 54.035 109.378 54.6251C109.521 55.2151 110.115 55.5778 110.705 55.4351L121.069 52.9287C121.659 52.786 122.021 52.192 121.879 51.6019C121.736 51.0119 121.142 50.6492 120.552 50.7919Z" fill="#F5D0D8"/>
</svg>
