<svg width="413" height="412" viewBox="0 0 413 412" fill="none" xmlns="http://www.w3.org/2000/svg">
<path d="M376.897 231.724H356.059C343.235 231.724 332.838 221.328 332.838 208.504V203.925C332.838 191.1 343.235 180.704 356.059 180.704C368.884 180.704 379.28 170.307 379.28 157.483V152.475C379.28 139.651 368.884 129.254 356.059 129.254H36.5245C22.3171 129.254 10.7998 140.772 10.7998 154.979C10.7998 169.187 22.3171 180.704 36.5245 180.704H39.108C53.1721 180.704 64.5732 192.105 64.5732 206.169C64.5732 220.429 76.2815 231.909 90.5385 231.629L92.0818 231.599C106.067 231.365 117.53 242.639 117.53 256.626C117.53 270.336 106.501 281.495 92.7926 281.655L60.6143 282.032C46.4429 282.197 35.0418 293.733 35.0418 307.905C35.0418 322.196 46.6266 333.78 60.9171 333.78H269.963C283.938 333.78 295.266 322.452 295.266 308.477C295.266 294.503 306.595 283.174 320.569 283.174H376.897C390.871 283.174 402.2 271.845 402.2 257.871V257.028C402.2 243.053 390.871 231.724 376.897 231.724Z" fill="white"/>
<path d="M316.175 208.215H252.661C252.134 208.215 251.707 208.642 251.707 209.169V260.264C251.707 260.791 252.134 261.218 252.661 261.218H316.175C316.702 261.218 317.129 260.791 317.129 260.264V209.169C317.129 208.642 316.702 208.215 316.175 208.215Z" fill="#5BBEE5"/>
<path d="M313.643 210.457H255.194C254.707 210.457 254.312 210.852 254.312 211.339V258.358C254.312 258.845 254.707 259.24 255.194 259.24H313.643C314.13 259.24 314.525 258.845 314.525 258.358V211.339C314.525 210.852 314.13 210.457 313.643 210.457Z" fill="#3EA8D0"/>
<path d="M314.525 232.719H254.312V234.717H314.525V232.719Z" fill="#5BBEE5"/>
<path d="M261.841 213.169H256.932C256.665 213.169 256.449 213.385 256.449 213.652V232.236C256.449 232.503 256.665 232.719 256.932 232.719H261.841C262.108 232.719 262.325 232.503 262.325 232.236V213.652C262.325 213.385 262.108 213.169 261.841 213.169Z" fill="#5BBEE5"/>
<path d="M269.32 213.169H264.41C264.144 213.169 263.927 213.385 263.927 213.652V232.236C263.927 232.503 264.144 232.719 264.41 232.719H269.32C269.587 232.719 269.803 232.503 269.803 232.236V213.652C269.803 213.385 269.587 213.169 269.32 213.169Z" fill="#5BBEE5"/>
<path d="M263.145 239.689H258.235C257.968 239.689 257.752 239.905 257.752 240.172V258.756C257.752 259.023 257.968 259.24 258.235 259.24H263.145C263.411 259.24 263.628 259.023 263.628 258.756V240.172C263.628 239.905 263.411 239.689 263.145 239.689Z" fill="#5BBEE5"/>
<path d="M271.716 239.689H266.806C266.539 239.689 266.323 239.905 266.323 240.172V258.756C266.323 259.023 266.539 259.24 266.806 259.24H271.716C271.982 259.24 272.199 259.023 272.199 258.756V240.172C272.199 239.905 271.982 239.689 271.716 239.689Z" fill="#5BBEE5"/>
<path d="M310.504 239.689H305.594C305.327 239.689 305.111 239.905 305.111 240.172V258.756C305.111 259.023 305.327 259.24 305.594 259.24H310.504C310.77 259.24 310.987 259.023 310.987 258.756V240.172C310.987 239.905 310.77 239.689 310.504 239.689Z" fill="#5BBEE5"/>
<path d="M288.837 239.413L284.156 257.398C284.089 257.656 284.243 257.92 284.502 257.987L289.253 259.224C289.511 259.291 289.775 259.136 289.842 258.878L294.523 240.893C294.59 240.635 294.435 240.371 294.177 240.304L289.426 239.067C289.168 239 288.904 239.155 288.837 239.413Z" fill="#5BBEE5"/>
<path d="M300.305 239.689H295.395C295.128 239.689 294.912 239.905 294.912 240.172V258.756C294.912 259.023 295.128 259.24 295.395 259.24H300.305C300.572 259.24 300.788 259.023 300.788 258.756V240.172C300.788 239.905 300.572 239.689 300.305 239.689Z" fill="#5BBEE5"/>
<path d="M307.566 213.169H302.656C302.39 213.169 302.173 213.385 302.173 213.652V232.236C302.173 232.503 302.39 232.719 302.656 232.719H307.566C307.833 232.719 308.049 232.503 308.049 232.236V213.652C308.049 213.385 307.833 213.169 307.566 213.169Z" fill="#5BBEE5"/>
<path d="M299.767 214.993H296.032C295.766 214.993 295.549 215.209 295.549 215.476V232.236C295.549 232.503 295.766 232.719 296.032 232.719H299.767C300.034 232.719 300.25 232.503 300.25 232.236V215.476C300.25 215.209 300.034 214.993 299.767 214.993Z" fill="#5BBEE5"/>
<path d="M291.755 214.993H288.02C287.753 214.993 287.537 215.209 287.537 215.476V232.236C287.537 232.503 287.753 232.719 288.02 232.719H291.755C292.021 232.719 292.238 232.503 292.238 232.236V215.476C292.238 215.209 292.021 214.993 291.755 214.993Z" fill="#5BBEE5"/>
<path d="M274.82 212.403L270.14 213.888C269.886 213.968 269.745 214.24 269.826 214.494L275.445 232.209C275.526 232.463 275.797 232.604 276.051 232.523L280.731 231.038C280.986 230.958 281.126 230.686 281.046 230.432L275.426 212.718C275.346 212.463 275.074 212.323 274.82 212.403Z" fill="#5BBEE5"/>
<path d="M139.272 148.959H80.0519C78.6487 148.959 77.5112 150.096 77.5112 151.499V195.454C77.5112 196.857 78.6487 197.995 80.0519 197.995H139.272C140.675 197.995 141.813 196.857 141.813 195.454V151.499C141.813 150.096 140.675 148.959 139.272 148.959Z" fill="#5BBEE5"/>
<path d="M98.0951 153.446H84.2891V155.903H98.0951V153.446Z" fill="#3EA8D0"/>
<path d="M98.0948 159.321H81.2153V161.778H98.0948V159.321Z" fill="#3EA8D0"/>
<path d="M98.0948 165.197H81.2153V167.654H98.0948V165.197Z" fill="#3EA8D0"/>
<path d="M136.861 173.363L135.239 161.547C135.207 161.315 135.009 161.142 134.775 161.142H122.95C122.691 161.142 122.481 161.352 122.481 161.611V164.813C122.481 165.072 122.691 165.282 122.95 165.282H128.099C128.488 165.282 128.707 165.728 128.47 166.036L117.289 180.563C117.115 180.789 116.78 180.808 116.581 180.603L106.696 170.418C106.491 170.207 106.144 170.235 105.975 170.477L95.6979 185.231C95.5381 185.461 95.2144 185.5 95.0043 185.316L86.1669 177.562C85.9723 177.391 85.6762 177.411 85.5056 177.605L83.3932 180.013C83.2225 180.207 83.2419 180.504 83.4364 180.674L95.7546 191.482C95.9648 191.666 96.2885 191.627 96.4482 191.397L106.502 176.964C106.67 176.722 107.017 176.694 107.223 176.905L116.944 186.921C117.143 187.126 117.477 187.106 117.651 186.88L131.299 169.148C131.552 168.819 132.078 168.958 132.134 169.37L132.76 173.926C132.795 174.182 133.031 174.361 133.288 174.326L136.46 173.891C136.717 173.856 136.896 173.619 136.861 173.363Z" fill="#3EA8D0"/>
<path d="M287.807 184.155H266.993C266.275 184.155 265.692 184.738 265.692 185.457V194.109C265.692 194.827 266.275 195.41 266.993 195.41H287.807C288.525 195.41 289.108 194.827 289.108 194.109V185.457C289.108 184.738 288.525 184.155 287.807 184.155Z" fill="#5BBEE5"/>
<path d="M317.482 164.015H296.669C295.95 164.015 295.367 164.598 295.367 165.317V173.969C295.367 174.687 295.95 175.27 296.669 175.27H317.482C318.201 175.27 318.783 174.687 318.783 173.969V165.317C318.783 164.598 318.201 164.015 317.482 164.015Z" fill="#5BBEE5"/>
<path d="M157.396 235.072H136.583C135.864 235.072 135.282 235.655 135.282 236.373V245.025C135.282 245.744 135.864 246.327 136.583 246.327H157.396C158.115 246.327 158.698 245.744 158.698 245.025V236.373C158.698 235.655 158.115 235.072 157.396 235.072Z" fill="#5BBEE5"/>
<path d="M137.672 213.246H116.859C116.14 213.246 115.557 213.829 115.557 214.548V223.2C115.557 223.919 116.14 224.501 116.859 224.501H137.672C138.391 224.501 138.973 223.919 138.973 223.2V214.548C138.973 213.829 138.391 213.246 137.672 213.246Z" fill="#5BBEE5"/>
<path d="M102.377 298.784H81.5636C80.8449 298.784 80.2622 299.367 80.2622 300.086V308.738C80.2622 309.456 80.8449 310.039 81.5636 310.039H102.377C103.096 310.039 103.678 309.456 103.678 308.738V300.086C103.678 299.367 103.096 298.784 102.377 298.784Z" fill="#5BBEE5"/>
<path d="M84.289 268.289C90.9272 268.289 96.3085 262.908 96.3085 256.27C96.3085 249.632 90.9272 244.25 84.289 244.25C77.6508 244.25 72.2695 249.632 72.2695 256.27C72.2695 262.908 77.6508 268.289 84.289 268.289Z" fill="white"/>
<path d="M329.149 323.258C335.788 323.258 341.169 317.877 341.169 311.239C341.169 304.6 335.788 299.219 329.149 299.219C322.511 299.219 317.13 304.6 317.13 311.239C317.13 317.877 322.511 323.258 329.149 323.258Z" fill="white"/>
<path d="M359.768 217.682C366.406 217.682 371.787 212.301 371.787 205.663C371.787 199.025 366.406 193.643 359.768 193.643C353.129 193.643 347.748 199.025 347.748 205.663C347.748 212.301 353.129 217.682 359.768 217.682Z" fill="white"/>
<path d="M267.266 94.1907C257.649 83.1659 240.432 82.6964 230.242 93.7795C222.552 102.144 221.603 114.954 227.991 124.35C232.682 131.251 240.004 134.948 247.489 135.276C253.201 135.525 258.559 138.102 262.317 142.41L263.283 143.517C263.91 144.236 265.001 144.31 265.719 143.683L279.126 131.987C279.845 131.361 279.919 130.27 279.293 129.552L278.328 128.446C274.509 124.068 272.818 118.313 273.294 112.524C273.822 106.083 271.85 99.4449 267.266 94.1907Z" fill="#F0CC00"/>
<path d="M283.329 139.766L272.855 148.903C272.417 149.285 271.753 149.24 271.371 148.802L266.393 143.095L278.452 132.576L283.43 138.282C283.812 138.72 283.767 139.384 283.329 139.766Z" fill="#4A283D"/>
<path d="M278.452 132.576L266.393 143.095L268.405 145.402L280.464 134.882L278.452 132.576Z" fill="#3B2030"/>
<path d="M263.023 104.974L256.185 98.4146L246.891 101.68L247.989 104.804L252.988 103.048L251.43 113.017L237.769 109.369L235.779 122.546L239.053 123.041L240.491 113.524L254.134 117.166L256.326 103.139L260.731 107.364L263.023 104.974Z" fill="white"/>
<path d="M221.526 80.3281L221.526 80.3281C220.725 81.0263 220.643 82.241 221.341 83.0413L225.976 88.3547C226.674 89.155 227.889 89.2379 228.689 88.5397L228.689 88.5397C229.489 87.8415 229.572 86.6268 228.874 85.8265L224.239 80.5131C223.541 79.7128 222.326 79.63 221.526 80.3281Z" fill="#F0CC00"/>
<path d="M218.708 124.789L212.357 127.852C211.401 128.314 211 129.463 211.461 130.42L211.461 130.42C211.922 131.376 213.072 131.778 214.028 131.316L220.379 128.253C221.336 127.791 221.737 126.642 221.276 125.685L221.276 125.685C220.814 124.729 219.665 124.327 218.708 124.789Z" fill="#F0CC00"/>
<path d="M273.994 78.9934L269.78 84.6464C269.145 85.4978 269.321 86.7026 270.172 87.3374L270.172 87.3374C271.024 87.9722 272.228 87.7965 272.863 86.945L277.077 81.292C277.712 80.4406 277.536 79.2358 276.685 78.601L276.685 78.601C275.834 77.9662 274.629 78.1419 273.994 78.9934Z" fill="#F0CC00"/>
<path d="M253.605 136.275C253.696 135.748 253.984 135.28 254.179 134.782C254.373 134.284 254.464 133.689 254.176 133.238C253.951 132.884 253.529 132.692 253.111 132.656C252.693 132.619 252.276 132.718 251.875 132.84C250.525 133.249 249.205 133.968 248.431 135.147C247.657 136.326 247.578 138.03 248.523 139.077L259.76 146.017C260.777 145.875 262.673 144.344 263.283 143.517C263.894 142.691 257.998 137.877 253.605 136.275Z" fill="#D99B7A"/>
<path d="M245.389 139.128L233.797 158.517C233.314 159.323 232.278 159.6 231.458 159.142L212.444 148.52C207.897 145.981 202.141 147.655 199.676 152.266C197.257 156.792 199.142 162.444 203.623 164.947L226.537 177.747C233.836 181.825 243.055 179.36 247.345 172.184L261.363 148.74C261.884 147.868 261.602 146.74 260.733 146.216L247.921 138.495C247.048 137.969 245.913 138.252 245.389 139.128Z" fill="#22A5FF"/>
<path d="M260.733 146.216L260.297 145.954L245.672 170.415C242.046 176.48 234.254 178.563 228.084 175.117L203.142 161.183C200.96 159.964 199.399 157.995 198.646 155.776C198.353 159.402 200.254 163.065 203.623 164.947L226.537 177.747C233.836 181.825 243.055 179.36 247.345 172.184L261.363 148.74C261.884 147.868 261.602 146.74 260.733 146.216Z" fill="#2285DA"/>
<path d="M164.151 205.663C163.878 205.663 163.605 205.651 163.328 205.628C158.089 205.179 154.205 200.569 154.653 195.329L158.072 163.69C158.52 158.45 163.129 154.563 168.37 155.015C173.61 155.463 177.494 160.074 177.045 165.313L173.627 196.953C173.202 201.916 169.042 205.663 164.151 205.663Z" fill="#6BC5FF"/>
<path d="M181.906 150.563L171.754 153.797C167.952 155.009 165.561 158.766 166.072 162.724L172.603 213.246L225.107 202.431L216.723 159.267C215.103 152.668 209.149 148.055 202.354 148.134L193.38 149.062L181.906 150.563Z" fill="#22B8FF"/>
<path d="M188.626 165.974L191.227 203.357L198.575 205.663L203.883 200.715L193.765 164.798L188.626 165.974Z" fill="#F0CC00"/>
<path d="M193.765 164.798L188.626 165.974L188.797 168.427L194.426 167.148L193.765 164.798Z" fill="#E9B300"/>
<path d="M190.068 159.751L184.192 162.212L187.142 165.854C187.515 166.314 188.097 166.552 188.686 166.484L193.217 165.959C193.822 165.888 194.345 165.506 194.595 164.95L196.599 160.502L190.068 159.751Z" fill="#F0CC00"/>
<path d="M177.298 152.031C175.537 157.798 178.031 161.959 179.499 163.778C179.998 164.398 180.863 164.572 181.566 164.198L189.919 159.751L177.298 152.031Z" fill="#A7E0FF"/>
<path d="M196.763 148.712L190.09 159.672L198.209 161.656C199.124 161.88 200.048 161.299 200.226 160.373C200.83 157.24 201.474 150.65 196.763 148.712Z" fill="#A7E0FF"/>
<path d="M239.489 306.859L243.174 322.242H226.989L223.624 306.859H239.489Z" fill="#D99B7A"/>
<path d="M239.489 306.859H223.624L225.54 315.619H241.588L239.489 306.859Z" fill="#CE8172"/>
<path d="M225.108 202.431L247.778 308.807C248.185 310.69 246.75 312.467 244.824 312.467H220.814C219.421 312.467 218.209 311.516 217.878 310.163L193.99 208.841L225.108 202.431Z" fill="#3B2030"/>
<path d="M226.989 322.242H243.174C243.174 322.242 246.071 326.409 253.602 326.89C253.602 326.89 257.831 327.009 258.993 331.362C259.318 332.58 258.408 333.78 257.148 333.78H228.961C227.911 333.78 227.058 332.933 227.051 331.883L226.989 322.242Z" fill="#4A283D"/>
<path d="M227.052 331.883C227.058 332.933 227.911 333.78 228.961 333.78H257.149C258.409 333.78 259.318 332.58 258.993 331.362C258.85 330.824 258.659 330.351 258.435 329.934H227.039L227.052 331.883Z" fill="#3B2030"/>
<path d="M137.128 299.457L148.456 311.017C148.456 311.017 147.507 316.001 152.436 321.717C152.436 321.717 155.31 324.821 153.014 328.698C152.372 329.782 150.878 329.973 149.996 329.073L130.267 308.941C129.532 308.191 129.54 306.988 130.286 306.249L137.128 299.457Z" fill="#4A283D"/>
<path d="M130.286 306.249C129.54 306.988 129.532 308.191 130.267 308.941L149.996 329.073C150.878 329.973 152.372 329.782 153.014 328.698C153.298 328.218 153.502 327.751 153.643 327.3L131.668 304.876L130.286 306.249Z" fill="#3B2030"/>
<path d="M146.224 290.193L137.127 299.457L148.456 311.017L156.87 301.182L146.224 290.193Z" fill="#D99B7A"/>
<path d="M141.642 294.86L152.903 305.819L156.87 301.182L146.224 290.193L141.642 294.86Z" fill="#CE8172"/>
<path d="M172.602 213.246L175.59 244.262L142.696 285.537C141.112 287.538 141.338 290.421 143.215 292.15L156.989 304.835C159.037 306.722 162.247 306.513 164.033 304.377L207.414 252.556C210.16 249.276 211.377 244.982 210.762 240.75L205.768 206.415L172.602 213.246Z" fill="#4A283D"/>
<path d="M174.814 253.823L158.011 275.196C157.046 276.424 157.259 278.202 158.486 279.167L158.486 279.167C159.714 280.132 161.492 279.919 162.457 278.692L179.26 257.318C180.225 256.091 180.012 254.313 178.784 253.348C177.557 252.382 175.779 252.595 174.814 253.823Z" fill="#663754"/>
<path d="M223.497 218.584C223.173 217.069 221.682 216.104 220.168 216.429C218.653 216.753 217.689 218.244 218.013 219.758L223.751 246.553C224.075 248.068 225.566 249.032 227.08 248.708C228.595 248.384 229.56 246.893 229.235 245.379L223.497 218.584Z" fill="#522C42"/>
<path d="M206.55 179.958C207.17 179.366 207.108 178.272 206.536 177.634C205.964 176.996 205.019 176.787 204.176 176.941C203.333 177.094 202.579 177.562 201.913 178.101C200.993 178.847 200.158 179.832 200.042 181.011L202.949 194.471C205.282 195.016 207.67 195.551 210.053 195.297C212.435 195.042 215.593 194.094 215.955 191.726C218.226 176.892 208.556 179.397 206.55 179.958Z" fill="#D99B7A"/>
<path d="M198.01 179.869L172.422 185.915C170.707 186.321 169.016 185.158 168.781 183.411L167.903 176.892L156.592 177.387L153.882 202.463C153.341 207.473 158.056 211.43 162.896 210.029L202.628 198.529C203.61 198.245 204.194 197.237 203.951 196.244L200.304 181.274C200.055 180.255 199.031 179.627 198.01 179.869Z" fill="#6BC5FF"/>
<path d="M194.369 184.015L176.891 188.121C175.857 188.363 175.216 189.398 175.459 190.432L175.459 190.432C175.702 191.466 176.737 192.108 177.771 191.865L195.249 187.759C196.283 187.516 196.924 186.481 196.681 185.447L196.681 185.447C196.438 184.413 195.403 183.772 194.369 184.015Z" fill="#A7E0FF"/>
<path d="M186.121 140.073C194.301 140.073 200.932 133.442 200.932 125.262C200.932 117.082 194.301 110.451 186.121 110.451C177.942 110.451 171.311 117.082 171.311 125.262C171.311 133.442 177.942 140.073 186.121 140.073Z" fill="#4A283D"/>
<path d="M175.011 139.682C180.435 139.682 184.833 134.685 184.833 128.521C184.833 122.357 180.435 117.36 175.011 117.36C169.586 117.36 165.188 122.357 165.188 128.521C165.188 134.685 169.586 139.682 175.011 139.682Z" fill="#4A283D"/>
<path d="M173.72 137.015C175.696 137.015 177.297 135.414 177.297 133.438C177.297 131.462 175.696 129.861 173.72 129.861C171.744 129.861 170.143 131.462 170.143 133.438C170.143 135.414 171.744 137.015 173.72 137.015Z" fill="#D99B7A"/>
<path d="M173.72 135.307C174.752 135.307 175.589 134.47 175.589 133.438C175.589 132.405 174.752 131.568 173.72 131.568C172.687 131.568 171.85 132.405 171.85 133.438C171.85 134.47 172.687 135.307 173.72 135.307Z" fill="#C0756C"/>
<path d="M179.705 144.147L180.134 151.128L177.297 152.031C177.297 152.031 179.556 158.041 189.919 159.751C189.919 159.751 197.24 156.652 196.763 148.712L194.246 148.972L193.679 142.582L179.705 144.147Z" fill="#D99B7A"/>
<path d="M193.679 142.582L179.705 144.147L179.898 147.288C182.524 148.675 185.593 149.277 188.754 148.794C190.694 148.497 192.482 147.823 194.059 146.86L193.679 142.582Z" fill="#CE8172"/>
<path d="M197.541 127.078C188.401 130.654 181.686 124.25 181.686 124.249C180.375 129.46 174.996 129.885 173.548 129.905L174.568 136.577C175.576 143.168 181.735 147.694 188.326 146.686C194.916 145.679 199.442 139.519 198.435 132.929L197.541 127.078Z" fill="#D99B7A"/>
<path d="M185.031 134.596C185.525 134.512 185.838 133.925 185.728 133.285C185.619 132.645 185.13 132.195 184.635 132.279C184.141 132.364 183.829 132.951 183.938 133.591C184.047 134.23 184.537 134.681 185.031 134.596Z" fill="#3B2030"/>
<path d="M191.033 133.895C191.528 133.81 191.84 133.223 191.731 132.584C191.622 131.944 191.132 131.494 190.638 131.578C190.143 131.663 189.831 132.25 189.94 132.889C190.05 133.529 190.539 133.979 191.033 133.895Z" fill="#3B2030"/>
<path d="M184.141 138.032C184.132 138.095 184.121 138.157 184.116 138.221C183.976 139.916 185.236 141.404 186.931 141.545C188.627 141.685 190.115 140.425 190.255 138.729C190.261 138.665 190.26 138.602 190.262 138.539L184.141 138.032Z" fill="#C2635E"/>
<path d="M186.299 139.789C185.706 139.793 185.156 139.979 184.702 140.292C185.211 140.987 186.005 141.468 186.931 141.545C187.588 141.599 188.213 141.441 188.741 141.131C188.232 140.319 187.328 139.781 186.299 139.789Z" fill="#E98E72"/>
<path d="M184.116 138.221C184.095 138.471 184.109 138.716 184.146 138.954L190.066 139.56C190.165 139.299 190.231 139.021 190.256 138.729C190.261 138.665 190.26 138.602 190.262 138.539L184.142 138.032C184.132 138.095 184.121 138.157 184.116 138.221Z" fill="white"/>
<path d="M193.481 116.038C193.635 114.601 191.253 113.167 188.16 112.836C185.068 112.505 182.437 113.402 182.283 114.84C182.129 116.277 184.511 117.71 187.603 118.041C190.696 118.372 193.327 117.475 193.481 116.038Z" fill="#733E5F"/>
<path d="M360.5 333.845H60.7584C58.9186 333.845 57.4272 335.337 57.4272 337.177C57.4272 339.016 58.9186 340.508 60.7584 340.508H360.5C362.34 340.508 363.831 339.016 363.831 337.177C363.831 335.337 362.34 333.845 360.5 333.845Z" fill="#3EA8D0"/>
</svg>
