<svg width="351" height="351" viewBox="0 0 351 351" fill="none" xmlns="http://www.w3.org/2000/svg">
<path d="M342.225 187.35C342.225 175.997 333.021 166.793 321.668 166.793H301.845C291.093 166.793 282.378 158.078 282.378 147.327C282.378 136.575 291.093 127.86 301.845 127.86H307.782C319.135 127.86 328.338 118.656 328.338 107.303C328.338 95.9503 319.135 86.7468 307.782 86.7468H97.3426C86.1656 86.7468 77.1048 95.8076 77.1048 106.985C77.1048 118.162 68.044 127.223 56.8669 127.223H42.8892C31.5361 127.223 22.3327 136.426 22.3327 147.779C22.3327 159.132 31.5361 168.336 42.8892 168.336C52.6633 168.336 60.5869 176.259 60.5869 186.033V190.101C60.5869 199.875 52.6634 207.799 42.8892 207.799H29.3314C17.9784 207.799 8.7749 217.002 8.7749 228.355C8.7749 239.708 17.9784 248.912 29.3314 248.912H36.1762C47.5292 248.912 56.7327 258.115 56.7327 269.468C56.7327 280.821 65.9362 290.025 77.2892 290.025H311.488C322.841 290.025 332.045 280.821 332.045 269.468C332.045 258.115 322.841 248.912 311.488 248.912H309.659C298.336 248.912 289.157 239.732 289.157 228.409C289.157 217.086 298.336 207.906 309.659 207.906H321.668C333.021 207.906 342.225 198.703 342.225 187.35Z" fill="white"/>
<path d="M46.3933 116.042C54.2323 116.042 60.587 109.687 60.587 101.848C60.587 94.0092 54.2323 87.6545 46.3933 87.6545C38.5544 87.6545 32.1997 94.0092 32.1997 101.848C32.1997 109.687 38.5544 116.042 46.3933 116.042Z" fill="white"/>
<path d="M312.128 238.243C317.084 238.243 321.101 234.225 321.101 229.269C321.101 224.313 317.084 220.296 312.128 220.296C307.172 220.296 303.154 224.313 303.154 229.269C303.154 234.225 307.172 238.243 312.128 238.243Z" fill="#F0F2FD"/>
<path d="M254.875 93.0546H250.471V290.025H254.875V93.0546Z" fill="#3EA8D0"/>
<path d="M203.03 104.782H254.875V78.2181H203.03L193.218 91.4999L203.03 104.782Z" fill="#5BBEE5"/>
<path d="M250.471 138.484H302.316L312.128 125.203L302.316 111.921H250.471V138.484Z" fill="#5BBEE5"/>
<path d="M76.7754 290.025L131.565 289.326V92.8635L76.7754 126.48V290.025Z" fill="#3EA8D0"/>
<path d="M100.002 144.679H85.625V159.055H100.002V144.679Z" fill="#5BBEE5"/>
<path d="M123.875 255.926H109.498V270.303H123.875V255.926Z" fill="#5BBEE5"/>
<path d="M123.875 125.71H109.498V140.087H123.875V125.71Z" fill="#5BBEE5"/>
<path d="M41.9239 279.163H90.0782L91.5005 290.025H40.5015L41.9239 279.163Z" fill="#D7F3FE"/>
<path d="M66.0013 210.418C55.9664 210.418 47.8315 218.553 47.8315 228.588V279.163H84.171V228.588C84.171 218.553 76.0361 210.418 66.0013 210.418Z" fill="#5BBEE5"/>
<path d="M88.4536 226.857H43.5483V233.28H88.4536V226.857Z" fill="#D7F3FE"/>
<path d="M93.5969 240.74H38.4053V254.856H93.5969V240.74Z" fill="#5BBEE5"/>
<path d="M70.4057 203.994H61.5962V214.812H70.4057V203.994Z" fill="#5BBEE5"/>
<path d="M66.0013 266.969C72.6912 266.969 78.1145 261.546 78.1145 254.856C78.1145 248.166 72.6912 242.742 66.0013 242.742C59.3114 242.742 53.8882 248.166 53.8882 254.856C53.8882 261.546 59.3114 266.969 66.0013 266.969Z" fill="#D7F3FE"/>
<path d="M66.0011 263.115C70.5624 263.115 74.2601 259.417 74.2601 254.856C74.2601 250.294 70.5624 246.597 66.0011 246.597C61.4398 246.597 57.7422 250.294 57.7422 254.856C57.7422 259.417 61.4398 263.115 66.0011 263.115Z" fill="#5BBEE5"/>
<path d="M265.871 290.025C265.871 290.025 265.584 268.857 261.159 265.52C255.34 261.132 241.054 270.042 241.054 270.042C241.054 270.042 251.145 253.757 261.646 254.915C272.147 256.072 273.435 290.025 273.435 290.025H265.871Z" fill="#5BBEE5"/>
<path d="M273.435 290.025C273.435 290.025 277.418 265.248 288.594 266.338C299.769 267.428 302.602 270.973 302.602 270.973C302.602 270.973 295.261 253.354 278.101 258.997C263.387 263.835 262.154 283.373 262.154 283.373L265.872 290.025H273.435Z" fill="#3EA8D0"/>
<path d="M245.523 278.223C259.288 275.633 265.872 290.025 265.872 290.025H273.435C266.905 264.641 245.523 278.223 245.523 278.223Z" fill="#5BBEE5"/>
<path d="M272.366 151.218H103.916V174.672H272.366V151.218Z" fill="#99531D"/>
<path d="M272.366 180.52H103.916V199.946H272.366V180.52Z" fill="#99531D"/>
<path d="M272.365 151.218H265.07V174.672H272.365V151.218Z" fill="#843E1D"/>
<path d="M272.365 180.52H265.07V199.946H272.365V180.52Z" fill="#843E1D"/>
<path d="M111.211 151.218H103.916V174.672H111.211V151.218Z" fill="#843E1D"/>
<path d="M111.211 180.52H103.916V199.946H111.211V180.52Z" fill="#843E1D"/>
<path d="M278.511 219.686H97.7689C96.3739 219.686 95.2432 218.556 95.2432 217.161V209.483C95.2432 206.452 97.7004 203.994 100.732 203.994H275.549C278.58 203.994 281.037 206.452 281.037 209.483V217.161C281.037 218.556 279.906 219.686 278.511 219.686Z" fill="#60351D"/>
<path d="M281.038 214.812H95.2437V209.069C95.2437 206.267 97.5158 203.994 100.319 203.994H275.963C278.765 203.994 281.038 206.267 281.038 209.069V214.812Z" fill="#843E1D"/>
<path d="M275.485 206.194H233.254C232.367 206.194 231.649 206.913 231.649 207.799C231.649 208.685 232.367 209.403 233.254 209.403H275.485C276.371 209.403 277.089 208.685 277.089 207.799C277.089 206.913 276.371 206.194 275.485 206.194Z" fill="#A34C22"/>
<path d="M92.8218 290.025C91.0618 290.025 89.7217 288.447 90.0072 286.71L101.025 219.686H106.806L95.6364 287.635C95.4098 289.013 94.2185 290.025 92.8218 290.025Z" fill="#99531D"/>
<path d="M283.459 290.025C285.219 290.025 286.559 288.447 286.274 286.71L275.256 219.686H269.475L280.644 287.635C280.871 289.013 282.062 290.025 283.459 290.025Z" fill="#99531D"/>
<path d="M272.365 147.864C270.769 147.864 269.475 149.158 269.475 150.755V203.994H275.256V150.755C275.256 149.158 273.962 147.864 272.365 147.864Z" fill="#C97D1D"/>
<path d="M105.706 226.375L106.806 219.686H101.025L99.9253 226.375H105.706Z" fill="#7B461D"/>
<path d="M276.355 226.375L275.256 219.686H269.475L270.574 226.375H276.355Z" fill="#7B461D"/>
<path d="M103.916 147.864C102.319 147.864 101.025 149.158 101.025 150.755V203.994H106.806V150.755C106.806 149.158 105.512 147.864 103.916 147.864Z" fill="#C97D1D"/>
<path d="M217.097 101.264C218.462 98.9499 219.249 96.2531 219.249 93.3713C219.249 84.7809 212.285 77.817 203.695 77.817C201.666 77.817 199.731 78.2095 197.954 78.9159C194.227 73.8775 188.428 73.1712 188.428 73.1712C188.428 65.8731 181.342 61.3793 173.378 63.4899C162.434 66.3898 162.394 76.8313 163.1 78.4484C155.608 79.567 149.861 86.0269 149.861 93.8302C149.861 94.9156 149.973 95.9747 150.185 96.9973C143.218 100.21 138.38 107.251 138.38 115.426C138.38 126.63 147.463 135.714 158.668 135.714H197.375L197.442 134.88C200.738 137.392 204.853 138.887 209.317 138.887C220.15 138.887 228.932 130.105 228.932 119.272C228.932 111.204 224.059 104.276 217.097 101.264Z" fill="#34374E"/>
<path d="M194.842 115.191H177.4C177.4 115.191 142.263 114.397 157.354 180.538H214.889C229.98 114.397 194.842 115.191 194.842 115.191Z" fill="#3EA8D0"/>
<path d="M181.972 166.898C181 163.289 177.313 160.805 173.6 161.235C173.993 160.035 173.184 158.66 172.018 158.174C170.853 157.689 169.474 157.969 168.402 158.637C167.331 159.305 166.629 160.664 165.916 161.706L152.525 161.332L161.694 143.969L142.807 134.463L123.755 167.463C123.755 167.463 115.261 181.96 161.694 180.538L177.498 180.52C180.433 177.676 182.182 173.643 182.252 169.556C182.267 168.663 182.205 167.761 181.972 166.898Z" fill="#E9A586"/>
<path d="M157.244 154.24L137.853 143.045L147.947 125.561C151.038 120.206 157.885 118.372 163.24 121.463C168.595 124.555 170.429 131.402 167.338 136.756L157.244 154.24Z" fill="#5BBEE5"/>
<path d="M190.272 166.898C191.243 163.289 194.93 160.805 198.643 161.235C198.251 160.035 199.06 158.66 200.225 158.174C201.391 157.689 202.77 157.969 203.841 158.637C204.913 159.305 205.614 160.664 206.328 161.706L219.719 161.332L210.549 143.969L229.436 134.463L248.489 167.463C248.489 167.463 256.983 181.96 210.549 180.538L194.746 180.52C191.811 177.676 190.061 173.643 189.992 169.556C189.977 168.663 190.039 167.761 190.272 166.898Z" fill="#E9A586"/>
<path d="M214.999 154.24L234.39 143.045L224.296 125.561C221.205 120.206 214.358 118.372 209.003 121.463C203.648 124.555 201.814 131.402 204.905 136.756L214.999 154.24Z" fill="#5BBEE5"/>
<path d="M194.292 115.191L195.551 103.592H176.693L177.951 115.191C175.816 116.252 174.49 117.724 174.49 119.353C174.49 122.583 179.698 125.203 186.122 125.203C192.545 125.203 197.753 122.583 197.753 119.353C197.753 117.724 196.428 116.252 194.292 115.191Z" fill="#E9A586"/>
<path d="M169.175 101.848H172.185V88.671H163.926V96.5985C163.926 99.4978 166.276 101.848 169.175 101.848Z" fill="#E1E1EB"/>
<path d="M200.186 101.848H203.195C206.095 101.848 208.445 99.4978 208.445 96.5985V88.671H200.186V101.848Z" fill="#E1E1EB"/>
<path d="M186.122 113.847C189.303 113.847 192.262 112.872 194.724 111.212L195.551 103.592H176.693L177.519 111.212C179.982 112.872 182.94 113.847 186.122 113.847Z" fill="#E98E72"/>
<path d="M186.122 111.713C177.886 111.713 171.105 105.239 170.724 97.0118L169.982 81.0172H202.261L201.52 97.0118C201.139 105.239 194.358 111.713 186.122 111.713Z" fill="#E9A586"/>
<path d="M170.376 89.5143C171.469 90.076 172.705 90.3989 174.018 90.3989C177.223 90.3989 179.979 88.506 181.249 85.7811C183.649 89.7866 188.019 92.4764 193.028 92.4764C196.403 92.4764 199.489 91.2549 201.88 89.2363L202.261 81.0172H169.982L170.376 89.5143Z" fill="#E98E72"/>
<path d="M193.714 60.9751C186.147 60.9751 179.893 66.5259 178.757 73.7744C177.181 72.2956 175.067 71.3833 172.735 71.3833C167.87 71.3833 163.926 75.3274 163.926 80.1928C163.926 85.0582 167.87 89.0023 172.735 89.0023C176.272 89.0023 179.314 86.9134 180.715 83.9063C183.364 88.3266 188.187 91.295 193.714 91.295C202.087 91.295 208.874 84.5077 208.874 76.135C208.874 67.7624 202.087 60.9751 193.714 60.9751Z" fill="#34374E"/>
<path d="M201.134 76.4352C204.925 80.6896 204.946 86.8835 204.864 88.6709H208.383C208.507 87.3043 208.911 79.8481 203.818 74.1027C199.958 69.7474 194.004 67.5391 186.122 67.5391C178.24 67.5391 172.286 69.7474 168.425 74.1027C162.917 80.3166 163.839 88.5373 163.881 88.8845L163.926 88.897V88.6709H167.357C167.322 86.1718 167.648 80.3403 171.086 76.4616C174.242 72.9005 179.301 71.095 186.122 71.095C192.925 71.095 197.976 72.8918 201.134 76.4352Z" fill="white"/>
<path d="M182.117 104.252C181.884 104.252 181.734 104.49 181.821 104.706C182.508 106.409 184.173 107.611 186.122 107.611C188.071 107.611 189.736 106.409 190.423 104.706C190.51 104.489 190.36 104.252 190.127 104.252H182.117Z" fill="#C2635E"/>
<path d="M183.798 106.976C184.482 107.375 185.272 107.611 186.122 107.611C186.971 107.611 187.761 107.375 188.446 106.976C187.989 106.158 187.125 105.599 186.122 105.599C185.118 105.599 184.255 106.158 183.798 106.976Z" fill="#E98E72"/>
<path d="M188.294 104.252H183.95C184.461 104.893 185.239 105.312 186.122 105.312C187.005 105.312 187.783 104.893 188.294 104.252Z" fill="white"/>
<path d="M182.168 96.9845C182.624 96.9845 182.994 96.4709 182.994 95.8374C182.994 95.2039 182.624 94.6904 182.168 94.6904C181.712 94.6904 181.342 95.2039 181.342 95.8374C181.342 96.4709 181.712 96.9845 182.168 96.9845Z" fill="#34374E"/>
<path d="M190.075 96.9845C190.531 96.9845 190.901 96.4709 190.901 95.8374C190.901 95.2039 190.531 94.6904 190.075 94.6904C189.619 94.6904 189.249 95.2039 189.249 95.8374C189.249 96.4709 189.619 96.9845 190.075 96.9845Z" fill="#34374E"/>
<path d="M177.21 72.4507C179.726 71.5493 182.702 71.0951 186.122 71.0951C189.542 71.0951 192.518 71.5497 195.034 72.4512L195.821 68.9636C193.012 68.0201 189.777 67.5391 186.122 67.5391C182.467 67.5391 179.232 68.0202 176.423 68.9638L177.21 72.4507Z" fill="#E1E1EB"/>
<path d="M190.471 88.0319C189.898 87.7832 189.334 87.4472 188.997 86.9214C188.659 86.3957 188.613 85.6429 189.03 85.1778C189.272 84.9081 189.626 84.7709 189.973 84.6659C192.062 84.0334 194.399 84.2665 196.321 85.2989C196.975 85.6503 197.814 86.2825 197.75 87.1311C197.696 87.8392 196.955 88.1052 196.368 88.2747C194.431 88.8341 192.34 88.8429 190.471 88.0319Z" fill="#494D6E"/>
<path d="M216.709 180.355H157.076C150.549 180.355 145.257 185.647 145.257 192.175C145.257 198.703 150.549 203.994 157.076 203.994H216.709C223.236 203.994 228.528 198.703 228.528 192.175C228.528 185.647 223.236 180.355 216.709 180.355Z" fill="#34374E"/>
<path d="M181.849 275.526H156.123L158.099 194.259C158.29 186.421 164.777 180.209 172.616 180.358C180.708 180.512 187.048 187.365 186.571 195.445L181.849 275.526Z" fill="#E9A586"/>
<path d="M156.716 251.116L156.123 275.526H181.849L183.289 251.116H156.716Z" fill="#E1E1EB"/>
<path d="M168.141 266.716C158.698 266.716 151.042 274.371 151.042 283.815V284.335H185.239V283.815C185.239 274.371 177.584 266.716 168.141 266.716Z" fill="#34374E"/>
<path d="M183.373 290.025H152.909C151.878 290.025 151.042 289.189 151.042 288.158V284.335H185.239V288.158C185.239 289.189 184.404 290.025 183.373 290.025Z" fill="#1A1B2E"/>
<path d="M191.936 275.526H217.663L215.686 194.259C215.496 186.421 209.009 180.209 201.169 180.358C193.077 180.512 186.738 187.365 187.214 195.445L191.936 275.526Z" fill="#E9A586"/>
<path d="M215.686 194.259C215.495 186.421 209.008 180.209 201.169 180.358C200.746 180.366 200.331 180.403 199.918 180.447C206.936 181.186 212.482 187.024 212.657 194.259L214.634 275.526H217.662L215.686 194.259Z" fill="#E98E72"/>
<path d="M217.069 251.116L217.663 275.526H191.936L190.497 251.116H217.069Z" fill="#E1E1EB"/>
<path d="M214.634 275.526H217.662L217.414 265.316L217.069 251.116H214.04L214.634 275.526Z" fill="#BCBCC4"/>
<path d="M205.644 266.716C215.087 266.716 222.742 274.371 222.742 283.815V284.335H188.545V283.815C188.545 274.371 196.201 266.716 205.644 266.716Z" fill="#34374E"/>
<path d="M190.412 290.025H220.876C221.907 290.025 222.742 289.189 222.742 288.158V284.335H188.545V288.158C188.545 289.189 189.381 290.025 190.412 290.025Z" fill="#1A1B2E"/>
<path d="M162.045 195.798L160.762 237.019C160.715 238.537 161.907 239.806 163.425 239.853C164.943 239.9 166.212 238.708 166.259 237.19L167.543 195.969C167.59 194.451 166.398 193.182 164.88 193.135C163.361 193.088 162.093 194.28 162.045 195.798Z" fill="#F0BDA6"/>
<path d="M164.38 276.543C166.865 275.458 168.394 273.468 167.797 272.098C167.199 270.728 164.699 270.496 162.214 271.58C159.729 272.665 158.199 274.655 158.797 276.025C159.395 277.396 161.894 277.627 164.38 276.543Z" fill="#494D6E"/>
<path d="M219.158 180.538H155.232C153.398 180.538 151.852 179.169 151.629 177.349L147.397 142.709C147.208 141.159 148.417 139.793 149.979 139.793H223.806C225.35 139.793 226.554 141.129 226.393 142.665L222.767 177.287C222.574 179.134 221.016 180.538 219.158 180.538Z" fill="#E1E1EB"/>
<path d="M186.892 167.816C190.281 167.816 193.029 165.069 193.029 161.68C193.029 158.291 190.281 155.543 186.892 155.543C183.503 155.543 180.756 158.291 180.756 161.68C180.756 165.069 183.503 167.816 186.892 167.816Z" fill="#BCBCC4"/>
<path d="M186.612 154.383C186.776 153.256 187.814 150.923 190.939 151.105C191.145 151.116 191.296 151.305 191.285 151.511C191.236 152.42 190.617 153.259 189.898 153.853C189.045 154.558 188.024 154.872 186.941 154.791C186.738 154.776 186.583 154.584 186.612 154.383Z" fill="#BCBCC4"/>
<path d="M172.313 143.51H154.877C153.674 143.51 152.7 144.485 152.7 145.687C152.7 146.889 153.674 147.864 154.877 147.864H172.313C173.516 147.864 174.49 146.889 174.49 145.687C174.49 144.485 173.516 143.51 172.313 143.51Z" fill="#F4F4FF"/>
<path d="M179.747 147.779C180.902 147.779 181.839 146.843 181.839 145.687C181.839 144.532 180.902 143.595 179.747 143.595C178.591 143.595 177.655 144.532 177.655 145.687C177.655 146.843 178.591 147.779 179.747 147.779Z" fill="#F4F4FF"/>
<path d="M333.554 287.625H30.6659C28.8069 287.625 27.2998 289.132 27.2998 290.991C27.2998 292.85 28.8069 294.357 30.6659 294.357H333.554C335.413 294.357 336.92 292.85 336.92 290.991C336.92 289.132 335.413 287.625 333.554 287.625Z" fill="#3EA8D0"/>
</svg>
