<svg width="317" height="317" viewBox="0 0 317 317" fill="none" xmlns="http://www.w3.org/2000/svg">
<path d="M315.573 203.197V207.502C315.577 213.926 313.196 220.123 308.891 224.892C304.587 229.66 298.665 232.661 292.274 233.312C291.465 233.391 290.644 233.436 289.814 233.439H289.671C287.703 233.439 285.755 233.827 283.937 234.581C282.119 235.334 280.468 236.438 279.076 237.83C277.685 239.222 276.582 240.874 275.829 242.692C275.077 244.51 274.689 246.459 274.69 248.427V270.88C274.691 275.023 273.426 279.068 271.066 282.473C268.705 285.879 265.361 288.482 261.48 289.935C260.677 290.239 259.854 290.489 259.017 290.683C257.485 291.046 255.916 291.228 254.342 291.225H29.4808C13.9826 291.225 1.41992 281.106 1.41992 260.964C1.42054 259.808 1.49041 258.653 1.62914 257.505C2.471 250.711 5.76656 244.459 10.8958 239.924C16.0251 235.39 22.6346 232.886 29.4808 232.884H36.9017C38.87 232.885 40.8193 232.499 42.638 231.746C44.4568 230.993 46.1094 229.89 47.5013 228.498C48.8933 227.106 49.9973 225.454 50.7503 223.636C51.5032 221.817 51.8903 219.868 51.8895 217.899V212.355C51.8893 205.292 54.0217 198.394 58.0077 192.564C61.9937 186.733 67.6474 182.242 74.2285 179.679C75.0337 179.362 75.8547 179.073 76.6916 178.826C79.5087 177.962 82.4241 177.459 85.3678 177.33C85.8909 177.308 86.4203 177.295 86.9529 177.295C90.927 177.295 94.7384 175.716 97.5486 172.906C100.359 170.096 101.937 166.285 101.937 162.31C101.937 158.336 100.359 154.525 97.5486 151.715C94.7384 148.904 90.927 147.326 86.9529 147.326H48.5578C47.6639 147.326 46.7763 147.288 45.9014 147.215C45.0264 147.142 44.2498 147.047 43.4383 146.898C36.0555 145.681 29.3449 141.882 24.5032 136.177C19.6616 130.472 17.0038 123.233 17.0038 115.751C17.0038 108.269 19.6616 101.03 24.5032 95.3248C29.3449 89.6201 36.0555 85.8207 43.4383 84.6041C44.2498 84.471 45.0676 84.3696 45.9014 84.3062C46.7351 84.2428 47.6607 84.192 48.5578 84.192H96.6404C98.6087 84.1929 100.558 83.8057 102.376 83.0528C104.195 82.2998 105.847 81.1958 107.239 79.8039C108.631 78.4119 109.734 76.7593 110.487 74.9406C111.239 73.1218 111.626 71.1726 111.625 69.2043C111.627 64.9375 113.219 60.8247 116.092 57.6696C118.964 54.5146 122.91 52.5441 127.158 52.1433C127.694 52.0908 128.233 52.0654 128.771 52.0673H133.235C134.105 52.0681 134.974 51.9928 135.831 51.8422C136.668 51.6952 137.491 51.4778 138.291 51.1923C138.995 50.9438 139.677 50.6396 140.332 50.2825C143.303 48.6767 145.648 46.1189 146.989 43.0201C147.706 41.3644 148.116 39.592 148.197 37.7896C148.197 37.555 148.216 37.3172 148.216 37.0795V34.9239C148.218 30.9502 149.797 27.1398 152.607 24.33C155.417 21.5202 159.227 19.941 163.201 19.9393H250.005C253.253 19.9345 256.414 20.9896 259.008 22.9445C259.913 23.6266 260.739 24.4082 261.471 25.2744L261.49 25.2998C263.752 27.9953 264.988 31.4047 264.977 34.9239V37.089V37.7991C264.791 41.6448 263.133 45.2715 260.345 47.9273C257.558 50.5832 253.855 52.0645 250.005 52.0641H243.386C241.418 52.0624 239.469 52.4487 237.65 53.201C235.831 53.9532 234.179 55.0565 232.787 56.4479C231.395 57.8393 230.291 59.4915 229.538 61.3099C228.785 63.1283 228.397 65.0773 228.398 67.0455V69.2011C228.392 71.2869 228.824 73.3507 229.666 75.259C229.954 75.9081 230.286 76.5362 230.662 77.1388C232.006 79.2981 233.879 81.0787 236.103 82.3124C238.328 83.546 240.83 84.1919 243.373 84.1889H284.013C285.955 84.1871 287.894 84.3644 289.804 84.7183C290.635 84.8704 291.459 85.0574 292.264 85.2793C298.954 87.0958 304.861 91.0637 309.072 96.5705C313.283 102.077 315.564 108.817 315.564 115.749C315.564 122.682 313.283 129.421 309.072 134.928C304.861 140.435 298.954 144.403 292.264 146.219C291.459 146.438 290.635 146.625 289.804 146.777C287.894 147.132 285.956 147.31 284.013 147.31H264.378C263.403 147.308 262.43 147.403 261.474 147.592C260.634 147.754 259.81 147.99 259.011 148.296C258.476 148.505 257.954 148.743 257.445 149.009C256.531 149.484 255.67 150.054 254.874 150.708C253.156 152.112 251.772 153.881 250.822 155.887C249.873 157.893 249.383 160.085 249.387 162.304V162.621C249.467 166.543 251.081 170.277 253.885 173.02C256.688 175.764 260.455 177.299 264.378 177.295H289.807C290.638 177.295 291.462 177.346 292.267 177.428C293.841 177.583 295.396 177.884 296.915 178.325C297.137 178.389 297.355 178.455 297.571 178.525C302.797 180.202 307.356 183.494 310.592 187.928C313.827 192.362 315.571 197.708 315.573 203.197Z" fill="white"/>
<path d="M45.9016 84.322V147.215C45.0679 147.145 44.25 147.047 43.4385 146.898V84.6168C44.25 84.4837 45.0679 84.3822 45.9016 84.322Z" fill="white"/>
<path d="M45.9018 229.892V289.012H43.4292V231.391C44.2996 230.972 45.1276 230.469 45.9018 229.892Z" fill="white"/>
<path d="M74.2354 84.2047H76.6984V147.326H74.2354V84.2047Z" fill="white"/>
<path d="M76.7141 178.826V289.012H74.251V179.679C75.0403 179.362 75.8613 179.073 76.7141 178.826Z" fill="white"/>
<path d="M107.495 79.567V289.012H105.032V81.6307C105.924 81.0332 106.75 80.3413 107.495 79.567Z" fill="white"/>
<path d="M138.288 51.205V289.012H135.828V51.8549C136.665 51.7079 137.488 51.4905 138.288 51.205Z" fill="white"/>
<path d="M166.625 19.952H169.088V289.009H166.625V19.952Z" fill="white"/>
<path d="M197.415 19.952H199.881V289.009H197.415V19.952Z" fill="white"/>
<path d="M228.399 67.0614V69.217C228.398 69.87 228.44 70.5223 228.526 71.1697C228.804 73.2959 229.537 75.3373 230.675 77.1546V289.012H228.212V19.952H230.675V59.1237C229.185 61.5028 228.396 64.2541 228.399 67.0614Z" fill="white"/>
<path d="M261.471 25.2871V46.7416C260.741 47.6087 259.915 48.3903 259.008 49.0716V22.9571C259.914 23.6393 260.74 24.4208 261.471 25.2871Z" fill="white"/>
<path d="M261.471 84.2047V147.605C260.631 147.766 259.807 148.002 259.008 148.308V84.2047H261.471Z" fill="white"/>
<path d="M259.008 176.309C259.808 176.614 260.632 176.85 261.471 177.013V287.719C260.668 288.024 259.845 288.275 259.008 288.47V176.309Z" fill="white"/>
<path d="M292.274 85.2952V146.235C291.469 146.454 290.645 146.641 289.814 146.793V84.7341C290.635 84.8863 291.46 85.0733 292.274 85.2952Z" fill="white"/>
<path d="M289.805 177.295C290.635 177.295 291.459 177.346 292.265 177.428V233.312C291.456 233.391 290.635 233.436 289.805 233.439V177.295Z" fill="white"/>
<path d="M243.053 184.177H275.704C276.57 184.177 277.401 184.521 278.013 185.133C278.625 185.746 278.969 186.576 278.969 187.442V291.022H243.053V184.193V184.177Z" fill="#3EA8D0"/>
<path d="M240.714 184.177H273.365V291.006H237.433V187.442C237.433 187.012 237.518 186.586 237.683 186.189C237.848 185.792 238.09 185.431 238.395 185.128C238.7 184.824 239.062 184.584 239.46 184.421C239.858 184.258 240.284 184.175 240.714 184.177Z" fill="#5BBEE5"/>
<path d="M254.912 210.425C259.678 210.425 263.541 206.561 263.541 201.796C263.541 197.03 259.678 193.167 254.912 193.167C250.147 193.167 246.284 197.03 246.284 201.796C246.284 206.561 250.147 210.425 254.912 210.425Z" fill="#3EA8D0"/>
<path d="M254.913 205.711C257.075 205.711 258.827 203.958 258.827 201.796C258.827 199.634 257.075 197.881 254.913 197.881C252.75 197.881 250.998 199.634 250.998 201.796C250.998 203.958 252.75 205.711 254.913 205.711Z" fill="white"/>
<path d="M254.912 243.336C259.678 243.336 263.541 239.472 263.541 234.707C263.541 229.941 259.678 226.078 254.912 226.078C250.147 226.078 246.284 229.941 246.284 234.707C246.284 239.472 250.147 243.336 254.912 243.336Z" fill="#3EA8D0"/>
<path d="M254.913 238.622C257.075 238.622 258.827 236.869 258.827 234.707C258.827 232.545 257.075 230.792 254.913 230.792C252.75 230.792 250.998 232.545 250.998 234.707C250.998 236.869 252.75 238.622 254.913 238.622Z" fill="white"/>
<path d="M254.913 288.784C262.656 288.784 268.933 282.507 268.933 274.763C268.933 267.019 262.656 260.742 254.913 260.742C247.169 260.742 240.892 267.019 240.892 274.763C240.892 282.507 247.169 288.784 254.913 288.784Z" fill="#3EA8D0"/>
<path d="M254.912 281.125C258.426 281.125 261.275 278.277 261.275 274.763C261.275 271.249 258.426 268.401 254.912 268.401C251.399 268.401 248.55 271.249 248.55 274.763C248.55 278.277 251.399 281.125 254.912 281.125Z" fill="white"/>
<path d="M144.733 114.183V119.49L140.748 121.94V114.183H144.733Z" fill="#9DD8EF"/>
<path d="M99.6585 114.183V121.94L95.6738 119.49V114.183H99.6585Z" fill="#9DD8EF"/>
<path d="M87.7013 114.18H150.423L152.322 109.546H85.7993L87.7013 114.18Z" fill="#9DD8EF"/>
<path d="M95.6738 114.183H99.6617V116.498H95.6738V114.183Z" fill="#3EA8D0"/>
<path d="M140.748 114.183H144.733V116.498H140.748V114.183Z" fill="#3EA8D0"/>
<path d="M97.9973 78.933H99.9976C100.7 78.933 101.373 79.2119 101.869 79.7083C102.366 80.2047 102.645 80.878 102.645 81.58V109.546H95.3535V81.58C95.3535 80.8785 95.632 80.2057 96.1277 79.7094C96.6234 79.2131 97.2958 78.9339 97.9973 78.933Z" fill="#5BBEE5"/>
<path d="M98.9991 94.9954C100.088 94.9954 100.971 94.1126 100.971 93.0237C100.971 91.9347 100.088 91.0519 98.9991 91.0519C97.9101 91.0519 97.0273 91.9347 97.0273 93.0237C97.0273 94.1126 97.9101 94.9954 98.9991 94.9954Z" fill="white"/>
<path d="M106.683 85.2318H109.26C109.886 85.2318 110.486 85.4803 110.928 85.9226C111.37 86.3649 111.619 86.9648 111.619 87.5903V109.543H104.328V87.5934C104.327 87.2837 104.388 86.9769 104.506 86.6906C104.624 86.4043 104.797 86.1441 105.016 85.9248C105.235 85.7055 105.495 85.5314 105.781 85.4125C106.067 85.2936 106.373 85.2322 106.683 85.2318Z" fill="#5BBEE5"/>
<path d="M107.973 99.9279C109.062 99.9279 109.945 99.0451 109.945 97.9562C109.945 96.8672 109.062 95.9844 107.973 95.9844C106.884 95.9844 106.001 96.8672 106.001 97.9562C106.001 99.0451 106.884 99.9279 107.973 99.9279Z" fill="white"/>
<path d="M114.976 93.6418H116.656C117.065 93.6418 117.458 93.8044 117.748 94.094C118.037 94.3835 118.2 94.7761 118.2 95.1856V109.546H113.432V95.1856C113.432 94.7761 113.595 94.3835 113.884 94.094C114.174 93.8044 114.566 93.6418 114.976 93.6418Z" fill="#5BBEE5"/>
<path d="M115.819 103.256C116.532 103.256 117.109 102.679 117.109 101.966C117.109 101.254 116.532 100.676 115.819 100.676C115.106 100.676 114.529 101.254 114.529 101.966C114.529 102.679 115.106 103.256 115.819 103.256Z" fill="white"/>
<path d="M135.727 77.1832H145.595C145.856 77.1832 146.107 77.287 146.292 77.4719C146.477 77.6568 146.581 77.9076 146.581 78.169V109.479H135.727V77.1832Z" fill="#3EA8D0"/>
<path d="M135.02 77.1832H144.888V109.482H134.031V78.1722C134.03 78.0422 134.056 77.9134 134.105 77.7932C134.155 77.673 134.228 77.5638 134.32 77.4719C134.411 77.38 134.521 77.3072 134.641 77.2576C134.761 77.2081 134.89 77.1828 135.02 77.1832Z" fill="#5BBEE5"/>
<path d="M139.312 85.1208C140.753 85.1208 141.921 83.9528 141.921 82.5119C141.921 81.0711 140.753 79.903 139.312 79.903C137.871 79.903 136.703 81.0711 136.703 82.5119C136.703 83.9528 137.871 85.1208 139.312 85.1208Z" fill="#3EA8D0"/>
<path d="M139.312 83.6943C139.965 83.6943 140.494 83.165 140.494 82.5119C140.494 81.8589 139.965 81.3295 139.312 81.3295C138.659 81.3295 138.129 81.8589 138.129 82.5119C138.129 83.165 138.659 83.6943 139.312 83.6943Z" fill="white"/>
<path d="M139.312 95.0683C140.753 95.0683 141.921 93.9003 141.921 92.4594C141.921 91.0185 140.753 89.8505 139.312 89.8505C137.871 89.8505 136.703 91.0185 136.703 92.4594C136.703 93.9003 137.871 95.0683 139.312 95.0683Z" fill="#3EA8D0"/>
<path d="M139.312 93.6418C139.965 93.6418 140.494 93.1124 140.494 92.4594C140.494 91.8064 139.965 91.277 139.312 91.277C138.659 91.277 138.129 91.8064 138.129 92.4594C138.129 93.1124 138.659 93.6418 139.312 93.6418Z" fill="white"/>
<path d="M139.312 108.807C141.653 108.807 143.55 106.91 143.55 104.569C143.55 102.228 141.653 100.331 139.312 100.331C136.971 100.331 135.074 102.228 135.074 104.569C135.074 106.91 136.971 108.807 139.312 108.807Z" fill="#3EA8D0"/>
<path d="M139.312 106.493C140.375 106.493 141.236 105.631 141.236 104.569C141.236 103.506 140.375 102.645 139.312 102.645C138.249 102.645 137.388 103.506 137.388 104.569C137.388 105.631 138.249 106.493 139.312 106.493Z" fill="white"/>
<path d="M309.626 290.968H290.137C288.458 290.968 287.097 292.329 287.097 294.008C287.097 295.687 288.458 297.048 290.137 297.048H309.626C311.305 297.048 312.666 295.687 312.666 294.008C312.666 292.329 311.305 290.968 309.626 290.968Z" fill="#3EA8D0"/>
<path d="M281.582 290.968H8.03271C6.35374 290.968 4.99268 292.329 4.99268 294.008C4.99268 295.687 6.35374 297.048 8.03271 297.048H281.582C283.26 297.048 284.622 295.687 284.622 294.008C284.622 292.329 283.26 290.968 281.582 290.968Z" fill="#3EA8D0"/>
<path d="M117.708 143.858L124.872 169.852L125.357 171.624L124.593 171.852L102.27 178.433C101.482 178.665 100.675 178.829 99.858 178.924C99.7217 178.94 99.579 178.959 99.4459 178.969C99.3127 178.978 99.1289 178.994 98.9704 179C98.8119 179.007 98.6534 179 98.5107 179.016C98.3681 179.032 98.2318 179.016 98.0859 179.016C97.7372 179.016 97.379 179 97.0335 178.975L96.6182 178.931C96.4122 178.912 96.2061 178.883 95.9842 178.848C95.8511 178.826 95.7179 178.807 95.5848 178.778C95.3344 178.737 95.0871 178.687 94.8399 178.626C91.5722 177.84 88.6798 175.941 86.6581 173.256C86.5471 173.104 86.4394 172.939 86.3411 172.797C85.6892 171.851 85.1518 170.832 84.7402 169.76C84.6039 169.395 84.4771 169.024 84.3662 168.641C84.2552 168.257 84.1823 167.962 84.1126 167.626C83.3561 164.081 83.9664 160.38 85.8213 157.265C87.6763 154.15 90.6392 151.85 94.1171 150.825L117.708 143.858Z" fill="#E07373"/>
<path d="M103.64 170.863C102.936 172.41 101.891 173.776 100.582 174.86C99.2738 175.944 97.7365 176.717 96.086 177.121C95.94 177.162 95.7918 177.196 95.6422 177.222C95.3252 177.285 95.0335 177.33 94.7292 177.371C94.6531 177.371 94.5739 177.39 94.4915 177.396C94.4091 177.403 94.2791 177.419 94.1745 177.425C93.8575 177.447 93.5627 177.453 93.2584 177.447C93.1442 177.447 93.0333 177.447 92.9192 177.447C92.6425 177.44 92.3663 177.419 92.0918 177.384L91.7019 177.33C91.3343 177.279 90.9701 177.206 90.6114 177.111C90.4592 177.076 90.2944 177.032 90.1613 176.987C90.0281 176.943 89.8443 176.896 89.7143 176.842C89.5843 176.788 89.4226 176.737 89.2737 176.68C89.1247 176.623 88.982 176.563 88.8394 176.499L88.4051 176.296C87.6813 175.937 86.998 175.501 86.3668 174.997L82.623 172.004L59.5517 153.564C59.183 153.27 58.8336 152.952 58.5056 152.613C58.3598 152.467 58.2203 152.315 58.0872 152.166C57.9541 152.017 57.7702 151.799 57.6371 151.612C57.5325 151.475 57.4342 151.339 57.3359 151.196C57.2219 151.034 57.1162 150.865 57.0189 150.692C56.9428 150.575 56.8731 150.455 56.8033 150.334C56.7897 150.315 56.779 150.293 56.7716 150.271C56.7051 150.164 56.6457 150.053 56.5941 149.938C56.4832 149.735 56.3849 149.532 56.293 149.32C56.2613 149.247 56.2264 149.171 56.1979 149.095C56.1693 149.019 56.1155 148.889 56.0774 148.778C56.0774 148.778 56.0774 148.762 56.0774 148.752C56.0267 148.616 55.976 148.476 55.9316 148.334C55.8008 147.96 55.6949 147.577 55.6146 147.189C55.5827 147.086 55.5583 146.98 55.5417 146.872C55.4941 146.619 55.4561 146.365 55.4244 146.108C55.4096 145.982 55.3969 145.858 55.3864 145.738C55.3832 145.684 55.3832 145.63 55.3864 145.576C55.3864 145.446 55.3864 145.316 55.3673 145.189C55.3483 145.062 55.3673 144.894 55.3673 144.742C55.3627 144.73 55.3627 144.716 55.3673 144.704C55.3673 144.562 55.3673 144.413 55.3673 144.27C55.3673 144.127 55.3673 143.953 55.3927 143.807C55.4181 143.49 55.4561 143.195 55.51 142.888C55.5258 142.789 55.548 142.679 55.5702 142.571C55.9512 140.678 56.8121 138.915 58.0702 137.45C59.3283 135.985 60.9415 134.869 62.7552 134.206C64.5689 133.544 66.5223 133.359 68.4281 133.669C70.3339 133.978 72.1283 134.772 73.6392 135.974L100.451 157.403C102.406 158.971 103.781 161.147 104.359 163.585C104.936 166.023 104.683 168.585 103.64 170.863Z" fill="#EDBA70"/>
<path d="M103.64 170.863C102.936 172.409 101.891 173.776 100.582 174.86C99.2738 175.944 97.7365 176.717 96.086 177.121C95.94 177.162 95.7918 177.196 95.6422 177.222C95.3442 177.289 95.0367 177.333 94.7292 177.371C94.6531 177.371 94.5739 177.39 94.4915 177.396C94.409 177.403 94.2791 177.419 94.1745 177.425C93.8575 177.447 93.5627 177.453 93.2583 177.447C93.1442 177.447 93.0333 177.447 92.9192 177.447C92.6425 177.44 92.3663 177.419 92.0918 177.384L91.7019 177.33C91.3343 177.279 90.9701 177.206 90.6114 177.111C90.4592 177.076 90.2944 177.032 90.1613 176.987C90.0281 176.943 89.8443 176.896 89.7143 176.842C89.5843 176.788 89.4226 176.737 89.2737 176.68C89.1247 176.623 88.982 176.563 88.8394 176.499L88.4051 176.296C88.3163 176.255 88.2276 176.208 88.142 176.163L88.0405 176.119C87.8472 176.033 87.6538 175.944 87.4636 175.849C87.2734 175.754 87.1466 175.685 86.9596 175.593L86.8328 175.52C86.6679 175.428 86.4999 175.333 86.3382 175.234L86.0815 175.073C85.9071 174.959 85.7359 174.851 85.5679 174.734L85.3302 174.562C85.1685 174.442 85.0132 174.321 84.842 174.191C84.6074 174.011 84.3823 173.817 84.1541 173.615C83.8656 173.355 83.5867 173.082 83.3109 172.794C83.0351 172.505 82.8417 172.274 82.623 172.004L59.5517 153.564C59.183 153.27 58.8336 152.952 58.5056 152.613C58.3598 152.467 58.2203 152.315 58.0872 152.166C57.9541 152.017 57.7702 151.799 57.6371 151.612C57.5325 151.475 57.4342 151.339 57.3359 151.196C57.2219 151.034 57.1162 150.865 57.0189 150.692C56.9428 150.575 56.8731 150.455 56.8033 150.334C56.7897 150.315 56.779 150.293 56.7716 150.271C56.7051 150.164 56.6457 150.053 56.5941 149.938C56.4832 149.735 56.3849 149.532 56.293 149.32C56.2613 149.247 56.2264 149.171 56.1979 149.095C56.1693 149.019 56.1155 148.889 56.0774 148.778C56.0774 148.778 56.0774 148.762 56.0774 148.752C56.0267 148.616 55.976 148.476 55.9316 148.334C55.8008 147.96 55.6949 147.577 55.6146 147.189C55.5827 147.086 55.5583 146.98 55.5417 146.872C55.4941 146.619 55.4498 146.362 55.4244 146.108C55.4096 145.982 55.3969 145.858 55.3864 145.738C55.3832 145.684 55.3832 145.63 55.3864 145.576C55.3864 145.446 55.3864 145.316 55.3673 145.189C55.3483 145.062 55.3673 144.894 55.3673 144.742C55.3627 144.73 55.3627 144.716 55.3673 144.704C55.3673 144.562 55.3673 144.413 55.3673 144.27C55.3611 144.152 55.3611 144.033 55.3673 143.915C55.3673 143.88 55.3673 143.848 55.3673 143.807C55.3927 143.49 55.4307 143.195 55.4846 142.888C55.5005 142.783 55.5195 142.675 55.5417 142.571C55.6149 144.169 56.0289 145.733 56.7561 147.157C57.4832 148.582 58.5067 149.835 59.7578 150.832L79.9887 166.999L82.8417 169.275L86.5792 172.264C87.137 172.711 87.7368 173.103 88.3702 173.434C89.8166 174.05 91.3544 174.425 92.9223 174.543C94.0816 174.629 95.2468 174.575 96.3935 174.385C99.0964 173.929 101.612 172.707 103.64 170.863Z" fill="#38CEA1"/>
<path d="M118.691 169.436C110.104 162.203 109.245 152.334 113.229 145.142L133.72 139.185C135.315 138.721 137.008 138.716 138.605 139.17C140.203 139.624 141.64 140.519 142.752 141.753C144.597 143.797 145.953 146.234 146.717 148.879C150.594 162.209 138.577 176.388 121.811 171.142C120.668 170.786 119.608 170.206 118.691 169.436Z" fill="#E07373"/>
<path d="M100.59 199.076L61.3489 214.609L38.4615 145.503C36.9748 141.011 39.0955 136.05 43.2165 134.408L47.3882 132.756C62.6454 126.714 79.4971 135.346 85.0224 152.033L100.59 199.076Z" fill="#F8C97B"/>
<path d="M63.8661 131.609C59.5771 136.047 52.0832 135.714 46.1934 133.241L46.6847 126.315L47.4899 114.903H62.8295L63.5206 125.998L63.8661 131.609Z" fill="#F5A491"/>
<path d="M63.5207 126.004C58.9337 129.38 50.381 126.448 46.8877 123.449L47.49 114.909H62.8296L63.5207 126.004Z" fill="#EF927F"/>
<path d="M205.768 288.926L173.399 289.64C172.696 289.654 171.998 289.527 171.344 289.267C170.691 289.008 170.096 288.62 169.595 288.128C168.791 287.332 168.262 286.3 168.086 285.183L167.208 279.477L166.495 274.868L165.575 268.917L165.081 265.722L165.005 265.25L164.795 263.899L181.85 261.198L181.961 261.883L182.066 262.552L182.646 266.22L183.483 271.498L184.142 275.685C184.174 275.892 184.229 276.095 184.304 276.291C184.513 276.861 184.88 277.36 185.361 277.731C185.842 278.102 186.419 278.329 187.023 278.386C187.147 278.401 187.27 278.407 187.394 278.405L194.616 278.247C197.095 278.193 199.518 278.985 201.488 280.49C203.458 281.996 204.858 284.127 205.457 286.533C205.601 287.113 205.696 287.703 205.739 288.299C205.755 288.511 205.761 288.72 205.768 288.926Z" fill="#F5A491"/>
<path d="M164.361 290.841L206.015 290.86C206.304 290.86 206.591 290.802 206.857 290.69C207.124 290.577 207.365 290.413 207.568 290.207C207.77 290 207.93 289.755 208.036 289.487C208.143 289.218 208.195 288.93 208.19 288.641C208.183 288.352 208.119 288.066 208.001 287.802C207.883 287.537 207.713 287.299 207.502 287.101C207.29 286.903 207.042 286.749 206.77 286.648C206.498 286.547 206.21 286.502 205.92 286.514L164.308 288.365C163.983 288.379 163.677 288.52 163.456 288.757C163.234 288.994 163.114 289.309 163.122 289.633C163.131 289.956 163.265 290.263 163.497 290.489C163.728 290.714 164.038 290.84 164.361 290.841Z" fill="#65617B"/>
<path d="M206.151 288.292L181.606 288.831C181.571 287.22 181.853 285.617 182.437 284.114C183.021 282.612 183.895 281.239 185.01 280.074C186.125 278.91 187.458 277.976 188.933 277.327C190.409 276.677 191.998 276.325 193.609 276.289C195.221 276.254 196.824 276.536 198.326 277.12C199.829 277.704 201.202 278.579 202.366 279.693C203.531 280.808 204.465 282.141 205.114 283.616C205.763 285.092 206.116 286.681 206.151 288.292Z" fill="#65617B"/>
<path d="M184.294 276.291L167.198 279.461L166.485 274.852L165.566 268.902L165.071 265.706L182.056 262.536L182.636 266.204L183.473 271.482L184.132 275.67C184.164 275.882 184.218 276.09 184.294 276.291Z" fill="#EF927F"/>
<path d="M235.059 226.021L208.586 244.638C208.01 245.043 207.359 245.329 206.67 245.478C205.982 245.627 205.271 245.637 204.579 245.507C203.468 245.295 202.454 244.733 201.685 243.903L197.767 239.652L194.597 236.222L190.517 231.784L188.323 229.403L188.006 229.055L187.081 228.05L199.735 216.302L200.208 216.809L200.667 217.303L203.203 220.027L206.839 223.945L209.718 227.051C209.862 227.204 210.02 227.343 210.19 227.467C210.682 227.822 211.265 228.032 211.871 228.071C212.477 228.11 213.082 227.978 213.617 227.688C213.728 227.635 213.834 227.571 213.934 227.498L219.839 223.358C221.869 221.93 224.324 221.235 226.802 221.387C229.279 221.539 231.631 222.529 233.47 224.195C233.913 224.597 234.32 225.036 234.688 225.507C234.814 225.669 234.938 225.837 235.059 226.021Z" fill="#F5A491"/>
<path d="M201.745 250.674L236.339 227.473C236.58 227.312 236.786 227.104 236.945 226.862C237.104 226.62 237.213 226.349 237.266 226.064C237.318 225.78 237.314 225.487 237.252 225.204C237.191 224.922 237.073 224.654 236.907 224.417C236.74 224.18 236.528 223.979 236.283 223.825C236.037 223.671 235.763 223.568 235.477 223.521C235.192 223.475 234.899 223.486 234.618 223.555C234.336 223.623 234.071 223.747 233.838 223.919L200.319 248.645C200.058 248.838 199.883 249.125 199.832 249.445C199.78 249.765 199.856 250.092 200.043 250.357C200.229 250.622 200.511 250.803 200.83 250.862C201.148 250.921 201.476 250.854 201.745 250.674Z" fill="#65617B"/>
<path d="M235.024 225.263L214.945 239.395C213.996 238.078 213.318 236.585 212.949 235.004C212.581 233.423 212.53 231.784 212.799 230.183C213.069 228.582 213.653 227.05 214.518 225.676C215.384 224.302 216.513 223.114 217.84 222.179C219.168 221.245 220.668 220.583 222.253 220.232C223.839 219.881 225.478 219.848 227.076 220.135C228.674 220.422 230.199 221.023 231.563 221.903C232.928 222.783 234.104 223.925 235.024 225.263Z" fill="#65617B"/>
<path d="M210.171 227.486L197.767 239.652L194.597 236.222L190.517 231.784L188.323 229.403L200.661 217.323L203.197 220.046L206.833 223.964L209.711 227.07C209.852 227.222 210.005 227.361 210.171 227.486Z" fill="#EF927F"/>
<path d="M163.442 174.505L208.754 221.976L192.736 237.934L145.465 192.4C144.249 191.229 143.278 189.827 142.611 188.276C141.944 186.725 141.594 185.056 141.58 183.368C141.566 181.679 141.89 180.005 142.532 178.444C143.174 176.882 144.122 175.464 145.319 174.274C146.515 173.083 147.937 172.142 149.502 171.508C151.066 170.873 152.741 170.557 154.429 170.579C156.117 170.6 157.784 170.959 159.332 171.633C160.879 172.307 162.277 173.284 163.442 174.505Z" fill="#65617B"/>
<path d="M179.498 206.684L185.657 272.021L163.182 274.614L154.306 209.591C154.077 207.918 154.185 206.217 154.622 204.587C155.059 202.956 155.818 201.43 156.853 200.096C157.888 198.763 159.179 197.65 160.65 196.822C162.121 195.994 163.743 195.468 165.42 195.275C167.097 195.082 168.795 195.225 170.415 195.696C172.036 196.168 173.546 196.958 174.857 198.02C176.168 199.083 177.254 200.397 178.051 201.884C178.848 203.372 179.34 205.004 179.498 206.684Z" fill="#56526A"/>
<path d="M71.0269 195.196H166.609C170.044 195.196 173.339 196.561 175.768 198.99C178.197 201.419 179.561 204.713 179.561 208.149C179.561 211.584 178.197 214.878 175.768 217.307C173.339 219.737 170.044 221.101 166.609 221.101H71.0269V195.196Z" fill="#56526A"/>
<path d="M174.958 273.33L169.886 219.212C169.558 215.741 167.918 212.527 165.301 210.224C162.684 207.921 159.286 206.704 155.802 206.82L66.779 209.876L66.7568 209.201L155.78 206.145C159.435 206.025 162.998 207.302 165.743 209.716C168.489 212.131 170.211 215.502 170.558 219.142L175.63 273.26L174.958 273.33Z" fill="#EDEEFE"/>
<path d="M60.604 208.734L148.801 171.895C151.971 170.571 155.537 170.56 158.715 171.865C161.892 173.17 164.421 175.685 165.745 178.854C167.069 182.024 167.08 185.59 165.775 188.768C164.47 191.945 161.956 194.474 158.786 195.799L70.5885 232.638L60.604 208.734Z" fill="#65617B"/>
<path d="M168.688 195.272C168.371 195.24 168.054 195.218 167.709 195.212L164.127 191.36C161.563 188.605 158.204 186.717 154.518 185.958C150.832 185.199 147 185.607 143.557 187.125L65.8915 221.415L65.6221 220.8L143.284 186.501C146.856 184.926 150.829 184.503 154.653 185.29C158.476 186.078 161.959 188.036 164.618 190.894L168.688 195.272Z" fill="#F3F4FE"/>
<path d="M201.431 230.469L200.94 230.928L179.451 207.828L179.413 206.795L201.431 230.469Z" fill="#F3F4FE"/>
<path d="M206.738 218.067L189.732 235.696C188.82 236.641 188.847 238.146 189.792 239.057L189.794 239.06C190.739 239.971 192.245 239.944 193.156 238.999L210.162 221.37C211.074 220.425 211.047 218.92 210.102 218.009L210.1 218.006C209.155 217.095 207.649 217.122 206.738 218.067Z" fill="#65617B"/>
<path d="M67.4999 104.165C69.9942 103.896 71.5789 99.6187 71.0393 94.6108C70.4997 89.6029 68.0401 85.761 65.5458 86.0298C63.0514 86.2986 61.4667 90.5762 62.0063 95.5841C62.546 100.592 65.0055 104.434 67.4999 104.165Z" fill="#7C5B5D"/>
<path d="M34.439 97.6899L35.9574 106.766C36.881 112.271 39.9533 117.183 44.4987 120.423C49.044 123.663 54.6901 124.965 60.1952 124.042C63.5063 123.486 66.4608 121.637 68.4089 118.902C70.357 116.168 71.1392 112.771 70.5833 109.46L68.4245 96.5677L68.0568 94.3899L67.9205 93.5879L67.5211 91.2168C67.2921 89.8511 66.7962 88.544 66.0619 87.3701C65.3276 86.1962 64.3691 85.1785 63.2413 84.3751C62.1136 83.5717 60.8385 82.9984 59.4891 82.688C58.1397 82.3776 56.7423 82.336 55.3768 82.5658L53.1261 82.9431L43.8348 84.4995C42.6349 84.6972 41.4746 85.0868 40.3986 85.6534C38.0997 86.8658 36.2795 88.8213 35.2346 91.2009C34.3392 93.2392 34.0625 95.4957 34.439 97.6899Z" fill="#F5A491"/>
<path d="M37.33 97.8389C40.2559 103.526 50.5235 104.071 60.2618 99.0593C63.0743 97.6306 65.656 95.7873 67.9205 93.5911L67.5211 91.2168C67.2921 89.8512 66.7963 88.544 66.0619 87.3701C65.3276 86.1962 64.3691 85.1785 63.2413 84.3751C62.1136 83.5717 60.8385 82.9984 59.4891 82.688C58.1397 82.3776 56.7423 82.336 55.3768 82.5658L53.1261 82.9431L43.8348 84.4995C42.6349 84.6972 41.4746 85.0868 40.3986 85.6534C36.8925 89.822 35.5516 94.3836 37.33 97.8389Z" fill="#EF927F"/>
<path d="M52.4287 104.277C53.2323 104.277 53.8837 103.626 53.8837 102.822C53.8837 102.019 53.2323 101.367 52.4287 101.367C51.6251 101.367 50.9736 102.019 50.9736 102.822C50.9736 103.626 51.6251 104.277 52.4287 104.277Z" fill="#5E4041"/>
<path d="M62.6679 103.944C63.4715 103.944 64.1229 103.293 64.1229 102.489C64.1229 101.686 63.4715 101.034 62.6679 101.034C61.8643 101.034 61.2129 101.686 61.2129 102.489C61.2129 103.293 61.8643 103.944 62.6679 103.944Z" fill="#5E4041"/>
<path d="M59.8812 108.151C59.8968 108.579 59.8276 109.006 59.6774 109.407C59.5272 109.808 59.2991 110.175 59.0063 110.487C58.9334 110.563 58.8573 110.636 58.778 110.709C58.2145 111.208 57.4949 111.495 56.7429 111.521H56.6129C55.7946 111.547 54.9962 111.265 54.3758 110.731C53.7553 110.197 53.3579 109.449 53.2622 108.636C53.25 108.547 53.2426 108.457 53.24 108.366C53.2349 108.199 53.2964 108.036 53.4111 107.914C53.5257 107.791 53.6842 107.719 53.8519 107.713L59.2409 107.533C59.4074 107.531 59.5679 107.595 59.6877 107.711C59.8075 107.826 59.877 107.984 59.8812 108.151Z" fill="#962F4A"/>
<path d="M56.6478 111.023C56.6548 111.192 56.6442 111.361 56.6161 111.527H56.597C55.7789 111.554 54.9805 111.272 54.3604 110.738C53.7403 110.203 53.3437 109.455 53.2495 108.642C53.4824 108.567 53.7245 108.524 53.9691 108.515C54.6567 108.493 55.325 108.745 55.8272 109.215C56.3295 109.685 56.6246 110.335 56.6478 111.023Z" fill="#E1617F"/>
<path d="M59.1077 107.542C59.1077 108.176 58.1345 108.731 56.9235 108.769C55.7126 108.807 54.7045 108.332 54.6602 107.694L59.1077 107.542Z" fill="white"/>
<path d="M35.3628 112.631L34.597 112.714L32.7118 95.2185L41.5367 94.2676L42.5535 103.704C42.7838 105.841 42.1556 107.983 40.8071 109.657C39.4586 111.331 37.5002 112.401 35.3628 112.631Z" fill="#7C5B5D"/>
<path d="M37.6691 113.683C40.6261 113.683 43.0232 111.285 43.0232 108.328C43.0232 105.371 40.6261 102.974 37.6691 102.974C34.7121 102.974 32.3149 105.371 32.3149 108.328C32.3149 111.285 34.7121 113.683 37.6691 113.683Z" fill="#F5A491"/>
<path d="M35.9953 107.897C35.9844 108.352 36.108 108.8 36.3504 109.185C36.5929 109.57 36.9435 109.876 37.3584 110.062C37.4582 110.103 37.5665 110.119 37.6739 110.109C37.7812 110.098 37.8843 110.061 37.9741 110.001C38.0639 109.942 38.1377 109.861 38.189 109.766C38.2403 109.671 38.2674 109.565 38.2682 109.457L38.3443 106.452C38.3481 106.337 38.3227 106.224 38.2704 106.122C38.2181 106.02 38.1406 105.933 38.0454 105.87C37.9501 105.806 37.8402 105.768 37.7261 105.759C37.612 105.75 37.4974 105.77 37.3933 105.818C36.9856 105.994 36.6373 106.284 36.3894 106.653C36.1416 107.021 36.0048 107.453 35.9953 107.897Z" fill="#EF927F"/>
<path d="M36.5945 99.8043C41.929 99.8043 46.2535 95.4798 46.2535 90.1453C46.2535 84.8108 41.929 80.4863 36.5945 80.4863C31.26 80.4863 26.9355 84.8108 26.9355 90.1453C26.9355 95.4798 31.26 99.8043 36.5945 99.8043Z" fill="#7C5B5D"/>
<path d="M26.9893 91.1819C27.1373 92.5675 27.5844 93.9045 28.2997 95.1004C29.0151 96.2963 29.9816 97.3226 31.1325 98.1083C29.3588 96.4397 28.281 94.1625 28.1152 91.7329C27.9493 89.3034 28.7077 86.9008 30.2382 85.0067C31.7688 83.1126 33.9585 81.8667 36.3687 81.5187C38.779 81.1707 41.2317 81.7462 43.2356 83.1301C41.8004 81.7703 39.9826 80.8836 38.0275 80.5898C36.0724 80.296 34.0743 80.6092 32.3029 81.4871C30.5315 82.3651 29.0721 83.7654 28.1219 85.4991C27.1717 87.2328 26.7764 89.2164 26.9893 91.1819Z" fill="#5E4041"/>
<path d="M46.0571 96.5107C53.2141 96.5107 59.0161 90.7087 59.0161 83.5517C59.0161 76.3947 53.2141 70.5927 46.0571 70.5927C38.9001 70.5927 33.0981 76.3947 33.0981 83.5517C33.0981 90.7087 38.9001 96.5107 46.0571 96.5107Z" fill="#7C5B5D"/>
<path d="M62.3349 97.9784C69.492 97.9784 75.2939 92.1765 75.2939 85.0194C75.2939 77.8624 69.492 72.0605 62.3349 72.0605C55.1779 72.0605 49.376 77.8624 49.376 85.0194C49.376 92.1765 55.1779 97.9784 62.3349 97.9784Z" fill="#7C5B5D"/>
<path d="M46.0571 96.5107C53.2141 96.5107 59.0161 90.7087 59.0161 83.5517C59.0161 76.3947 53.2141 70.5927 46.0571 70.5927C38.9001 70.5927 33.0981 76.3947 33.0981 83.5517C33.0981 90.7087 38.9001 96.5107 46.0571 96.5107Z" fill="#7C5B5D"/>
<path d="M62.3349 97.9784C69.492 97.9784 75.2939 92.1765 75.2939 85.0194C75.2939 77.8624 69.492 72.0605 62.3349 72.0605C55.1779 72.0605 49.376 77.8624 49.376 85.0194C49.376 92.1765 55.1779 97.9784 62.3349 97.9784Z" fill="#7C5B5D"/>
<path d="M33.1362 82.5341C33.7701 80.6017 34.8502 78.8458 36.2892 77.4087C37.7282 75.9715 39.4855 74.8936 41.4187 74.2623C43.3519 73.631 45.4067 73.464 47.4165 73.7748C49.4263 74.0856 51.3346 74.8656 52.9868 76.0515C53.522 76.4316 54.0246 76.8558 54.4894 77.3195C55.1743 76.8505 55.905 76.4522 56.6703 76.1307C56.205 75.4688 55.6809 74.8503 55.1043 74.2826C53.3406 72.564 51.1239 71.3834 48.7136 70.8789C46.3032 70.3745 43.7991 70.567 41.4942 71.4341C39.1894 72.3012 37.1792 73.8068 35.699 75.7749C34.2188 77.7429 33.3299 80.0919 33.1362 82.5468V82.5341Z" fill="#5E4041"/>
<path d="M52.9868 76.0515C53.522 76.4316 54.0246 76.8558 54.4894 77.3195C55.1743 76.8505 55.905 76.4522 56.6704 76.1307C57.8369 75.6339 59.0708 75.3133 60.3317 75.1797C63.747 74.8128 67.1683 75.8171 69.8433 77.972C72.5183 80.1268 74.2281 83.2558 74.5967 86.671C74.6809 87.4703 74.6926 88.2756 74.6316 89.077C75.4746 86.5124 75.4955 83.7486 74.6914 81.1716C73.8872 78.5946 72.2982 76.3332 70.1462 74.7032C67.9943 73.0733 65.3869 72.1563 62.6884 72.0803C59.99 72.0043 57.3351 72.7732 55.0949 74.2794C54.3281 74.7893 53.6209 75.3837 52.9868 76.0515Z" fill="#5E4041"/>
<path d="M44.2408 91.0456C47.3256 91.0456 49.8263 88.5448 49.8263 85.46C49.8263 82.3752 47.3256 79.8745 44.2408 79.8745C41.156 79.8745 38.6553 82.3752 38.6553 85.46C38.6553 88.5448 41.156 91.0456 44.2408 91.0456Z" fill="#5E4041"/>
<path d="M98.7233 139.212L90.1667 152.922C88.8606 155.014 89.4982 157.77 91.5908 159.076C93.6835 160.382 96.4387 159.744 97.7448 157.651L106.301 143.942C107.608 141.849 106.97 139.094 104.877 137.788C102.785 136.482 100.029 137.119 98.7233 139.212Z" fill="#F0A284"/>
<path d="M134.998 137.477C136.19 137.477 137.156 136.51 137.156 135.318C137.156 134.126 136.19 133.159 134.998 133.159C133.805 133.159 132.839 134.126 132.839 135.318C132.839 136.51 133.805 137.477 134.998 137.477Z" fill="#2329AD"/>
<path d="M135.609 137.429C136.802 137.429 137.768 136.463 137.768 135.27C137.768 134.078 136.802 133.111 135.609 133.111C134.417 133.111 133.451 134.078 133.451 135.27C133.451 136.463 134.417 137.429 135.609 137.429Z" fill="#161762"/>
<path d="M106.157 174.112L133.92 171.833C134.949 171.749 135.916 171.304 136.65 170.578C137.384 169.851 137.838 168.889 137.933 167.861L142.209 121.411C142.268 120.773 142.186 120.13 141.97 119.527C141.754 118.924 141.408 118.375 140.957 117.92C140.507 117.464 139.962 117.113 139.361 116.89C138.761 116.668 138.118 116.579 137.48 116.631L109.717 118.91C108.688 118.994 107.721 119.439 106.987 120.165C106.253 120.892 105.799 121.854 105.704 122.882L101.44 169.335C101.381 169.972 101.462 170.614 101.678 171.216C101.893 171.818 102.237 172.366 102.687 172.821C103.136 173.276 103.68 173.628 104.279 173.851C104.878 174.074 105.519 174.163 106.157 174.112Z" fill="#7A59A4"/>
<path d="M109.416 173.846L137.175 171.567C138.205 171.483 139.172 171.039 139.906 170.312C140.64 169.586 141.094 168.623 141.189 167.595L145.468 121.148C145.527 120.511 145.445 119.869 145.229 119.267C145.013 118.664 144.669 118.117 144.219 117.662C143.77 117.206 143.226 116.855 142.626 116.632C142.027 116.409 141.386 116.32 140.748 116.371L112.988 118.647C111.958 118.731 110.991 119.176 110.256 119.903C109.522 120.63 109.067 121.593 108.972 122.622L104.683 169.066C104.624 169.704 104.706 170.347 104.923 170.951C105.139 171.554 105.485 172.103 105.936 172.558C106.387 173.014 106.932 173.365 107.533 173.587C108.134 173.81 108.777 173.898 109.416 173.846Z" fill="#593870"/>
<path d="M120.39 145.392C120.476 146.482 120.899 147.518 121.6 148.357C122.301 149.196 123.245 149.797 124.303 150.075C125.36 150.354 126.477 150.297 127.501 149.912C128.524 149.527 129.403 148.834 130.015 147.928C129.573 148.099 129.108 148.206 128.636 148.245C127.944 148.304 127.247 148.225 126.586 148.014C125.924 147.803 125.311 147.464 124.781 147.015C124.251 146.567 123.814 146.018 123.497 145.401C123.179 144.783 122.986 144.109 122.93 143.417C122.829 142.223 123.145 141.032 123.824 140.044C122.745 140.437 121.825 141.173 121.204 142.139C120.584 143.105 120.298 144.248 120.39 145.392Z" fill="#7A59A4"/>
<path d="M142.324 139.537L135.409 142.845C133.53 143.744 132.735 145.997 133.635 147.876C134.534 149.755 136.786 150.55 138.666 149.651L145.58 146.342C147.459 145.443 148.254 143.191 147.355 141.311C146.455 139.432 144.203 138.637 142.324 139.537Z" fill="#ED9281"/>
<path d="M145.387 145.941L138.472 149.249C136.593 150.148 135.798 152.401 136.698 154.28C137.597 156.159 139.849 156.954 141.729 156.055L148.643 152.746C150.522 151.847 151.317 149.595 150.418 147.715C149.518 145.836 147.266 145.041 145.387 145.941Z" fill="#ED9281"/>
<path d="M148.101 155.149L140.436 155.379C138.353 155.441 136.715 157.181 136.777 159.264C136.84 161.348 138.579 162.986 140.663 162.923L148.328 162.694C150.411 162.631 152.049 160.891 151.987 158.808C151.924 156.725 150.185 155.086 148.101 155.149Z" fill="#ED9281"/>
<path d="M52.6476 186.404C55.739 191.802 62.6202 193.672 68.0173 190.581C73.4144 187.491 75.2835 180.609 72.1921 175.211L55.1336 145.425C52.0422 140.028 45.161 138.157 39.7639 141.248C34.3668 144.339 32.4977 151.221 35.5891 156.619L52.6476 186.404Z" fill="#EDBA70"/>
<path d="M34.1504 149.912C35.1978 148.287 36.6461 146.958 38.3559 146.054C40.0657 145.15 41.9794 144.701 43.9128 144.751C45.8462 144.801 47.7342 145.348 49.395 146.339C51.0558 147.33 52.4335 148.732 53.3955 150.41L70.4532 180.208C71.6215 182.24 72.1226 184.587 71.8861 186.919C73.0056 185.187 73.6273 183.181 73.6832 181.12C73.7391 179.058 73.2271 177.021 72.2031 175.231L55.1421 145.433C53.9553 143.363 52.1415 141.723 49.9622 140.75C47.783 139.777 45.351 139.521 43.0171 140.02C40.6832 140.518 38.568 141.745 36.9766 143.524C35.3853 145.303 34.4001 147.541 34.1631 149.916L34.1504 149.912Z" fill="#E0AB65"/>
<path d="M105.583 176.252C111.407 171.953 112.294 163.284 107.574 156.886C103.973 152.011 98.1498 149.865 92.9922 151.025C91.3582 151.397 89.8204 152.108 88.4781 153.111L56.3692 176.823C50.5459 181.121 49.6551 189.791 54.3784 196.188C59.1017 202.585 67.6512 204.284 73.4713 199.992L105.583 176.252Z" fill="#F0A284"/>
<path d="M67.7739 188.263C66.185 189.394 65.8136 191.598 66.9445 193.187C68.0754 194.776 70.2803 195.148 71.8693 194.017L86.4846 183.615C88.0736 182.484 88.4449 180.279 87.3141 178.69C86.1832 177.101 83.9783 176.73 82.3893 177.861L67.7739 188.263Z" fill="#FCB798"/>
<path d="M93.3376 180.354C82.8766 176.309 78.838 167.259 80.2645 159.163L97.6995 146.86C99.0564 145.902 100.656 145.346 102.314 145.255C103.972 145.164 105.623 145.542 107.076 146.346C109.486 147.679 111.561 149.541 113.147 151.792C121.148 163.135 114.415 180.452 96.8436 180.956C95.6466 180.989 94.455 180.784 93.3376 180.354Z" fill="#F0A284"/>
<path d="M104.652 141.284L93.9023 150.241C92.0071 151.82 91.7508 154.636 93.3298 156.531C94.9088 158.427 97.7252 158.683 99.6204 157.104L110.371 148.147C112.266 146.568 112.522 143.752 110.943 141.857C109.364 139.961 106.548 139.705 104.652 141.284Z" fill="#F0A284"/>
<path d="M114.609 155.946L102.213 162.435C100.027 163.579 99.1828 166.278 100.327 168.464C101.471 170.649 104.17 171.493 106.355 170.349L118.752 163.86C120.938 162.716 121.782 160.017 120.638 157.832C119.494 155.646 116.795 154.802 114.609 155.946Z" fill="#F0A284"/>
<path d="M54.3813 196.179C58.3946 201.612 65.1593 203.657 70.6847 201.514C71.6769 201.126 72.6138 200.609 73.4711 199.976L99.519 180.734C109.219 179.435 115.068 172.679 116.257 165.17L118.745 163.87C119.72 163.36 120.472 162.509 120.859 161.479C121.246 160.45 121.241 159.313 120.844 158.288C120.785 158.133 120.716 157.983 120.638 157.837C120.574 157.717 120.511 157.606 120.441 157.489C120.4 158.263 120.159 159.013 119.739 159.665C119.32 160.317 118.738 160.849 118.051 161.207L116.466 162.031L115.553 162.507C115.371 163.705 115.064 164.881 114.637 166.016C113.118 170.12 110.17 173.538 106.334 175.643C104.009 176.92 101.463 177.744 98.8311 178.072L95.1 180.833L72.7864 197.317C71.9271 197.948 70.9894 198.465 69.9968 198.854C64.4778 200.997 57.7067 198.952 53.6935 193.519C52.7838 192.297 52.0606 190.947 51.5474 189.512C51.9527 191.927 52.9239 194.211 54.3813 196.179Z" fill="#FCB798"/>
<path d="M114.148 145.861L95.8037 157.552C93.7235 158.877 93.1119 161.638 94.4376 163.719C95.7634 165.799 98.5245 166.411 100.605 165.085L118.949 153.394C121.029 152.068 121.64 149.307 120.315 147.227C118.989 145.147 116.228 144.535 114.148 145.861Z" fill="#F0A284"/>
<path d="M186.477 267.738L162.206 271.037C160.905 271.213 159.993 272.412 160.17 273.713L160.171 273.716C160.348 275.017 161.546 275.928 162.847 275.751L187.118 272.453C188.419 272.276 189.331 271.078 189.154 269.776L189.153 269.773C188.977 268.472 187.778 267.561 186.477 267.738Z" fill="#56526A"/>
<path d="M154.211 227.549C154.211 230.378 153.087 233.091 151.087 235.092C149.086 237.092 146.373 238.216 143.544 238.216H61.758C59.8736 238.216 58.0408 237.6 56.539 236.462C55.0372 235.323 53.9489 233.725 53.4399 231.911L22.1647 120.365C21.8277 119.145 21.9813 117.842 22.5927 116.734C23.2041 115.627 24.2246 114.802 25.4362 114.437L27.8232 113.721C29.0951 113.339 30.4298 113.212 31.7509 113.347C33.072 113.481 34.3536 113.875 35.5226 114.505C36.6916 115.135 37.725 115.989 38.5638 117.018C39.4026 118.048 40.0304 119.232 40.4112 120.504L56.4261 173.957C57.6863 178.163 60.2693 181.851 63.7916 184.473C67.3139 187.094 71.5877 188.51 75.9786 188.51H111.996C116.906 188.511 121.614 190.462 125.085 193.934C128.556 197.406 130.506 202.114 130.506 207.023V216.879H143.544C146.373 216.88 149.087 218.004 151.087 220.005C153.087 222.006 154.211 224.72 154.211 227.549Z" fill="#5BBEE5"/>
<path d="M154.205 227.13C154.298 229.538 153.574 231.906 152.151 233.851C150.728 235.795 148.689 237.2 146.365 237.839C146.63 236.796 146.737 235.718 146.682 234.643C146.388 228.937 141.528 224.534 135.816 224.534H126.623C126.147 224.535 125.675 224.442 125.235 224.261C124.795 224.079 124.396 223.812 124.059 223.476C123.722 223.14 123.455 222.741 123.272 222.301C123.09 221.861 122.996 221.39 122.996 220.914V214.676C122.995 209.766 121.045 205.058 117.573 201.587C114.101 198.116 109.393 196.166 104.483 196.166H68.4722C64.0806 196.165 59.8062 194.749 56.2834 192.127C52.7606 189.504 50.1772 185.816 48.9165 181.609L32.8922 128.144C32.2263 125.917 30.8128 123.987 28.8898 122.68C26.9669 121.373 24.6523 120.769 22.3361 120.97L22.1649 120.362C21.8288 119.143 21.9829 117.84 22.5942 116.733C23.2055 115.626 24.2255 114.802 25.4363 114.437L27.8202 113.721C29.0923 113.339 30.4272 113.212 31.7485 113.346C33.0698 113.481 34.3517 113.874 35.521 114.504C36.6902 115.134 37.7239 115.988 38.563 117.018C39.4021 118.047 40.0302 119.232 40.4114 120.504L56.4262 173.957C57.687 178.163 60.2706 181.851 63.7935 184.473C67.3163 187.095 71.5906 188.51 75.982 188.51H111.993C116.904 188.51 121.614 190.461 125.086 193.934C128.558 197.406 130.509 202.116 130.509 207.026V216.879H143.351C149.114 216.879 153.983 221.371 154.205 227.13Z" fill="#3EA8D0"/>
<path d="M73.9657 238.219L71.9178 245.713L59.5295 290.968H55.6304L65.096 245.713L66.662 238.219H73.9657Z" fill="#5BBEE5"/>
<path d="M151.244 290.968H147.345L134.957 245.713L132.909 238.219H140.212L141.778 245.713L151.244 290.968Z" fill="#5BBEE5"/>
<path d="M66.6622 238.219H73.9658L71.918 245.713H65.0962L66.6622 238.219Z" fill="#3EA8D0"/>
<path d="M141.778 245.713H134.957L132.909 238.219H140.212L141.778 245.713Z" fill="#3EA8D0"/>
<path d="M235.842 47.3471H185.73C181.145 47.3471 177.428 51.0642 177.428 55.6494V166.311C177.428 170.896 181.145 174.613 185.73 174.613H235.842C240.427 174.613 244.144 170.896 244.144 166.311V55.6494C244.144 51.0642 240.427 47.3471 235.842 47.3471Z" fill="#3EA8D0"/>
<path d="M235.442 51.9024H186.13C183.67 51.9024 181.676 53.8965 181.676 56.3563V165.604C181.676 168.064 183.67 170.058 186.13 170.058H235.442C237.902 170.058 239.896 168.064 239.896 165.604V56.3563C239.896 53.8965 237.902 51.9024 235.442 51.9024Z" fill="#F3F4FE"/>
<path d="M239.896 56.3531V165.604C239.898 166.188 239.785 166.767 239.563 167.307C239.341 167.847 239.014 168.339 238.602 168.752C238.19 169.166 237.7 169.494 237.16 169.718C236.621 169.942 236.042 170.058 235.458 170.058H186.13C185.546 170.058 184.967 169.942 184.428 169.718C183.888 169.494 183.398 169.166 182.986 168.752C182.574 168.339 182.247 167.847 182.025 167.307C181.803 166.767 181.69 166.188 181.692 165.604V56.3531C181.692 55.1761 182.16 54.0472 182.992 53.215C183.824 52.3827 184.953 51.9151 186.13 51.9151H235.442C236.027 51.913 236.605 52.0263 237.146 52.2484C237.686 52.4705 238.177 52.797 238.591 53.2093C239.005 53.6217 239.333 54.1116 239.557 54.6511C239.781 55.1906 239.896 55.769 239.896 56.3531Z" fill="#F3F4FE"/>
<path d="M239.896 82.718V165.604C239.898 166.188 239.785 166.767 239.563 167.307C239.341 167.847 239.014 168.339 238.602 168.752C238.19 169.166 237.7 169.494 237.16 169.718C236.621 169.943 236.042 170.058 235.458 170.058H217.389V74.3777L239.896 82.718Z" fill="#5BBEE5"/>
<path d="M206.307 170.058V97.0147L217.37 90.3767V170.058H206.307Z" fill="#3EA8D0"/>
<path d="M193.709 81.8652V170.058H186.13C185.546 170.058 184.967 169.942 184.428 169.718C183.888 169.494 183.398 169.166 182.986 168.752C182.574 168.339 182.247 167.847 182.025 167.307C181.803 166.767 181.69 166.188 181.692 165.604V86.2906L193.709 81.8652Z" fill="#5BBEE5"/>
<path d="M201.539 84.5883V170.058H193.709V81.8652L201.539 84.5883Z" fill="#3EA8D0"/>
<path d="M221.589 86.7217H227.099V89.7078H221.589V86.7217Z" fill="#F1F2FD"/>
<path d="M182.792 93.4801H192.191V84.7373L182.792 88.3352V93.4801Z" fill="#F1F2FD"/>
<path d="M231.79 86.7217H237.3V89.7078H231.79V86.7217Z" fill="#F1F2FD"/>
<path d="M221.589 94.5801H227.099V97.5663H221.589V94.5801Z" fill="#F1F2FD"/>
<path d="M231.79 94.5801H237.3V97.5663H231.79V94.5801Z" fill="#F1F2FD"/>
<path d="M221.589 102.435H227.099V105.422H221.589V102.435Z" fill="#F1F2FD"/>
<path d="M231.79 102.435H237.3V105.422H231.79V102.435Z" fill="#F1F2FD"/>
<path d="M221.589 110.294H227.099V113.28H221.589V110.294Z" fill="#F1F2FD"/>
<path d="M231.79 110.294H237.3V113.28H231.79V110.294Z" fill="#F1F2FD"/>
<path d="M221.589 118.149H227.099V121.135H221.589V118.149Z" fill="#F1F2FD"/>
<path d="M231.79 118.149H237.3V121.135H231.79V118.149Z" fill="#F1F2FD"/>
<path d="M221.589 126.008H227.099V128.994H221.589V126.008Z" fill="#F1F2FD"/>
<path d="M231.79 126.008H237.3V128.994H231.79V126.008Z" fill="#F1F2FD"/>
<path d="M221.589 133.863H227.099V136.849H221.589V133.863Z" fill="#F1F2FD"/>
<path d="M231.79 133.863H237.3V136.849H231.79V133.863Z" fill="#F1F2FD"/>
<path d="M221.589 141.721H227.099V144.707H221.589V141.721Z" fill="#F1F2FD"/>
<path d="M231.79 141.721H237.3V144.707H231.79V141.721Z" fill="#F1F2FD"/>
<path d="M221.589 149.576H227.099V152.563H221.589V149.576Z" fill="#F1F2FD"/>
<path d="M231.79 149.576H237.3V152.563H231.79V149.576Z" fill="#F1F2FD"/>
<path d="M221.589 157.435H227.099V160.421H221.589V157.435Z" fill="#F1F2FD"/>
<path d="M231.79 157.435H237.3V160.421H231.79V157.435Z" fill="#F1F2FD"/>
<path d="M221.589 165.293H227.099V168.279H221.589V165.293Z" fill="#F1F2FD"/>
<path d="M231.79 165.293H237.3V168.279H231.79V165.293Z" fill="#F1F2FD"/>
<path d="M182.792 96.0732H192.191V100.372H182.792V96.0732Z" fill="#F1F2FD"/>
<path d="M182.792 103.424H186.244V107.723H182.792V103.424Z" fill="#F1F2FD"/>
<path d="M188.738 103.424H192.19V107.723H188.738V103.424Z" fill="#F1F2FD"/>
<path d="M182.792 111.92H192.191V116.219H182.792V111.92Z" fill="#F1F2FD"/>
<path d="M182.792 119.271H186.244V123.57H182.792V119.271Z" fill="#F1F2FD"/>
<path d="M188.738 119.271H192.19V123.57H188.738V119.271Z" fill="#F1F2FD"/>
<path d="M182.792 127.767H192.191V132.065H182.792V127.767Z" fill="#F1F2FD"/>
<path d="M182.792 135.121H186.244V139.42H182.792V135.121Z" fill="#F1F2FD"/>
<path d="M188.738 135.121H192.19V139.42H188.738V135.121Z" fill="#F1F2FD"/>
<path d="M182.792 143.487H192.191V147.785H182.792V143.487Z" fill="#F1F2FD"/>
<path d="M182.792 150.841H186.244V155.14H182.792V150.841Z" fill="#F1F2FD"/>
<path d="M188.738 150.841H192.19V155.14H188.738V150.841Z" fill="#F1F2FD"/>
<path d="M182.792 159.21H192.191V163.509H182.792V159.21Z" fill="#F1F2FD"/>
<path d="M169.804 59.5389H250.674L253.853 54.9773H166.625L169.804 59.5389Z" fill="#3EA8D0"/>
<path d="M169.804 67.3276H250.674L253.853 62.7628H166.625L169.804 67.3276Z" fill="#3EA8D0"/>
<path d="M169.804 75.1163H250.674L253.853 70.5515H166.625L169.804 75.1163Z" fill="#3EA8D0"/>
<path d="M169.804 82.9018H250.674L253.853 78.3402H166.625L169.804 82.9018Z" fill="#3EA8D0"/>
<path d="M184.652 82.9019H186.282V102.946H184.652V82.9019Z" fill="#3EA8D0"/>
<path d="M187.353 102.169C187.353 101.127 186.509 100.283 185.467 100.283C184.426 100.283 183.581 101.127 183.581 102.169V105.628C183.581 106.669 184.426 107.514 185.467 107.514C186.509 107.514 187.353 106.669 187.353 105.628V102.169Z" fill="#3EA8D0"/>
</svg>
