<svg width="376" height="202" viewBox="0 0 376 202" fill="none" xmlns="http://www.w3.org/2000/svg">
<g clip-path="url(#clip0_773_2805)">
<path d="M366.6 98.2188C366.6 82.8318 354.023 70.3582 338.509 70.3582H263.156C255.102 70.3582 248.573 63.8832 248.573 55.8958C248.573 47.9085 255.102 41.4334 263.156 41.4334H283.496C294.776 41.4334 303.92 32.3644 303.92 21.1773C303.92 9.99012 294.776 0.921143 283.496 0.921143H54.2693C48.4762 0.921143 43.78 5.57878 43.78 11.3243C43.78 17.0734 48.4726 21.7374 54.2693 21.7497L112.13 21.8716C117.196 21.8823 121.354 25.8505 121.556 30.8703C121.56 30.9673 121.564 31.0644 121.568 31.1616C121.797 36.8109 117.322 41.4333 111.621 41.4333L79.6506 41.4332C70.2792 41.4332 62.6821 48.9726 62.6821 58.2671C62.6821 58.5446 62.6821 58.6977 62.6821 58.6977C62.6821 68.3645 70.514 76.1321 80.1751 76.1321H136.227C144.142 76.1321 150.559 82.4961 150.559 90.3465C150.559 98.197 144.142 104.561 136.227 104.561H56.3572C46.0426 104.561 37.681 112.854 37.681 123.084C37.681 133.314 46.0426 141.607 56.3572 141.607H86.2498C95.4329 141.607 102.877 148.99 102.877 158.098C102.877 167.205 95.4329 174.588 86.2498 174.588H23.2156C15.5854 174.588 9.3999 180.723 9.3999 188.291C9.3999 195.858 15.5854 201.993 23.2156 201.993H306.149C319.563 201.993 330.437 191.208 330.437 177.905C330.437 164.601 319.563 153.816 306.149 153.816H269.89C262.168 153.816 255.907 147.607 255.907 139.948C255.907 132.288 262.168 126.079 269.89 126.079H338.509C354.023 126.079 366.6 113.606 366.6 98.2188Z" fill="#EFEFFC"/>
<path d="M279.605 183.684C275.542 169.718 260.049 162.374 245.664 159.59C231.28 156.805 215.922 156.674 203.11 149.616C185.638 139.991 176.842 119.679 160.652 108.057C156.173 104.842 151.305 102.408 146.185 100.557C143.606 103.032 140.099 104.561 136.227 104.561H56.3572C46.0426 104.561 37.681 112.854 37.681 123.084C37.681 133.314 46.0426 141.607 56.3572 141.607H86.2499C95.433 141.607 102.877 148.99 102.877 158.098C102.877 167.205 95.433 174.589 86.2499 174.589H23.2156C15.5854 174.589 9.3999 180.723 9.3999 188.291C9.3999 195.859 15.5854 201.993 23.2156 201.993H284.76L279.605 183.684Z" fill="#618BD6"/>
<path d="M118.522 112.306C116.581 112.063 114.69 112.099 112.854 112.438C106.729 113.567 102.756 119.494 103.747 125.593C107.139 146.469 110.457 192.88 106.054 201.993H120.943C120.943 201.993 131.021 146.307 128.623 122.576C128.084 117.24 123.887 112.978 118.522 112.306Z" fill="#5B75AE"/>
<path d="M115.285 153.712C116.502 155.636 119.061 156.217 121.001 155.01C122.941 153.804 123.527 151.266 122.311 149.342C121.094 147.418 118.535 146.836 116.595 148.043C114.655 149.25 114.069 151.788 115.285 153.712Z" fill="#9CB2D5"/>
<path d="M106.014 143.596C106.747 144.027 107.601 144.279 108.515 144.279C111.232 144.279 113.434 142.094 113.434 139.4C113.434 136.705 111.232 134.521 108.515 134.521C107.218 134.521 106.042 135.022 105.164 135.835C105.459 138.298 105.744 140.901 106.014 143.596Z" fill="#9CB2D5"/>
<path d="M117.694 127.821C117.694 131.521 120.718 134.521 124.449 134.521C126.196 134.521 127.783 133.857 128.982 132.778C129.027 128.993 128.922 125.536 128.623 122.576C128.622 122.57 128.621 122.565 128.621 122.559C127.471 121.662 126.025 121.122 124.449 121.122C120.718 121.122 117.694 124.121 117.694 127.821Z" fill="#9CB2D5"/>
<path d="M123.875 183.993C121.836 182.228 118.798 181.908 116.387 183.408C113.44 185.241 112.549 189.097 114.398 192.02C116.074 194.671 119.426 195.637 122.234 194.428C122.706 191.558 123.273 188.004 123.875 183.993Z" fill="#9CB2D5"/>
<path d="M115.27 170.058C115.27 166.358 112.246 163.358 108.515 163.358C108.196 163.358 107.884 163.388 107.577 163.43C107.838 167.988 108.025 172.489 108.112 176.737C108.246 176.745 108.379 176.757 108.515 176.757C112.246 176.757 115.27 173.758 115.27 170.058Z" fill="#9CB2D5"/>
<path d="M187.273 159.429L186.843 160.012C185.647 161.633 183.287 161.912 181.735 160.543C180.382 159.35 180.269 157.282 181.338 155.833L185.584 150.077C186.62 148.674 187.204 146.989 187.228 145.251C187.229 145.207 187.229 145.173 187.229 145.149L186.934 126.807C186.879 123.343 189.282 120.205 192.723 119.603C197.07 118.843 200.948 122.137 201.017 126.368L201.266 141.876C205.539 141.876 208.466 146.652 208.917 150.867C209.368 155.082 206.959 159.456 203.139 161.356C198.314 163.756 192.671 159.429 187.273 159.429Z" fill="#DFA2A2"/>
<path d="M147.949 108.142C145.431 108.142 142.945 107.008 141.318 104.86L125.447 81.4699C122.595 77.7075 123.493 72.3059 127.511 69.6695C131.219 67.2365 136.246 68.3602 138.876 71.9148L150.209 87.2293L177.715 68.6898C188.743 69.6586 192.565 83.6656 186.733 87.9079L152.843 106.549C151.367 107.623 149.65 108.142 147.949 108.142Z" fill="#3EA8D0"/>
<path d="M122.357 75.3412L126.44 80.7295C127.824 82.5562 129.937 83.5185 132.076 83.5185C133.549 83.5185 135.035 83.0619 136.303 82.1168C139.413 79.7985 140.039 75.4191 137.702 72.3351L133.618 66.9468C135.106 65.5474 135.693 63.8312 135.756 61.7986C135.82 59.7661 134.773 57.6627 132.953 56.7265C131.133 55.7904 128.609 56.2717 127.481 57.9694C127.377 54.6749 123.728 52.2321 120.405 52.3122C117.083 52.3923 114.097 54.5505 112.182 57.2442C109.309 61.2851 108.524 66.9216 110.902 71.2673C113.28 75.6131 117.786 77.316 122.357 75.3412Z" fill="#DFA2A2"/>
<path d="M217.566 140.787C217.468 140.787 217.372 140.787 217.275 140.784C210.869 140.628 205.805 135.351 205.962 128.999L206.635 101.838C206.793 95.4846 212.14 90.4723 218.518 90.6176C224.924 90.7741 229.988 96.0504 229.831 102.403L229.158 129.564C229.003 135.82 223.84 140.787 217.566 140.787Z" fill="#2C384F"/>
<path d="M264.136 95.3699C268.071 95.3699 271.261 92.2061 271.261 88.3035C271.261 84.4008 268.071 81.2371 264.136 81.2371C260.201 81.2371 257.011 84.4008 257.011 88.3035C257.011 92.2061 260.201 95.3699 264.136 95.3699Z" fill="#DFA2A2"/>
<path d="M230.351 126.504C243.122 107.291 250.344 96.4245 258.187 84.6248L270.68 91.3063C265.049 104.289 259.864 116.244 250.695 137.384L230.351 126.504Z" fill="#DFA2A2"/>
<path d="M240.473 132.14L250.987 137.763C260.288 116.32 265.548 104.192 271.26 91.023L267.377 88.9463C261.524 98.1742 248.02 119.95 240.473 132.14Z" fill="#BE7171"/>
<path d="M295.108 55.9147C295.108 53.1096 292.816 50.8356 289.987 50.8356C288.791 50.8356 287.705 51.2593 286.833 51.941L286.854 51.8972C284.424 53.7616 281.309 52.3031 281.217 49.257L281.206 49.2799C281.135 46.5362 278.882 44.3306 276.098 44.3306C273.855 44.3306 272.344 45.9436 271.26 47.756C269.257 51.1063 254.825 82.7268 254.825 88.3034C254.825 93.4033 258.993 97.5376 264.135 97.5376C267.459 97.5376 270.368 95.8047 272.016 93.2056C280.95 82.962 293.233 62.0025 294.635 58.0384C294.936 57.3916 295.108 56.6739 295.108 55.9147Z" fill="#425273"/>
<path d="M235.989 78.9146C239.596 78.9146 242.52 76.0146 242.52 72.4373C242.52 68.86 239.596 65.96 235.989 65.96C232.382 65.96 229.458 68.86 229.458 72.4373C229.458 76.0146 232.382 78.9146 235.989 78.9146Z" fill="#DFA2A2"/>
<path d="M217.291 99.7924C222.477 87.6871 226.128 79.1634 230.014 70.094L242.39 74.0733C240.267 83.2679 238.265 91.933 235.5 103.902C234.468 108.371 215.659 103.601 217.291 99.7924Z" fill="#DFA2A2"/>
<path d="M237.157 72.3907L227.158 105.32C231.207 106.043 235.05 105.854 235.5 103.902C238.265 91.9329 240.267 83.2679 242.391 74.0732L237.157 72.3907Z" fill="#BE7171"/>
<path d="M258.526 38.1637C258.059 35.6345 255.614 33.9594 253.063 34.4224C251.985 34.6182 251.076 35.178 250.403 35.9354L250.415 35.8924C248.534 37.9714 245.483 37.166 244.893 34.4347L244.887 34.4571C244.367 31.9949 241.968 30.375 239.458 30.8306C237.435 31.1979 236.341 32.8996 235.666 34.7111C234.417 38.0598 226.666 68.933 227.595 73.9612C228.443 78.5595 232.89 81.6048 237.526 80.7631C240.523 80.2189 242.661 78.0935 243.91 75.5672C249.424 64.4212 257.848 43.9598 258.452 40.1561C258.616 39.5236 258.652 38.8482 258.526 38.1637Z" fill="#425273"/>
<path d="M237.165 42.1482L234.301 54.3363C233.9 56.0437 234.971 57.7502 236.692 58.148C238.414 58.5458 240.134 57.4842 240.535 55.7769L243.399 43.5888C243.8 41.8814 242.729 40.1748 241.008 39.777C239.287 39.3792 237.566 40.4408 237.165 42.1482Z" fill="#5E74A3"/>
<path d="M240.039 144.346C235.341 144.346 230.919 141.494 229.173 136.874L215.095 99.605C212.847 93.6537 215.889 87.0226 221.889 84.7934C227.888 82.5626 234.575 85.5808 236.823 91.5308L250.902 128.8C253.15 134.751 250.108 141.382 244.108 143.612C242.767 144.109 241.391 144.346 240.039 144.346Z" fill="#425273"/>
<path d="M235.146 121.424C234.511 119.665 232.558 118.75 230.784 119.38C229.011 120.01 228.088 121.947 228.723 123.706L233.112 135.863C233.748 137.622 235.7 138.537 237.474 137.907C239.248 137.277 240.171 135.341 239.536 133.581L235.146 121.424Z" fill="#5E74A3"/>
<path d="M215.323 114.872C192.511 114.872 174.658 103.724 166.603 83.9531C163.26 75.7465 167.257 66.4058 175.532 63.0898C183.806 59.773 193.224 63.7379 196.568 71.9445C201.277 83.5036 212.569 83.4884 220.656 82.471C229.516 81.3542 237.598 87.5728 238.72 96.3529C239.843 105.133 233.576 113.155 224.723 114.269C221.511 114.673 218.371 114.872 215.323 114.872Z" fill="#425273"/>
<path d="M210.387 114.685C209.878 114.685 209.365 114.662 208.847 114.614C189.189 112.772 173.792 101.596 166.603 83.9531C163.26 75.7465 167.257 66.4058 175.531 63.0898C183.806 59.773 193.223 63.7379 196.568 71.9445C199.262 78.5575 204.129 81.9758 211.887 82.7026C220.772 83.5349 227.294 91.3535 226.455 100.165C225.664 108.464 218.626 114.685 210.387 114.685Z" fill="#5BBEE5"/>
<path d="M179.973 30.4252C169.282 21.5617 147.819 24.5611 150.427 43.784L182.681 69.2033C189.776 69.2033 197.804 58.653 192.308 50.1133C193.437 42.1404 192.308 32.0454 179.973 30.4252Z" fill="#323D54"/>
<path d="M178.657 76.7339C174.058 79.0296 168.454 77.193 166.139 72.6319L156.56 53.7546L173.214 45.4414L182.793 64.3187C185.108 68.8798 183.256 74.4383 178.657 76.7339Z" fill="#DFA2A2"/>
<path d="M169.207 47.4417L156.56 53.7547L166.139 72.632C166.399 73.1441 166.706 73.6165 167.043 74.0579C171.021 72.3672 173.994 68.6624 174.493 64.0906L175.181 57.8279C171.929 56.6042 168.955 52.6197 169.207 47.4417Z" fill="#BE7171"/>
<path d="M177.714 52.6559L177.027 58.9186C176.289 65.6661 170.173 70.5397 163.37 69.8083L161.564 69.611C154.71 68.8796 149.755 62.7649 150.501 55.968L151.694 45.0208C151.698 44.9867 151.702 44.9526 151.706 44.9186C152.382 39.1515 157.754 35.0556 163.583 35.6009C166.15 35.8411 168.789 36.7326 171.042 38.6436C171.706 39.206 171.995 40.0877 171.865 40.9435C170.981 46.7623 174.189 51.3294 177.714 52.6559Z" fill="#DFA2A2"/>
<path d="M182.096 58.023C184.318 56.6314 185.169 54.0102 183.997 52.1685C182.824 50.3268 180.072 49.962 177.85 51.3537C175.628 52.7454 174.777 55.3665 175.949 57.2082C177.122 59.0499 179.874 59.4147 182.096 58.023Z" fill="#DFA2A2"/>
<path d="M170.95 65.5719C170.41 65.5719 169.868 65.5422 169.324 65.4816L158.42 64.2701C157.283 64.1437 156.464 63.1272 156.591 61.9995C156.718 60.8723 157.742 60.0576 158.881 60.1865L169.785 61.398C172.509 61.701 175.179 60.9293 177.311 59.2273C179.443 57.525 180.775 55.1008 181.059 52.4L183.907 25.3406C184.026 24.2126 185.047 23.3947 186.183 23.5107C187.321 23.6283 188.147 24.6388 188.028 25.7676L185.18 52.827C184.78 56.6249 182.908 60.0348 179.908 62.4289C177.335 64.4824 174.203 65.5719 170.95 65.5719Z" fill="#E2E8FD"/>
<path d="M176.57 52.6877C175.555 52.6877 174.667 52.646 173.962 52.5609C172.598 52.3964 171.628 51.1672 171.794 49.8156C171.96 48.4636 173.203 47.5 174.562 47.6658C177.956 48.0739 187.334 47.1497 191.322 45.4406C192.583 44.8992 194.045 45.4767 194.59 46.7259C195.135 47.9756 194.555 49.4271 193.295 49.9673C189.197 51.7238 181.442 52.6877 176.57 52.6877Z" fill="#5BBEE5"/>
<path d="M170.284 60.2964C169.976 60.2964 169.664 60.2714 169.358 60.2222L165.659 59.6256C164.326 59.4108 163.103 58.8096 162.123 57.887L160.625 56.4757C160.132 56.0116 159.515 55.7161 158.842 55.6214L158.566 55.5826C158.415 55.5614 158.262 55.5509 158.11 55.5509C157.517 55.5509 156.936 55.7119 156.428 56.0162C155.383 56.6429 154.185 56.9739 152.964 56.9739C152.278 56.9739 151.598 56.8701 150.944 56.6645C148.534 55.9078 146.95 53.6318 147.091 51.1294L147.325 46.971C147.5 43.8657 150.091 41.4333 153.223 41.4333C153.403 41.4333 153.585 41.4413 153.769 41.458L167.816 42.7375C172.478 43.1619 175.992 46.9827 175.992 51.6247V54.6262C175.992 57.7527 173.431 60.2964 170.284 60.2964Z" fill="#3F6381"/>
<path d="M168.425 60.2965C168.128 60.2965 167.828 60.2724 167.534 60.225L163.972 59.6508C162.689 59.4441 161.512 58.8654 160.57 57.9774L159.127 56.6189C158.652 56.1723 158.059 55.8878 157.411 55.7967L157.146 55.7593C157 55.7389 156.853 55.7288 156.707 55.7288C156.136 55.7288 155.577 55.8837 155.088 56.1767C154.082 56.7798 152.929 57.0985 151.753 57.0985C151.093 57.0985 150.439 56.9986 149.809 56.8007C147.49 56.0724 145.965 53.8817 146.101 51.473L146.326 47.4705C146.494 44.4816 148.988 42.1404 152.003 42.1404C152.176 42.1404 152.352 42.148 152.528 42.1641L166.049 43.3956C170.536 43.8042 173.919 47.4817 173.919 51.9498V54.8387C173.919 57.8481 171.454 60.2965 168.425 60.2965Z" fill="#C7E3F7"/>
<path d="M152.377 43.8012L165.898 45.0326C169.503 45.3609 172.261 48.3597 172.261 51.95V54.8389C172.261 57.1892 170.139 58.98 167.799 58.6028L164.238 58.0285C163.289 57.8754 162.408 57.4422 161.711 56.7854L160.268 55.427C159.546 54.7474 158.629 54.3079 157.644 54.1694L157.379 54.1322C156.287 53.9787 155.174 54.2041 154.231 54.7701C153.052 55.4771 151.623 55.646 150.309 55.2337C148.713 54.7327 147.662 53.2229 147.755 51.5651L147.981 47.5619C148.108 45.3 150.102 43.594 152.377 43.8012Z" fill="#86B8F1"/>
<path d="M154.676 49.4735C154.712 48.6806 154.301 48.0179 153.756 47.9932C153.212 47.9686 152.741 48.5913 152.705 49.3841C152.668 50.1769 153.08 50.8396 153.624 50.8643C154.168 50.889 154.639 50.2663 154.676 49.4735Z" fill="#232C45"/>
<path d="M166.327 51.5943C166.363 50.8015 165.952 50.1388 165.407 50.1141C164.863 50.0894 164.392 50.7121 164.355 51.5049C164.319 52.2977 164.731 52.9604 165.275 52.9851C165.819 53.0098 166.29 52.3871 166.327 51.5943Z" fill="#232C45"/>
<path d="M155.899 47.4965C155.787 47.4965 155.675 47.452 155.594 47.3637C154.216 45.8777 152.529 46.2641 151.789 46.8573C151.611 47.0001 151.35 46.972 151.206 46.7955C151.063 46.6189 151.091 46.3601 151.269 46.2176C152.491 45.2401 154.636 45.1144 156.204 46.8075C156.359 46.9748 156.347 47.2345 156.179 47.3882C156.099 47.4609 155.999 47.4965 155.899 47.4965Z" fill="#232C45"/>
<path d="M168.717 49.5708C168.594 49.5708 168.472 49.5166 168.391 49.4135C167.769 48.627 167.019 48.1803 166.22 48.1217C165.54 48.0695 164.844 48.3159 164.356 48.775C164.19 48.9303 163.928 48.9243 163.77 48.759C163.613 48.594 163.62 48.334 163.786 48.1779C164.452 47.5539 165.365 47.2401 166.281 47.3019C167.005 47.3552 168.072 47.6771 169.043 48.9063C169.184 49.0853 169.152 49.3433 168.972 49.4834C168.896 49.5424 168.806 49.5708 168.717 49.5708Z" fill="#232C45"/>
<path d="M193.647 145.607C188.325 145.607 183.968 142.013 183.883 137.519L182.682 74.1892C182.596 69.6505 186.899 65.9128 192.294 65.8405C197.712 65.743 202.131 69.3881 202.217 73.9268L203.418 137.258C203.504 141.796 199.201 145.533 193.806 145.606C193.753 145.607 193.7 145.607 193.647 145.607Z" fill="#3EA8D0"/>
<path d="M199.086 75.8732C199.086 73.9498 197.514 72.3906 195.575 72.3906C193.635 72.3906 192.063 73.9498 192.063 75.8732V99.087C192.063 101.01 193.635 102.57 195.575 102.57C197.514 102.57 199.086 101.01 199.086 99.087V75.8732Z" fill="#9DD8EF"/>
<path d="M198.544 22.8591C196.982 22.8591 195.715 24.1154 195.715 25.665C195.715 27.2146 196.982 28.4709 198.544 28.4709C200.107 28.4709 201.373 27.2146 201.373 25.665C201.373 24.1153 200.107 22.8591 198.544 22.8591Z" fill="#5BBEE5"/>
<path d="M178.544 21.1365C177.771 21.1365 177.144 21.7581 177.144 22.5248C177.144 23.2916 177.771 23.9132 178.544 23.9132C179.317 23.9132 179.944 23.2916 179.944 22.5248C179.944 21.758 179.317 21.1365 178.544 21.1365Z" fill="#5BBEE5"/>
<path d="M197.803 -1.85547C197.03 -1.85547 196.404 -1.23386 196.404 -0.467112C196.404 0.299634 197.03 0.921279 197.803 0.921279C198.577 0.921279 199.203 0.299672 199.203 -0.467112C199.203 -1.2339 198.577 -1.85547 197.803 -1.85547Z" fill="#5BBEE5"/>
<path d="M195.575 11.0181C193.935 11.0181 192.605 12.3366 192.605 13.963C192.605 15.5895 193.935 16.908 195.575 16.908C197.214 16.908 198.544 15.5895 198.544 13.963C198.544 12.3365 197.215 11.0181 195.575 11.0181Z" fill="#5BBEE5"/>
<path d="M188.835 6.53906C188.006 6.53906 187.335 7.20524 187.335 8.02699C187.335 8.84874 188.006 9.5149 188.835 9.5149C189.664 9.5149 190.335 8.84874 190.335 8.02699C190.335 7.20524 189.664 6.53906 188.835 6.53906Z" fill="#5BBEE5"/>
<path d="M183.221 12.7056C181.701 12.7056 180.469 13.9279 180.469 15.4357C180.469 16.9436 181.701 18.1659 183.221 18.1659C184.742 18.1659 185.974 16.9436 185.974 15.4357C185.974 13.9279 184.742 12.7056 183.221 12.7056Z" fill="#5BBEE5"/>
<path d="M149.63 21.7274C150.45 21.7274 151.115 21.0682 151.115 20.255C151.115 19.4417 150.45 18.7825 149.63 18.7825C148.81 18.7825 148.145 19.4417 148.145 20.255C148.145 21.0682 148.81 21.7274 149.63 21.7274Z" fill="#5BBEE5"/>
<path d="M142.75 34.9417C144.596 34.9417 146.092 33.4577 146.092 31.6271C146.092 29.7965 144.596 28.3125 142.75 28.3125C140.904 28.3125 139.408 29.7965 139.408 31.6271C139.408 33.4577 140.904 34.9417 142.75 34.9417Z" fill="#5BBEE5"/>
<path d="M299.119 93.249C298.817 92.4816 298.381 91.752 297.795 91.1011C296.132 89.2539 293.718 88.4693 291.418 88.7922C290.835 91.0218 291.349 93.4895 293.011 95.3368C293.595 95.9853 294.275 96.495 295.006 96.8796C294.275 97.2642 293.595 97.7739 293.011 98.4224C291.349 100.27 290.835 102.737 291.418 104.967C293.718 105.29 296.132 104.505 297.795 102.658C298.351 102.041 298.777 101.354 299.077 100.63C307.953 109.351 314.581 107.576 319.268 98.8901C319.523 98.4163 319.538 97.8394 319.312 97.3507C315.323 88.6998 310.862 86.2507 299.119 93.249Z" fill="#DA7143"/>
<path d="M310.461 89.1902C308.866 91.6604 307.895 94.8666 307.895 98.3798C307.895 101.337 308.581 104.079 309.749 106.347C310.863 106.344 311.923 106.109 312.929 105.659C311.963 103.534 311.404 101.046 311.404 98.3798C311.404 95.2219 312.189 92.3151 313.507 89.9671C312.591 89.501 311.586 89.2367 310.461 89.1902Z" fill="white"/>
<path d="M302.545 97.5374C302.545 95.0105 303.178 92.6451 304.267 90.5864C303.113 91.0727 301.867 91.6909 300.521 92.4427C299.947 94.027 299.619 95.74 299.619 97.5374C299.619 98.9807 299.826 100.372 300.203 101.685C301.676 103.013 303.085 104.046 304.431 104.796C303.238 102.668 302.545 100.19 302.545 97.5374Z" fill="white"/>
<path d="M132.864 134.521C129.512 137.26 112.098 184.864 115.485 201.993H130.029C130.083 184.967 148.042 153.508 153.347 144.435L132.864 134.521Z" fill="#837237"/>
<path d="M147.33 147.566C145.114 147.566 142.526 146.903 140.043 145.701C134.014 142.783 131.061 138.185 132.864 134.521C133.844 132.531 136.036 131.391 138.881 131.391C141.096 131.391 143.684 132.053 146.168 133.255C152.198 136.175 155.149 140.772 153.347 144.435C152.368 146.425 150.174 147.566 147.33 147.566Z" fill="#B29C58"/>
<path d="M144.714 136.21C140.703 134.268 136.732 134.158 135.843 135.963C134.955 137.768 137.486 140.805 141.497 142.747C145.508 144.689 149.48 144.799 150.368 142.994C151.256 141.189 148.725 138.151 144.714 136.21Z" fill="#694D29"/>
<path d="M125.45 195.951C126.834 195.951 127.956 194.549 127.956 192.82C127.956 191.09 126.834 189.689 125.45 189.689C124.067 189.689 122.945 191.09 122.945 192.82C122.945 194.549 124.067 195.951 125.45 195.951Z" fill="#B29C58"/>
<path d="M119.41 183.17C121.697 183.17 123.55 180.987 123.55 178.294C123.55 175.601 121.697 173.418 119.41 173.418C119.167 173.418 118.93 173.448 118.698 173.495C117.973 176.391 117.32 179.268 116.774 182.054C117.49 182.751 118.409 183.17 119.41 183.17Z" fill="#B29C58"/>
<path d="M136.831 167.464C134.702 167.464 132.976 169.176 132.976 171.288C132.976 173.4 134.702 175.112 136.831 175.112C137.083 175.112 137.328 175.084 137.566 175.038C138.395 173.123 139.256 171.219 140.135 169.345C139.463 168.224 138.242 167.464 136.831 167.464Z" fill="#B29C58"/>
<path d="M145.655 155.094C142.453 155.094 139.858 156.944 139.858 159.226C139.858 160.891 141.243 162.323 143.233 162.977C144.613 160.237 145.976 157.637 147.26 155.258C146.75 155.154 146.212 155.094 145.655 155.094Z" fill="#B29C58"/>
<path d="M129.626 152.204C128.884 150.258 127.776 148.708 126.677 147.903C125.886 150.024 125.068 152.322 124.25 154.737C125.513 157.719 127.618 159.652 129.081 159.103C130.616 158.527 130.86 155.438 129.626 152.204Z" fill="#B29C58"/>
<path d="M76.4798 130.807C71.595 132.916 68.1812 136.269 67.0094 141.131C66.3361 143.925 67.4041 146.834 69.6722 148.62C83.5681 159.565 98.2023 182.523 97.6827 201.993H109.96C109.96 201.993 111.815 161.222 84.8742 132.56C82.7312 130.28 79.3614 129.563 76.4798 130.807Z" fill="#B97B36"/>
<path d="M93.6368 151.457C95.02 151.457 96.2747 150.768 97.2145 149.65C95.2873 146.138 93.069 142.654 90.5203 139.271C89.2185 140.5 88.3701 142.473 88.3701 144.705C88.3701 148.434 90.7282 151.457 93.6368 151.457Z" fill="#D79554"/>
<path d="M99.6277 201.572C101.582 201.572 103.166 200.409 103.166 198.975C103.166 197.54 101.582 196.377 99.6277 196.377C98.8181 196.377 98.081 196.585 97.4849 196.921C97.6245 198.341 97.691 199.75 97.685 201.143C98.2431 201.413 98.9094 201.572 99.6277 201.572Z" fill="#D79554"/>
<path d="M83.6533 154.911C82.5451 152.577 78.8378 151.996 75.3728 153.614C75.3419 153.629 75.3134 153.645 75.2827 153.66C77.4093 155.801 79.5015 158.174 81.5036 160.729C83.564 159.021 84.507 156.709 83.6533 154.911Z" fill="#D79554"/>
<path d="M99.9496 185.221C102.443 185.221 104.464 183.422 104.464 181.202C104.464 178.983 102.443 177.184 99.9496 177.184C97.4565 177.184 95.4355 178.983 95.4355 181.202C95.4355 183.422 97.4565 185.221 99.9496 185.221Z" fill="#D79554"/>
<path d="M103.77 164.485C103.695 164.48 103.624 164.459 103.548 164.459C101.561 164.459 99.9495 166.347 99.9495 168.676C99.9495 171.005 101.561 172.894 103.548 172.894C104.502 172.894 105.363 172.451 106.007 171.741C105.368 169.38 104.628 166.953 103.77 164.485Z" fill="#D79554"/>
<path d="M282.127 174.034C261.268 179.125 244.293 189.756 235.122 201.993H306.149C319.563 201.993 330.437 191.208 330.437 177.905C330.437 176.759 330.351 175.633 330.195 174.53C316.955 170.221 299.849 169.709 282.127 174.034Z" fill="#83A6E6"/>
</g>
<defs>
<clipPath id="clip0_773_2805">
<rect width="376" height="201" fill="white" transform="translate(0 0.874023)"/>
</clipPath>
</defs>
</svg>
