<svg width="376" height="323" viewBox="0 0 376 323" fill="none" xmlns="http://www.w3.org/2000/svg">
<path d="M157.497 72.0337L155.108 66.7254C156.303 64.1809 156.843 61.2703 156.43 58.1886C155.486 51.1368 149.642 45.5566 142.531 44.9511C132.888 44.1298 124.898 52.1806 125.867 61.8202C126.577 68.8823 132.235 74.6295 139.305 75.4677C143.618 75.979 147.615 74.6954 150.682 72.2876L156.729 73.0647C157.301 73.1382 157.733 72.5584 157.497 72.0337Z" fill="#D7F3FE"/>
<path d="M144.468 54.5727C144.468 57.9525 143.149 63.8549 141.521 63.8549C139.894 63.8549 138.574 57.9525 138.574 54.5727C138.574 51.193 139.894 48.4532 141.521 48.4532C143.149 48.4532 144.468 51.193 144.468 54.5727Z" fill="#3EA8D0"/>
<path d="M141.521 69.7478C142.584 69.7478 143.446 68.8888 143.446 67.8292C143.446 66.7695 142.584 65.9105 141.521 65.9105C140.458 65.9105 139.597 66.7695 139.597 67.8292C139.597 68.8888 140.458 69.7478 141.521 69.7478Z" fill="#3EA8D0"/>
<path d="M344.517 202.386H291.439C279.94 202.386 270.619 193.094 270.619 181.631V176.661C270.619 165.198 279.94 155.906 291.439 155.906C304.584 155.906 315.241 145.282 315.241 132.177C315.241 119.072 304.584 108.449 291.439 108.449H73.5112C60.3657 108.449 49.7092 119.072 49.7092 132.177C49.7092 145.282 60.3657 155.906 73.5112 155.906H83.2848C96.1597 155.906 106.597 166.311 106.597 179.146C106.597 191.981 96.1597 202.386 83.2848 202.386H33.6769C20.5315 202.386 9.875 213.01 9.875 226.115C9.875 239.219 20.5315 249.843 33.6769 249.843H76.0852C88.7611 249.843 99.0369 260.087 99.0369 272.724C99.0369 285.361 109.313 295.605 121.989 295.605H297.199C309.875 295.605 320.15 285.361 320.15 272.724C320.15 260.087 330.426 249.843 343.102 249.843H344.517C356.451 249.843 366.125 240.198 366.125 228.301V223.928C366.125 212.031 356.451 202.386 344.517 202.386Z" fill="white"/>
<mask id="mask0_462_3415" style="mask-type:luminance" maskUnits="userSpaceOnUse" x="9" y="108" width="357" height="188">
<path d="M344.142 202.601H291.064C279.565 202.601 270.244 193.308 270.244 181.846V176.876C270.244 165.413 279.565 156.121 291.064 156.121C304.209 156.121 314.866 145.497 314.866 132.392C314.866 119.287 304.209 108.664 291.064 108.664H73.1362C59.9907 108.664 49.3342 119.287 49.3342 132.392C49.3342 145.497 59.9907 156.121 73.1362 156.121H82.9098C95.7847 156.121 106.222 166.526 106.222 179.361C106.222 192.196 95.7847 202.601 82.9098 202.601H33.3019C20.1565 202.601 9.5 213.224 9.5 226.329C9.5 239.434 20.1565 250.058 33.3019 250.058H75.7102C88.3861 250.058 98.6619 260.302 98.6619 272.939C98.6619 285.575 108.938 295.82 121.614 295.82H296.824C309.5 295.82 319.775 285.575 319.775 272.939C319.775 260.302 330.051 250.058 342.727 250.058H344.142C356.076 250.058 365.75 240.413 365.75 228.516V224.142C365.75 212.245 356.076 202.601 344.142 202.601Z" fill="white"/>
</mask>
<g mask="url(#mask0_462_3415)">
<path d="M82.8643 124.878L136.25 116.297C138.051 116.008 139.683 117.394 139.683 119.212V295.808H80.374V127.793C80.374 126.344 81.4292 125.109 82.8643 124.878Z" fill="#D7F3FE"/>
<path d="M106.597 164.938H91.4771V180.011H106.597V164.938Z" fill="#3EA8D0"/>
<path d="M130.698 164.938H115.578V180.011H130.698V164.938Z" fill="#3EA8D0"/>
<path d="M106.597 136.377H91.4771V151.451H106.597V136.377Z" fill="#3EA8D0"/>
<path d="M130.698 136.377H115.578V151.451H130.698V136.377Z" fill="#3EA8D0"/>
<path d="M106.597 190.163H91.4771V205.236H106.597V190.163Z" fill="#3EA8D0"/>
<path d="M130.698 190.163H115.578V205.236H130.698V190.163Z" fill="#3EA8D0"/>
<path d="M106.597 215.387H91.4771V230.46H106.597V215.387Z" fill="#3EA8D0"/>
<path d="M130.698 215.387H115.578V230.46H130.698V215.387Z" fill="#3EA8D0"/>
<path d="M106.597 240.611H91.4771V255.684H106.597V240.611Z" fill="#3EA8D0"/>
<path d="M130.698 240.611H115.578V255.684H130.698V240.611Z" fill="#3EA8D0"/>
<path d="M106.597 265.836H91.4771V280.909H106.597V265.836Z" fill="#3EA8D0"/>
<path d="M130.698 265.836H115.578V280.909H130.698V265.836Z" fill="#3EA8D0"/>
<path d="M234.169 136.445L308.645 149.796C310.668 150.159 312.14 151.914 312.14 153.963V295.808H229.17V140.613C229.17 137.974 231.564 135.979 234.169 136.445Z" fill="#D7F3FE"/>
<path d="M255.867 163.376H240.303V178.892H255.867V163.376Z" fill="#3EA8D0"/>
<path d="M278.437 163.376H262.873V178.892H278.437V163.376Z" fill="#3EA8D0"/>
<path d="M301.007 163.376H285.443V178.892H301.007V163.376Z" fill="#3EA8D0"/>
<path d="M255.867 195.095H240.303V210.611H255.867V195.095Z" fill="#3EA8D0"/>
<path d="M278.437 195.095H262.873V210.611H278.437V195.095Z" fill="#3EA8D0"/>
<path d="M301.007 195.095H285.443V210.611H301.007V195.095Z" fill="#3EA8D0"/>
<path d="M255.867 226.814H240.303V242.33H255.867V226.814Z" fill="#3EA8D0"/>
<path d="M278.437 226.814H262.873V242.33H278.437V226.814Z" fill="#3EA8D0"/>
<path d="M301.007 226.814H285.443V242.33H301.007V226.814Z" fill="#3EA8D0"/>
<path d="M255.867 258.533H240.303V274.049H255.867V258.533Z" fill="#3EA8D0"/>
<path d="M278.437 258.533H262.873V274.049H278.437V258.533Z" fill="#3EA8D0"/>
<path d="M301.007 258.533H285.443V274.049H301.007V258.533Z" fill="#3EA8D0"/>
</g>
<path d="M70.1078 290.27C76.8834 290.27 82.3762 284.794 82.3762 278.039C82.3762 271.284 76.8834 265.809 70.1078 265.809C63.3321 265.809 57.8394 271.284 57.8394 278.039C57.8394 284.794 63.3321 290.27 70.1078 290.27Z" fill="white"/>
<path d="M299.862 193.329C306.638 193.329 312.131 187.853 312.131 181.098C312.131 174.343 306.638 168.868 299.862 168.868C293.087 168.868 287.594 174.343 287.594 181.098C287.594 187.853 293.087 193.329 299.862 193.329Z" fill="white"/>
<path d="M349.959 287.657C356.735 287.657 362.228 282.181 362.228 275.426C362.228 268.672 356.735 263.196 349.959 263.196C343.184 263.196 337.691 268.672 337.691 275.426C337.691 282.181 343.184 287.657 349.959 287.657Z" fill="white"/>
<path d="M213.062 284.82L229.09 282.534L226.803 266.594L211.621 270.879L213.062 284.82Z" fill="#E9A586"/>
<path d="M212.431 278.713L228.191 276.264L226.803 266.594L211.621 270.879L212.431 278.713Z" fill="#E98E72"/>
<path d="M213.062 284.82C214.146 284.023 229.09 282.534 229.09 282.534C229.09 282.534 233.251 285.162 238.254 284.851C242.067 284.614 243.733 287.391 244.51 289.5C244.824 290.35 244.28 291.272 243.379 291.4L213.999 295.59C213.28 295.693 212.599 295.243 212.421 294.54C211.793 292.061 210.718 286.544 213.062 284.82Z" fill="#49466B"/>
<path d="M243.814 287.983C244.103 288.494 244.331 289.014 244.51 289.5C244.824 290.35 244.28 291.272 243.379 291.4L213.999 295.59C213.28 295.693 212.599 295.243 212.421 294.541C212.283 293.993 212.123 293.293 211.982 292.523L243.814 287.983Z" fill="#332D52"/>
<path d="M232.045 267.819L206.796 271.42C205.729 271.572 204.741 270.833 204.589 269.77L184.875 132.386L213.985 128.235L233.699 265.619C233.852 266.682 233.111 267.667 232.045 267.819Z" fill="#555A8B"/>
<path d="M229.272 272.777L210.852 275.404C209.654 275.575 208.545 274.746 208.373 273.552L208.042 271.242L230.798 267.996L231.13 270.306C231.301 271.5 230.469 272.606 229.272 272.777Z" fill="#666DA2"/>
<path d="M211.493 136.446C211.425 135.968 210.98 135.636 210.5 135.704C210.02 135.773 209.687 136.216 209.756 136.694L210.381 141.053C210.45 141.532 210.894 141.864 211.374 141.796C211.854 141.727 212.188 141.284 212.119 140.805L211.493 136.446Z" fill="#666DA2"/>
<path d="M212.961 146.672C212.892 146.194 212.447 145.861 211.968 145.93C211.488 145.998 211.154 146.441 211.223 146.92L211.848 151.279C211.917 151.757 212.362 152.09 212.842 152.021C213.321 151.953 213.655 151.509 213.586 151.031L212.961 146.672Z" fill="#666DA2"/>
<path d="M214.428 156.897C214.359 156.418 213.915 156.086 213.435 156.155C212.955 156.223 212.622 156.666 212.69 157.145L213.316 161.504C213.384 161.982 213.829 162.314 214.309 162.246C214.789 162.178 215.122 161.734 215.053 161.256L214.428 156.897Z" fill="#666DA2"/>
<path d="M215.895 167.122C215.827 166.644 215.382 166.311 214.902 166.38C214.422 166.448 214.089 166.891 214.157 167.37L214.783 171.729C214.852 172.207 215.296 172.539 215.776 172.471C216.256 172.403 216.589 171.959 216.521 171.481L215.895 167.122Z" fill="#666DA2"/>
<path d="M217.363 177.347C217.294 176.869 216.849 176.537 216.369 176.605C215.89 176.673 215.556 177.117 215.625 177.595L216.25 181.954C216.319 182.432 216.764 182.765 217.243 182.696C217.723 182.628 218.057 182.185 217.988 181.706L217.363 177.347Z" fill="#666DA2"/>
<path d="M218.83 187.572C218.761 187.094 218.317 186.762 217.837 186.83C217.357 186.899 217.023 187.342 217.092 187.82L217.718 192.179C217.786 192.658 218.231 192.99 218.711 192.921C219.191 192.853 219.524 192.41 219.455 191.931L218.83 187.572Z" fill="#666DA2"/>
<path d="M220.297 197.798C220.228 197.319 219.784 196.987 219.304 197.055C218.824 197.124 218.491 197.567 218.559 198.045L219.185 202.404C219.253 202.883 219.698 203.215 220.178 203.147C220.658 203.078 220.991 202.635 220.923 202.157L220.297 197.798Z" fill="#666DA2"/>
<path d="M221.764 208.022C221.696 207.544 221.251 207.212 220.771 207.28C220.291 207.349 219.958 207.792 220.027 208.27L220.652 212.629C220.721 213.108 221.165 213.44 221.645 213.371C222.125 213.303 222.459 212.86 222.39 212.381L221.764 208.022Z" fill="#666DA2"/>
<path d="M223.232 218.248C223.163 217.769 222.718 217.437 222.238 217.505C221.759 217.574 221.425 218.017 221.494 218.496L222.119 222.855C222.188 223.333 222.633 223.665 223.113 223.597C223.592 223.528 223.926 223.085 223.857 222.607L223.232 218.248Z" fill="#666DA2"/>
<path d="M224.699 228.473C224.63 227.995 224.186 227.662 223.706 227.731C223.226 227.799 222.893 228.242 222.961 228.721L223.587 233.08C223.655 233.558 224.1 233.891 224.58 233.822C225.06 233.754 225.393 233.31 225.324 232.832L224.699 228.473Z" fill="#666DA2"/>
<path d="M226.166 238.698C226.098 238.22 225.653 237.887 225.173 237.956C224.693 238.024 224.36 238.468 224.429 238.946L225.054 243.305C225.123 243.783 225.567 244.116 226.047 244.047C226.527 243.979 226.86 243.535 226.792 243.057L226.166 238.698Z" fill="#666DA2"/>
<path d="M227.634 247.316C227.565 246.838 227.12 246.505 226.64 246.574C226.161 246.642 225.827 247.086 225.896 247.564L226.521 251.923C226.59 252.401 227.035 252.734 227.514 252.665C227.994 252.597 228.328 252.153 228.259 251.675L227.634 247.316Z" fill="#666DA2"/>
<path d="M229.101 257.541C229.032 257.063 228.588 256.73 228.108 256.799C227.628 256.867 227.294 257.311 227.363 257.789L227.989 262.148C228.057 262.626 228.502 262.959 228.982 262.89C229.462 262.822 229.795 262.378 229.726 261.9L229.101 257.541Z" fill="#666DA2"/>
<path d="M215.332 80.8832L227.964 86.1781L246.464 49.1628C247.15 47.7901 248.792 47.1916 250.205 47.8L262.525 53.1076C264.029 53.7558 264.695 55.5185 263.993 56.995L241.918 103.406C239.906 107.634 234.978 109.617 230.586 107.964L207.912 99.4323C202.923 97.5549 200.283 92.1098 201.908 87.0461C203.7 81.4614 209.911 78.6105 215.332 80.8832Z" fill="#F2E6D7"/>
<path d="M218.862 97.1907C218.862 90.1201 215.234 83.8963 209.736 80.2604C206.201 80.8777 203.091 83.3604 201.908 87.046C200.283 92.1098 202.923 97.555 207.912 99.4323L218.862 103.552V97.1907Z" fill="#F2E6D7"/>
<path d="M233.301 99.9576C229.726 101.018 227.036 103.434 225.907 106.203L230.587 107.964C234.978 109.616 239.907 107.634 241.918 103.406L242.97 101.194C240.504 99.4624 236.901 98.8895 233.301 99.9576Z" fill="#FAEEDE"/>
<path d="M250.793 48.0535L252.181 45.3271C252.539 44.6231 253.383 44.3168 254.112 44.6268L263.296 48.5362C264.059 48.861 264.414 49.7409 264.089 50.502L262.893 53.3013L250.793 48.0535Z" fill="#FAEEDE"/>
<path d="M265.744 34.3975C257.873 31.9604 256.649 37.5329 257.037 39.6506C256.3 38.8339 254.978 38.6597 254.007 39.1788C253.036 39.6979 252.456 40.8232 252.502 41.9207C252.548 43.0182 253.174 44.0543 254.071 44.6928L263.61 48.7195C270.941 48.9037 273.94 36.9351 265.744 34.3975Z" fill="#E9A586"/>
<path d="M248.091 53.8293L240.89 69.349C240.288 70.6455 240.855 72.1826 242.156 72.7823C243.456 73.3819 244.998 72.8171 245.599 71.5206L252.8 56.0009C253.402 54.7045 252.835 53.1673 251.535 52.5677C250.234 51.968 248.692 52.5329 248.091 53.8293Z" fill="#FAEEDE"/>
<path d="M186.528 273.522H161.022C159.944 273.522 159.071 272.652 159.071 271.578V132.796H188.478V271.578C188.478 272.652 187.605 273.522 186.528 273.522Z" fill="#666DA2"/>
<path d="M183.078 278.039H164.471C163.261 278.039 162.28 277.062 162.28 275.856V273.522H185.268V275.856C185.268 277.062 184.288 278.039 183.078 278.039Z" fill="#555A8B"/>
<path d="M163.877 139.446C163.877 138.963 163.484 138.571 162.999 138.571C162.515 138.571 162.122 138.963 162.122 139.446V143.849C162.122 144.333 162.515 144.724 162.999 144.724C163.484 144.724 163.877 144.333 163.877 143.849V139.446Z" fill="#555A8B"/>
<path d="M163.877 149.775C163.877 149.292 163.484 148.9 162.999 148.9C162.515 148.9 162.122 149.292 162.122 149.775V154.179C162.122 154.662 162.515 155.054 162.999 155.054C163.484 155.054 163.877 154.662 163.877 154.179V149.775Z" fill="#555A8B"/>
<path d="M163.877 160.104C163.877 159.621 163.484 159.229 162.999 159.229C162.515 159.229 162.122 159.621 162.122 160.104V164.508C162.122 164.991 162.515 165.383 162.999 165.383C163.484 165.383 163.877 164.991 163.877 164.508V160.104Z" fill="#555A8B"/>
<path d="M163.877 170.434C163.877 169.95 163.484 169.559 162.999 169.559C162.515 169.559 162.122 169.95 162.122 170.434V174.837C162.122 175.32 162.515 175.712 162.999 175.712C163.484 175.712 163.877 175.32 163.877 174.837V170.434Z" fill="#555A8B"/>
<path d="M163.877 180.763C163.877 180.28 163.484 179.888 162.999 179.888C162.515 179.888 162.122 180.28 162.122 180.763V185.166C162.122 185.65 162.515 186.041 162.999 186.041C163.484 186.041 163.877 185.65 163.877 185.166V180.763Z" fill="#555A8B"/>
<path d="M163.877 191.092C163.877 190.609 163.484 190.217 162.999 190.217C162.515 190.217 162.122 190.609 162.122 191.092V195.496C162.122 195.979 162.515 196.371 162.999 196.371C163.484 196.371 163.877 195.979 163.877 195.496V191.092Z" fill="#555A8B"/>
<path d="M163.877 201.421C163.877 200.938 163.484 200.546 162.999 200.546C162.515 200.546 162.122 200.938 162.122 201.421V205.825C162.122 206.308 162.515 206.7 162.999 206.7C163.484 206.7 163.877 206.308 163.877 205.825V201.421Z" fill="#555A8B"/>
<path d="M163.877 211.751C163.877 211.267 163.484 210.876 162.999 210.876C162.515 210.876 162.122 211.267 162.122 211.751V216.154C162.122 216.637 162.515 217.029 162.999 217.029C163.484 217.029 163.877 216.637 163.877 216.154V211.751Z" fill="#555A8B"/>
<path d="M163.877 221.8C163.877 221.317 163.484 220.925 162.999 220.925C162.515 220.925 162.122 221.317 162.122 221.8V226.203C162.122 226.687 162.515 227.078 162.999 227.078C163.484 227.078 163.877 226.687 163.877 226.203V221.8Z" fill="#555A8B"/>
<path d="M163.877 232.129C163.877 231.646 163.484 231.254 162.999 231.254C162.515 231.254 162.122 231.646 162.122 232.129V236.533C162.122 237.016 162.515 237.408 162.999 237.408C163.484 237.408 163.877 237.016 163.877 236.533V232.129Z" fill="#555A8B"/>
<path d="M163.877 242.459C163.877 241.975 163.484 241.584 162.999 241.584C162.515 241.584 162.122 241.975 162.122 242.459V246.862C162.122 247.345 162.515 247.737 162.999 247.737C163.484 247.737 163.877 247.345 163.877 246.862V242.459Z" fill="#555A8B"/>
<path d="M163.877 252.788C163.877 252.305 163.484 251.913 162.999 251.913C162.515 251.913 162.122 252.305 162.122 252.788V257.191C162.122 257.674 162.515 258.066 162.999 258.066C163.484 258.066 163.877 257.674 163.877 257.191V252.788Z" fill="#555A8B"/>
<path d="M163.877 263.117C163.877 262.634 163.484 262.242 162.999 262.242C162.515 262.242 162.122 262.634 162.122 263.117V267.52C162.122 268.004 162.515 268.395 162.999 268.395C163.484 268.395 163.877 268.004 163.877 267.52V263.117Z" fill="#555A8B"/>
<path d="M181.87 278.039H165.679V285.014H181.87V278.039Z" fill="#E9A586"/>
<path d="M181.87 278.039H165.679V281.527H181.87V278.039Z" fill="#E98E72"/>
<path d="M181.87 285.014C180.684 284.378 165.678 285.014 165.678 285.014C165.678 285.014 161.933 288.202 156.936 288.601C153.128 288.905 151.873 291.889 151.403 294.086C151.214 294.973 151.884 295.808 152.793 295.808H182.472C183.199 295.808 183.808 295.267 183.885 294.546C184.155 292.003 184.436 286.389 181.87 285.014Z" fill="#49466B"/>
<path d="M151.877 292.487C151.664 293.034 151.511 293.581 151.403 294.086C151.214 294.973 151.884 295.808 152.793 295.808H182.472C183.199 295.808 183.808 295.267 183.885 294.546C183.945 293.985 184.003 293.269 184.033 292.487L151.877 292.487Z" fill="#332D52"/>
<path d="M184.038 155.6C184.038 153.869 182.631 152.467 180.895 152.467C179.16 152.467 177.753 153.869 177.753 155.6V195.265C177.753 196.995 179.16 198.398 180.895 198.398C182.631 198.398 184.038 196.995 184.038 195.265V155.6Z" fill="#555A8B"/>
<path d="M180.895 209.553C182.631 209.553 184.038 208.15 184.038 206.42C184.038 204.69 182.631 203.287 180.895 203.287C179.16 203.287 177.753 204.69 177.753 206.42C177.753 208.15 179.16 209.553 180.895 209.553Z" fill="#555A8B"/>
<path d="M213.076 155.519H160.582C158.88 155.519 157.5 153.693 157.5 151.442V102.984C157.5 89.0528 166.037 77.7593 176.567 77.7593H197.091C207.621 77.7593 216.158 89.0528 217.5 100.931V152.029C217.5 155.519 217.5 155.519 213.076 155.519Z" fill="#FAEEDE"/>
<path d="M160.639 135.698H160.686L172.138 95.7434C173.838 89.813 170.936 83.6696 165.553 81.0697C165.552 81.0701 165.552 81.0703 165.551 81.0708C164.351 81.9213 163.255 82.9081 162.285 84.0081C162.275 84.0188 162.266 84.0295 162.257 84.0402C162.03 84.2985 161.811 84.5635 161.598 84.8342C161.581 84.8556 161.564 84.8771 161.547 84.899C160.883 85.7513 160.291 86.6618 159.78 87.6216C159.758 87.6627 159.737 87.7044 159.716 87.7454C159.577 88.0112 159.444 88.2811 159.318 88.5543C159.284 88.6282 159.25 88.7025 159.217 88.777C159.104 89.0281 158.998 89.2824 158.897 89.539C158.866 89.6171 158.834 89.6943 158.804 89.773C158.692 90.0666 158.588 90.3638 158.491 90.6644C158.48 90.7 158.466 90.7345 158.455 90.7701C158.347 91.1108 158.249 91.4558 158.161 91.8046C158.144 91.8711 158.13 91.9389 158.114 92.0058C158.048 92.2793 157.987 92.5546 157.933 92.8324C157.911 92.946 157.892 93.0608 157.872 93.1753C157.83 93.4131 157.792 93.6525 157.76 93.8935C157.743 94.0177 157.726 94.1423 157.712 94.2673C157.683 94.5144 157.661 94.7636 157.642 95.0136C157.634 95.1261 157.623 95.238 157.617 95.3509C157.596 95.7116 157.583 96.0745 157.583 96.4403V132.652C157.583 134.334 158.951 135.698 160.639 135.698Z" fill="#F2E6D7"/>
<path d="M186.877 87.5693C194.109 87.5693 199.973 84.7982 199.973 81.3801C199.973 79.9568 198.935 78.654 197.224 77.6096C197.097 77.607 196.973 77.5905 196.844 77.5905H176.561C174.831 78.6381 173.781 79.9481 173.781 81.3801C173.781 84.7982 179.644 87.5693 186.877 87.5693Z" fill="white"/>
<path d="M206.434 103.532C209.084 103.532 211.232 101.39 211.232 98.7486C211.232 96.1067 209.084 93.9651 206.434 93.9651C203.784 93.9651 201.636 96.1067 201.636 98.7486C201.636 101.39 203.784 103.532 206.434 103.532Z" fill="white"/>
<path d="M206.434 101.975C208.221 101.975 209.67 100.53 209.67 98.7486C209.67 96.9668 208.221 95.5225 206.434 95.5225C204.647 95.5225 203.198 96.9668 203.198 98.7486C203.198 100.53 204.647 101.975 206.434 101.975Z" fill="#F2E6D7"/>
<path d="M147.468 162.759L132.465 158.485C130.875 158.032 129.955 156.381 130.409 154.797L149.24 89.1011C150.877 83.3867 156.852 80.078 162.584 81.7108C168.316 83.3437 171.635 89.2998 169.997 95.0142L151.167 160.71C150.713 162.294 149.057 163.211 147.468 162.759Z" fill="#FAEEDE"/>
<path d="M153.455 125.172C151.925 130.508 153.893 135.788 157.862 137.35L163.651 117.154C159.454 116.389 154.984 119.836 153.455 125.172Z" fill="#FFF7EE"/>
<path d="M136.283 178.242C128.565 175.36 131.023 170.209 132.631 168.772C131.547 168.967 130.394 168.297 129.946 167.294C129.498 166.29 129.732 165.047 130.442 164.208C131.153 163.368 132.777 162.929 133.878 162.972L143.399 165.62C149.307 169.953 144.32 181.243 136.283 178.242Z" fill="#E9A586"/>
<path d="M132.465 158.485L131.804 160.196C131.398 161.248 131.981 162.421 133.067 162.737L144.383 166.024C145.369 166.31 146.408 165.777 146.747 164.811L147.468 162.759L132.465 158.485Z" fill="#F2E6D7"/>
<path d="M153.105 89.8212L148.684 106.343C148.315 107.723 149.138 109.14 150.522 109.509C151.907 109.877 153.329 109.056 153.698 107.676L158.119 91.1545C158.488 89.7743 157.665 88.357 156.281 87.9888C154.896 87.6206 153.475 88.441 153.105 89.8212Z" fill="#FFF7EE"/>
<path d="M186.876 85.927C192.919 85.927 197.817 83.8717 197.817 81.3366C197.817 79.7883 195.984 78.4218 193.185 77.5905H180.568C177.769 78.4218 175.936 79.7883 175.936 81.3366C175.936 83.8717 180.834 85.927 186.876 85.927Z" fill="#E9A586"/>
<path d="M195.232 80.024H178.521L179.599 64.4854H194.154L195.232 80.024Z" fill="#E9A586"/>
<path d="M194.154 64.4854H179.599L179.004 73.058C181.381 74.2536 184.058 74.9423 186.901 74.9423C189.726 74.9423 192.386 74.2616 194.75 73.0808L194.154 64.4854Z" fill="#E98E72"/>
<path d="M214.97 32.3114C212.23 32.0383 200.54 35.4194 200.54 35.4194L201.331 40.5788C208.181 38.1204 217.71 32.5845 214.97 32.3114Z" fill="#32386D"/>
<path d="M201.971 48.955C201.971 48.955 205.289 41.1251 200.54 35.4194L166.931 45.1312C166.931 45.1312 163.51 52.6931 168.136 57.9113C172.762 63.1295 200.083 54.8189 201.027 52.8886C201.971 50.9582 201.971 48.955 201.971 48.955Z" fill="#332D52"/>
<path d="M199.139 45.1311C200.413 45.1311 201.445 43.7645 201.445 42.0788C201.445 40.393 200.413 39.0264 199.139 39.0264C197.865 39.0264 196.833 40.393 196.833 42.0788C196.833 43.7645 197.865 45.1311 199.139 45.1311Z" fill="#49466B"/>
<path d="M171.832 52.4422C169.699 52.5394 167.996 54.2798 167.996 56.43C167.996 58.5802 169.699 60.3206 171.832 60.4177V52.4422Z" fill="#E9A586"/>
<path d="M171.832 54.6728C170.935 54.7653 170.233 55.5119 170.233 56.4299C170.233 57.348 170.935 58.0946 171.832 58.1871V54.6728Z" fill="#E98E72"/>
<path d="M185.374 49.379C182.317 52.6207 178.387 52.3683 176.537 52.0131C175.989 51.908 175.485 52.3363 175.485 52.8924V55.9987C175.485 56.9512 174.798 57.8193 173.847 57.9141C172.754 58.0231 171.832 57.1699 171.832 56.1025V57.9235C171.832 66.2203 178.579 72.9462 186.901 72.9462C195.224 72.9462 201.971 66.2203 201.971 57.9235V48.9551C199.242 55.2639 187.187 54.7406 185.903 49.5055C185.844 49.2647 185.545 49.1985 185.374 49.379Z" fill="#E9A586"/>
<path d="M214.971 32.3114C215.194 32.3337 215.329 32.3943 215.397 32.4825C215.159 32.0298 213.763 29.5427 211.88 29.6529C209.81 29.7746 166.565 42.3389 166.565 42.3389C166.565 42.3389 165.591 43.9171 166.931 45.1311L166.932 45.1306L200.54 35.4194C200.54 35.4194 212.231 32.0383 214.971 32.3114Z" fill="#555A8B"/>
<path d="M166.565 42.3389L199.139 33.0163C190.81 21.216 166.223 24.9793 166.565 42.3389Z" fill="#575C81"/>
<path d="M185.193 26.2098C181.541 27.5455 178.908 32.1304 180.416 38.3026L180.627 38.3142L199.139 33.0163C196.036 28.6211 190.678 26.3883 185.193 26.2098Z" fill="#666DA2"/>
<path d="M178.44 50.6739H187.862C188.372 50.6739 188.767 51.1191 188.705 51.6242L187.933 57.927C187.881 58.3521 187.518 58.6717 187.089 58.6717H178.44C177.971 58.6717 177.59 58.2922 177.59 57.8242V51.5214C177.59 51.0533 177.971 50.6739 178.44 50.6739Z" fill="#34374E"/>
<path d="M190.81 52.1234H186.876V53.2497H190.81V52.1234Z" fill="#34374E"/>
<path d="M177.591 52.4422H171.832V53.2497H177.591V52.4422Z" fill="#34374E"/>
<path d="M199.461 50.6739H190.04C189.53 50.6739 189.134 51.1191 189.196 51.6242L189.969 57.927C190.021 58.3521 190.383 58.6717 190.813 58.6717H199.461C199.931 58.6717 200.311 58.2922 200.311 57.8242V51.5214C200.311 51.0533 199.931 50.6739 199.461 50.6739Z" fill="#34374E"/>
<path d="M189.285 67.9832C187.089 67.9832 185.51 66.8702 185.437 66.8171C185.049 66.5393 184.961 66.0004 185.24 65.614C185.518 65.2276 186.056 65.1383 186.444 65.4162C186.477 65.4389 187.962 66.4475 189.851 66.2253C190.319 66.1562 190.756 66.5031 190.814 66.9763C190.872 67.4486 190.535 67.8788 190.06 67.9361C189.795 67.9689 189.536 67.9832 189.285 67.9832Z" fill="#CB667F"/>
<path d="M186.914 51.3516H184.793C184.365 51.3516 184.019 51.6971 184.019 52.1234C184.019 52.5496 184.365 52.8951 184.793 52.8951H186.914C187.342 52.8951 187.688 52.5496 187.688 52.1234C187.688 51.6971 187.342 51.3516 186.914 51.3516Z" fill="#71748F"/>
<path d="M198.649 51.3516H197.607C197.179 51.3516 196.833 51.6971 196.833 52.1234C196.833 52.5496 197.179 52.8951 197.607 52.8951H198.649C199.077 52.8951 199.424 52.5496 199.424 52.1234C199.424 51.6971 199.077 51.3516 198.649 51.3516Z" fill="#71748F"/>
<path d="M59.3655 301.806H339.168C340.884 301.806 342.275 300.419 342.275 298.708V298.705C342.275 296.994 340.884 295.607 339.168 295.607H59.3655C57.6492 295.607 56.2579 296.994 56.2579 298.705V298.708C56.2579 300.419 57.6492 301.806 59.3655 301.806Z" fill="#3EA8D0"/>
<path d="M29.8466 301.806H49.7845C51.5008 301.806 52.8921 300.419 52.8921 298.708V298.705C52.8921 296.994 51.5008 295.607 49.7845 295.607H29.8466C28.1303 295.607 26.739 296.994 26.739 298.705V298.708C26.739 300.419 28.1303 301.806 29.8466 301.806Z" fill="#3EA8D0"/>
</svg>
